<?xml version="1.0" encoding="UTF-8"?>
<svg id="uuid-3ee936fb-20e2-4e57-9833-326909992496" data-name="Layer 2" xmlns="http://www.w3.org/2000/svg" viewBox="0 0 360 180">
  <defs>
    <style>
      .uuid-18bda400-74f8-44ff-b3d2-c5befca897bc {
        fill: #ccd6dc;
      }

      .uuid-b86609b4-049f-4ba0-95cb-ce4792fce3e6 {
        fill: #acb1b4;
      }

      .uuid-b126a6e3-f8cf-4b8d-95ed-cef58ca72081 {
        fill: #e4eaee;
      }
    </style>
  </defs>
  <path class="uuid-18bda400-74f8-44ff-b3d2-c5befca897bc" d="M165.21,0c-1.38,5.64-3.91,10.87-6.01,16.24-.7,1.8-1.25,3.99-2.01,5.8-.33.79-1.63,2.5-1.77,2.99-.29.99.12,2.19-.15,3.24-.25.96-2.59,3.81-3.24,5.6-1.28,3.56-.87,6.97-3.14,10.44-1.13,1.72-1.41,2.2-2.42,4.03-.25.45-2.45,2.95-2.78,2.88-.44-.09-1.14-1.3-1.76.05-1.08,2.33,1.43,1.84.69,4.09-.21.63-3.11,4.33-3.75,5.08-.47.55-1.53,1.06-1.71,1.35-.56.9.32,1.86.14,2.49-.13.46-.98.65-1.33,1.07-.94,1.13-3.17,5.27-3.59,6.6-.5,1.63.49,4.52.16,6.62-.27,1.76-2.01,3.95-2.29,5.19-1.12,4.92,2.66,12.42-6.53,9.95-.17,1.05.27.54.85.67,1.21.26,3.85.3,4.71.7.7.32-.11,1.61-.98,1.69-.75.07-2.05-.72-2.82-.27-.19.11-.53,1.24-.94,1.61-.45.41-1.15.42-1.53.84-.44.49-.4,1.49-.73,1.82-.36.36-1.83.34-1.96.94-.1.46,1.1,1.58.33,2.53-1.03-.7-1.6-3.09-2.52-3.76-.56-.4-1.27-.5-1.9-.15-.68.38.33.78.34,1.36.01.54-.62,1.1-.68,1.73-.07.74.55,1.6.18,2.18-.7,1.09-2.62-1.47-3.57-1.36-.44.42,2.21,2.83,2.33,3.29.07.26-.91,2.67-1.02,2.77-.45.4-7.8-1.62-9.14-.97.07,2.22,3.17,1.9,4.83,2.47,1.47.51,5.93,2.37,6.57,3.64.44.88-.66,1.44-1.55,1.22-1.39-.36-3.69-1.87-5.34-2.51-.38-.15-.89-.75-.95-.75h-5.78c-.11,0-.63.69-.84.85,1.26,1.07,2.15-.28,1.35,1.87l2.04-.34-.34,1.35c1.2-.06,5.77,1.13,5.74,2.5-.03,1-3.56,2.77-4.57,2.91-1.91.27-5.25-.85-6.36-.59-.98.23-2.02,2.53-2.76,3.03-1.24.82-6.11-1.04-8.01-.36-.97-3.03,3.45-4.66,4.25-6.46.4-.89-.08-2.04.34-2.72.26-.42,1.28-.52,1.7-1.02.53-.64.37-1.56.84-2.22.43-.6,2.14-1.25,2.55-1.87.73-1.12.3-3.53.59-4,.13-.21,2.11-.6,2.5-1.41.5-1.03-.08-2.8.32-4.1.37-1.21,2.59-2.41,2.91-3.21.3-.74-1.17-.58-1.53-1.18-.54-.89.15-4.22.83-4.96.6-.65,1.5-.28,1.74-.71,1.38-2.41-1.18-5.57,3.06-8.76.94-.7,4.94-2.22,5.11-2.45.49-.68.55-4.88-.2-4.88h-5.95c-.31-2.29,1.61-3.2,1.95-5.35.52-3.26-1.13-5.73.76-9,1.67-2.87,7.92-9.73,11.16-10.68,1.73-.5,5.03-.45,6.51-1.31s2.05-4.87,1.7-6.37c-.06-.24-.55-.24-.64-.5-1-3.23.52-3.18.96-5.71.35-2,.72-6.83.66-8.82-.04-1.32-2.13-5.56-2.52-7.61-1.01-5.28.04-10.5,1.96-15.4.13-.33.55-1.04.1-1.26-2.04,1.24-1.47,2.57-1.94,4.17-.18.59-1.02.97-1.22,1.84-.21.95.12,2.06-.14,2.92-.16.51-.88.73-.96,1.43-.05.51,1.58,9,1.87,10.02.31,1.1,1.83,3.75,1.88,4.26.07.71-.6,1.46-.7,2.35-.2,1.81.54,4.8.29,6.04s-1.86,1.82-1.99,2.82c-.29,2.16,2.74,5.72.68,7.44-3.21,2.68-8.48,1.66-11.33,3.62-.91.63-1.08,1.87-1.73,2.69-.89,1.13-2.4,1.69-3.25,2.62-.55.61-3,4.49-3.2,5.2-.72,2.55.28,6.14-.2,8.63-.13.66-1.4,1.86-1.82,2.94-2.07,5.4,2.57,5.27,6.58,5.39-.65,3.36-3.93,2.59-5.95,4.07-2.49,1.83-1.77,5.99-4.69,7.88-.46.3-2.75,1.36-3.1,1.28-1.47-.36-.3-7.55-.61-8.91-.28-1.27-.78-1-1.17-1.34-.04-.03-.05-.39-.21-.5-.48-.33-8.81.4-7.73.23-.56.69-.2,1.6-1.8,2.44-4.15,2.18-4.97-1.72-5.29-5.03-.66-6.75,2.82-8.73,4.78-14.16.52-1.43.56-2.92,1.12-4.31.84-2.08,2.42-3.09,2.85-5.64.67-3.88-.63-7,2.58-9.98.74-.68,1.86-.33,1.53-1.69-6.44,1.11-3.8,7.43-4.99,11.49-.37,1.25-1.73,2.54-2.32,3.79-.89,1.88-1.22,4.14-2.05,6.11-2.46,5.84-5.48,7.22-4.53,14.39.65,4.88,1.18,7.9,7.09,6.67-.05.31,4.42-3.4,4.42-3.4.1-.02.37-.32.82-.35,1.19-.09,2.41.08,3.6.01,1.07,3.6-.68,7.52-.71,11.04-.01,1.56.71,3.25.74,4.75.04,2.29-2.23,4.31-3.79,5.75-.35.32-.65,1.16-.84,1.22-1.06.33-.93-.87-1.51-1.54-1.15-1.33-2.24-2.4-4.06-1.5-.91,1.42,4.62,2.63,4.01,4.83-.05.19-1.88,3.16-2.04,3.26-1.23.71-4.8-3.99-5.39-3.35-1.11,1.23,6.72,5.97,6.4,7.55-.1.52-1.68,3.13-2.2,3.29-.85.26-1.93-1.37-3.71-.33-.31.18-2.41,2.37-2.68,2.76-.7,1.03-.9,2.66-1.71,3.38-.87.78-1.73.47-2.55.85-1.07.51-5.26,3.53-6.14,4.5-.41.45-3.45,4.56-3.55,4.85-.53,1.57-.75,9.22-.53,11.03s2.75,3.01,1.28,4.49c-1.87,1.89-2.29-1.89-3.07-2.53-1.79-1.48-3.76,1.17-5.51,1.29-1.47.1-2.3-1.01-3.4-1.08-1.21-.07-2.44.79-3.7.69-1.42-.1-2.95-1.38-4.46-1.38-.53,0-3.69,1.17-3.91,1.4-1.23,1.27,2.67.06,2.92.03,2.73-.28,3.89,1.19,6.08,1.26,1.74.06,5.18.16,6.79.08,1.32-.07,3.17-1.34,4.38-1.06.18.04,1.52,2.83,1.58,3.28.17,1.38-1.06,4.1-1.31,5.78s-.07,3.93-.46,5.65c-.15.65-1.68,3.72-2.02,3.92-.97.58-3.15-.9-4.22-.94-1.41-.06-1.9,1.18-2.95,1.76-1.18.64-2.95.99-3.97,1.81-2.51,2-2.17,6.83-1.62,9.75.22,1.18.83,2.15.93,3.31H0V0h165.21M131.4,70.76"/>
  <path class="uuid-18bda400-74f8-44ff-b3d2-c5befca897bc" d="M360,115.47c-1.8-.39-2.01,1.64-3.57,1.73-1.83.11-1.68-1.29-2.05-1.41-1.27-.4-.9,1.15-1.2,1.35-1.25.8-1.04-1.69-2.18-1.7-.94-.02-1.16,1.53-1.73,1.66-.77.18-5.36-1.58-5.19.17.04.48,1.3,1.96.97,2.27-2.21-.7-4.48-1.29-6.64-2.05-1.67,1.58-5.05,4.36-6.93,1.44-.22-.34-.3-1.36-.38-1.42-.84-.7-1.27,1.95-1.36,2.04-.17.17-3.8-.88-4.71-.3-.22.14-1.11,4.29-1.83,4.96-.76.72-3.4.36-2.55,1.72.14.23,1.08.08.96,1.24-.09.84-1.12,1.12-1.31,1.78-.3,1.03.39,2.37-.58,3.16-.95-.01-.45-1.58-.95-2.27-.28-.4-1.28-.51-1.53-1.36-.34-1.18.36-2.74-.59-3.83-.92-.17-1.76-1.59-2.36-1.72-1.58-.34-.25,1.55-1.71,1.71-.72-.6-.9-1.47-.86-2.37-2.24,1.1-1.4.57-2.42-.81-.79-1.06-1.8-.53-1.67.62.09.82,2.55,2.37,1.71,3.24-.41.43-4.07-2.55-4.59-3.05-.77-.14-.47.34-.51.84-.05.75.31,2.22-.56,2.51-2.35.79-2.31-2.78-3.69-2.35-1.92,1.5.71,5.13-.92,6.05-2.35,1.34-1.41-3.43-1.71-4.45-.35-1.18-2.73-2.03-2.92-2.34-.38-.67.53-2.96-.92-2.99-.16,0-.46,1.6-.45,1.88.07,2.48,2.92,2.77,3.03,3.72.39,3.3-.59,4.67-2.24,7.3-1.27.42-.79-1.11-1.51-1.53-.62-.36-1.5.03-1.98-.23-.75-.41-1.94-3.62-4.27-2.96-1.54.44.87,2.19.81,3.17-.01.22-.89,2.69-1,2.78-.59.44-5.33-1.12-5.97-1.9-.29-.35-.63-2.1-1.53-1.35-.79.66.4,3.19.17,3.72-.13.32-3.97,3.44-4.48,3.7-2.34,1.19-2.99-1.01-4.52-1.5-1.63-.52-3.52.66-4.28-1.5-.19-.55-.06-1.6-.48-1.9-1.16-.83-2.56,1.28-2.06-2.52-1.38-.44-2.89.95-3.94,1.02-1.39.09-1.86-1.61-3.37.68-.46-3.53-1.71.26-2.04.34-.84-.03-1.01-1.2-1.86-1.02-1.43,1.85-2.33,4.1-3.92,5.77l-2.3-2.45c-3.08-.55.65,2.76.78,3.67.18,1.26-1.57,3.45-.88,4.57.44.71,2.35.72,2.9,1.19.42.36.39,1.32.86,1.52,1.55.68.19-1.75.51-2.72.26-.25,3.09.93,3.4,1.19.71.58.62,3.52-.86,3.56-2.28-.21-4.53.64-6.8.36-1.22-.15-2.33-.88-3.73-1.02-2.42-.25-5.18.17-7.65,0,0-1.39-.05-3.19-.42-4.52-.15-.55-.53-.74-.6-.91-.35-.87-.46-2.01-1.44-2.47s-4.33-.07-4.67-.6c-.55-.85,1.12-1.08.67-2.01l-2.03-.87c-.14-.5.33-.56.57-.79.52-.51,3.43-2.81,4-3.14,1.19-.69,2.23.17,2.55-1.87.14-.92-.14-2.07.02-2.87.01-.06.49-.44.6-.92.18-.85.66-3.97,1.1-4.35,1.01-.85,5.89-.8,6.14-2.38.22-1.4-1.66-3.87-1.74-5.44-.23-4.48,1.89-10.16,1.03-14.93l-.96-10.5c.24-1.04,5.23-2.46,6.26-3.57.62-.67,3.2-5.79,3.2-6.65,0-1.2-.81-5.37-1.51-6.31-4.39-3.72-8.99-7.21-13.45-10.85-1.07-.87-1.59-1.49-2.56-2.37-.4-.36-1.74-1-1.79-1.09-.1-.17-.39-3.3-.42-3.85-.05-.8.47-1.5.29-2.27-.44-1.89-3.51-2.27-3.99-5.55-.4-2.79.55-2.07,2.17-3.55,3.52-3.23.12-3.71.15-6.28,0-.45,1.11-2.55,1.38-2.73.53-.35,3.43,2.06,3.94,2.56.46.45.4,1.18.71,1.4.35.25,1.73.44,2.76.97,1.2.62,3.53,1.51,4.35,2.38,1.89,2,1.84,8.72,2.54,9.18,1.73,1.15,1.3-3.09,1.39-3.86.52-4.24,2.6-1.16,3.02-1.57-.14-1.21-1.58-1.58-1.71-2.91-.06-.64.64-.27.72-.97.12-.93.09-6.02-.22-6.64-.34-.67-1.7-1-1.77-1.09-.29-.38.18-1.66-.93-1.65-1.03,0-1.29,1.71-2.19,1.92-1.15.27-2.06-.63-2.55-.53-.84.17-.16,2.1-1.04,1.68-1.16-.55-.61-2.87-1.17-3.84-.26-.45-2.17-1.45-2.37-2.5-.11-.75,3.32-2.15,3.66-3.42.24-.91-.61-2.3-.64-3.34-.07-2.18,1.2-1.13,2.53-1.88,1.1-.62.33-1.65,2.38-1.3,1.97,1.61,12.41,4.01,13.37,5.16.49.58,1.24,3.71,1.84,4.78,1,1.77,2.84,2.71,3.7,3.87.65.87.7,2.5,1.34,3.33.48.62,2.1,1.14,2.39,1.69.4.78-.93.29-1.04.69-.26.99.63,10.63,1.05,11.02.04.03.97.03,1.01,0,.1-.09.62-2.27.66-2.58.33-2.72.4-7.79-.47-10.34-.99-2.89-3.85-4.88-2.03-8.45.38-.74,3.48-3.49,2.86-4.1-3.58.26-1.85-.18-2.45-2.14-.15-.49-.8-.7-.95-1.43-.14-.69-.12-4.77.06-5.37.16-.53,2.04-1.68,2.65-2.44,1.5-1.86.83-3.4,4.08-2.55.2-.88-1.24-1.37-1.33-1.91-.07-.38.92-1.41,1.21-1.46.82-.14.98,1.25,1.38,1.35,1.18.28,3.33-1.29,4.86-.7.28-4.23-4.54-.48-5.1-1.02v-2.38c1.59-.54,4.26,1.54,5.57,1.28.65-.13,1.39-1.67,2.15-1.89,1.93-.55,4.13.64,4.86-2.45h22.44c-.2,1.91-2.51.71-3.57.68-.46-.01-.92.28-1.36.27-.76,0-1.37-.49-2.31-.21-1.11.32-1.87,2.53-2.8,2.68-1.79.29-3.59-2.35-5.6-1.72l2.91,3.38c.96.9,1.09,6.94,2.88,5.64,1.52-1.11-.81-3.67-.98-4.51-.45-2.19,4.94-4.09,6.75-3.83-.5,3.3-.22,5.6,1.58,8.45,2.19,3.48,3.55,2.27,7,3.2.91.24,6.29,2.32,6.72,1.94-.3-.96-.25-2.02-.6-2.96-.89-2.45-2.38-1.53-1.34-5.25.52-1.86.77-2.45,2.79-2.64,6.19-.61,3.48,5.9,5.44,8.49.59.79,3.99,2.29,5.02,3.04.34.25.43.75.74,1.03.38.33,1.17.34,1.39.66.42.63.02,3.2,1.51,3.75.25-1.94.78-3.45-.33-5.27-.45-.73-2.45-2.42-2.66-3.12-.75-2.58-.04-6.29-1.18-9.01-.62-1.48-2.71-3.04-3.31-4.68h17.68c-.47,3.56-4.72.59-4.76,3.39,1.94-.26,7.97.39,8.42,2.61.23,1.12.37,6.85,2.42,2.94.81-1.54-.2-1.88-.75-3.24-.25-.63-.07-1.81-.56-2.16-.29-.21-.96-.09-1.35-.35-.77-.49-.41-1.76-2.39-.84V0s2.72,0,2.72,0c2.02,1.53,4.58,2,6.46,0h7.48v115.47"/>
  <path class="uuid-b86609b4-049f-4ba0-95cb-ce4792fce3e6" d="M180.17,0l9.98,4.37,2.93-4.37h.68c1.34,2.03,3.93,3.36,3.44,6.08l17.3,5.81c.62.28.19,1.11.01,1.54-.33.8-2.74,3.89-3.39,4.43-.49.41-1.65.37-1.38.98,1.05,2.41,2.71-1.67,2.9-1.85.41-.4,1.08-.32,1.49-.89.32-.43.93-2.77,1.05-2.86.26-.19,1.69,1.04,2.38.68.54.52-2.19,3.55.5,2.37.8,1.4-1.08,1.31-1.86,1.88-2.41,1.76-1.8,3.64-2.45,5.71-.23.73-1.03.68-1.29,1.17-.37.68-.46,4.24-1.63,2.21-.78-1.36-.1-3.37-.76-4.85-.6-.14-1.01.73-1.48.65-1.42-.25-2.08-2.77-2.23-2.88-1.09-.75-2.38.95-2.06-3.02.22-2.86,2.27-5.52-.51-7.99.03,1.62.7,2.41.48,4.22-.16,1.33-1.68,3.53-1.68,3.76,0,.68,1.42,1.59,1.04,3.06-.05.21-2.47.02.16,2.21.73.2.29-.83.98-.66.43.11,1.81,1.16,1.87,1.56.05.31-.59.92-.67,1.63-.23,2.05.74,4.25.69,5.11-.02.46-.54.77-.6,1.08-.1.52.59.97.54,1.57-.04.52-.67,1.03-.64,2.09.05,1.22.89,1.85,1.3,2.81.2.47,0,1.17.27,1.77.83,1.94,3.78,1.81,4.74,2.73,1.04.99,1.25,3.06-.67,3.08-.28,0-1.93-2-1.52-.55.61,2.16,5.3,1.99,5.43,4.59-1.5.35-2.13-.92-3.16-1.43-1.13-.55-2.36-.96-3.53-1.56-.99-.51-1.3-1.39-2.66-1.45-.53-.02-4.65,1.11-5.04,1.35-.62.39-.56,1.73-.57,2.41-.84,0-1.53.26-1.97-.57-.07-.14-.74-2.84-.74-2.99v-6.62c-.5-.07-.52.92-.58,1.28-.44,2.65-.65,2.38-1.39,4.4-.46,1.26.75,1.68-1.77,1.45-.31,1.21.63,2.14.69,3.22s-2.87.21-3.27-.13c-.67-.57-.39-1.6-.49-1.71-.16-.16-1.94.19-2.71-.18-.65-.31-.81-1.5-1.37-2.02-1.08-1-3.63-1.21-4.25-3.22-.37-1.18.29-3.03-.83-3.75.06,2.33-.54,4.52,1.38,6.26.91.83,3.28,1.56,3.65,2.81.23.77.15,2.59-.43,3.16-.44.44-3.66.13-4.42-.01-.82-.15-1.34-1.11-2.76-1.32-5.85-.86-3.78,4.46-8.64,4.39.49.88,1.46.38.84,1.68-.83,1.76-5.62,6.77-7.97,5.43-.48-.55,1.72-3.65,2.21-4.05s1.13-.31,1.18-.35c.25-.21-2.11-5.43,2.37-3.9-.59-1.66-3.9-2.29-4.34-3.81-.17-.61-.37-3.44-.42-4.33-.4-7.04.36-11.44,3.97-17.46,1.45-2.41,4.8-5.56,4.21-8.7-.31-1.62-5.74-2.33-5.81-2.74l4.44-14.75h8.84Z"/>
  <path class="uuid-18bda400-74f8-44ff-b3d2-c5befca897bc" d="M222.32,0c2.19.48,1.05.89,1.37,2.53.14.74.92.98.51,1.87-.1.22-2.84,3.54-3.07,3.74-.4.36-.96.74-1.53.68-.51-2.03,1.53-3.6,2.03-5.27.21-.72-.49-.55-.97-.45l-3.97,7.07c-.55.81-1,1.05-1.86,1.37-5.33-2.38-11.05-3.95-16.58-5.85-.26-2.62-2.15-3.63-3.48-5.7h27.54Z"/>
  <path class="uuid-18bda400-74f8-44ff-b3d2-c5befca897bc" d="M192.07,0l-2.2,3.69c-2.48-1.63-5.44-2.2-8-3.69h10.2Z"/>
  <path class="uuid-b126a6e3-f8cf-4b8d-95ed-cef58ca72081" d="M194.79,0c1.32,2.07,3.22,3.07,3.48,5.7,5.53,1.9,11.24,3.47,16.58,5.85-.11.04-.23.25-.34.34l-17.3-5.81c.49-2.72-2.1-4.05-3.44-6.08h1.02Z"/>
  <path class="uuid-b126a6e3-f8cf-4b8d-95ed-cef58ca72081" d="M181.87,0c2.56,1.5,5.51,2.06,8,3.69l2.2-3.69h1.02l-2.93,4.37-9.98-4.37h1.7Z"/>
  <path class="uuid-b86609b4-049f-4ba0-95cb-ce4792fce3e6" d="M191.05,66.91c.83.51,1.74,2.44,2.62,2.67,1.33.35,2.71-2.55,4.32-1.35.54.41-.26,2.13.88,2.41.54-1.31.5-2.66-.84-3.42-1.06-.6-2.42.39-2.88,0-1.03-.88-.03-7.32-.71-7.79-.14-.09-2.59.92-3.03-.54-.39-1.3,1.61-1.26,1.7-1.71.16-.76-.91-2.65-.71-2.84,2.82.98,3.47-.75,5.6-2.04,1.01.6.41,3.81,1.65,3.69,2.32-.21,1.79-3.47,1.95-3.67.06-.07,1.31-.23,1.76-.44s.82-.83,1.15-.89c.59-.12,1.94,1.33,3.09,1.57s5.79.27,6.23.57c.84.57-.81,2.7,1.18,2.9.38.04,2.33-.45,2.65-.65.89-.56.75-4,2.95-2.92l6.97,14.11c.25-.06.76.06.85-.01.26-.22-1.48-6-.3-6.75,1.1-.69,3.85.92,4.72,1.66,4.35,3.69,8.76,7.46,13.27,11.03.65.91,1.36,5.33,1.25,6.42-.03.32-2.85,5.34-3.14,5.63-.75.74-6.18,2.86-6.29,3.3.26,5.54,1.3,11.4,1.05,16.94-.12,2.68-1.27,6.77-1.06,9.15.14,1.65,1.53,3.68,1.74,5.4-.11.66-5.42,1.06-6.17,2.05-.63.82-.75,4.13-1.33,5.29-.7-.75-.91-1.84-1.7-2.38-.17,1.27.85,3.29.17,4.42-.43.72-4.45,1.69-5.46,2.7-1.52,1.52-1.39,6.67-3.73,1.37-4.03,1.04-1.48,4.42-2.29,6.04-.08.16-2.44,2.2-2.64,2.28-1.31.56-.97-.46-1.59-.86s-2.64-.42-2.45-1.14c.16-.6,2.07-3.65,2.54-4.26.76-.98,4.1-3.58,3.86-4.55-.44-1.73-12.86-4.82-14.1-10.06-.87-3.68.99-2.62,3.12-3.38,1.74-.62-1.08-1.16-2.08-1.07-3.97.34-1.23,4.07-1.55,6.45-1.17.58-2.91-.18-3.82.07-.69.19-1.22,1.46-1.81,1.57-.4.07-1.1-.3-1.66-.29-.61,0-1.95.43-2.22.23-.65-.47-.07-1.88-.49-2.58l-3.57-2.37c.02,1.24,1.5,1.71.86,3.05-.71,1.49-2.22-.36-2.55,0,.55,2.49-2.09,1.26-2.58,2.02-.51.8.52,3.12-1.84,2.23l-3.4-2.88c-.01,1.77,3.73,3.78,3.74,5.27,0,.62-2.74,3.04-3.39,3.74-.92.99-.77,2.24-2.55,2.21-2.72-.05-5.14-3.54-7.99-3.74.07.27.74.85.95.99.99.69,4.96,2.99,5.33,3.77.34.72.1,1.66.7,2.36.71.82,2.57.6,2.57,1.53,0,1.16-1.6,3.64-2.88,3.2-.42-.14-1.08-2.25-1.48-2.94-.27-.47-1.09-1.9-1.78-1.78l2.04,4.41c-.17.16-1.93-.15-2.48,0-.47.12-.28,1.05-1.03,1-1.74-.13-1.45-2.9-2.43-2.68-1.24.95.05,2.83,1.06,3.35,1.36.7,5.4.26,7.07.02,1.35-.2,3.12-1.62,4.27-.48.6.6,2.48,8.81,2.32,9.75-.05.28-.6,1.46-.78,1.62-1.08.95-7.76,1.65-7.99-1.02h1.7c.52-2.92-5.2-2.48-5.44-2.72-.19-.18.33-3.14-.32-4.27-1.13-1.97-2.37-1.48-3.85-1.93-.32-.1-2.8-1.62-2.28-.44.69,1.57,4.1,4.22,5.24,5.97.98,1.5,2.93,4.89-.31,4.76-1.45-.06-3.13-2.06-3.41-2.06h-9.69c-.27.92,1.02.8,1.63.92,2.74.54,7.2-.55,6.87,3.16-1.8-.14-3.81-.84-5.61-.68-3.16.27-8.2,1.95-10.92,2.01-1.16.03-2.2-.46-3.68-.27-1.27.16-2.35.98-3.77,1.02-.93.02-5.68-1.67-5.9-2.29-.89-2.55,2.71-3.22,4.55-3.18,1.11.02,2.08,1,3.22,1.03.74-2.33-1.96-2.6-2.62-3.49-.37-.51-.28-1.66-.77-2.46-2.89-4.72-9.37-3.75-12.94-7.45s-3.79-10.95-.66-14.94c1.61-2.07,3.62-2.28,5.09-4.08.68-.84,2.16-4.3,2.37-4.45.25-.17,1.15.15,1.73.07.13-.02,2.22-1,2.34-1.06.53-.31,2.42-3.18,2.06-3.56-.21-.21-1.83.55-2.04.34-.05-.05.14-1.77-.68-1.02-.14.13-1.17,2.98-1.77,3.33-1.39.81-3.21-1.52-2.65-2.99,1.2-.24.63,1.7,1.86,1.71.84,0,.96-.88.86-1.53-.21-1.35-4.23-3.34-2.7-5.42,1.28-1.74,1.77.95,2.86-.2,1.55-1.88,5.26-11.12,6.65-12.03.88-.58,3.21-.44,4.21-.17,1.35.36,1.94,2.64,3.25,1.16l-1.36-2.2c2.32.14,1.66-1.67,2.28-3.33.41-1.09,1.06-1.79,1.37-3.04.53-2.14-.06-7.32,3.34-7.55,3.09-.2,4.42,3.28,6.1,4.41.85.57,2.19.6,2.8,1.11.55.47,1.4,2.53,1.8,3.29.76-.05.13-1.84.33-2.04.1-.1,1.03.07,1.36,0l-2.8-2.14c-3.66-1.15-4.69-5.74-8.89-5.64-1.53.04-2.53,1.17-3.94,1.32.61-3.98,3.94-6.57,5.81-9.66.32-.53.2-.94.31-1.2.1-.23.44-.82.68-1.36.54-.57,3.65-3.03,3.72-3.27.23-.77-2-2.2-.57-3.44,1.3-1.13,2.92.86,3.3.59.05-.03.15-.66.5-1.02.72-.75,4.89-5.54,5.27-5.64,1.34-.34,1.24.64,1.96.83.41.11.97-.25,1.48-.14.82.19,1.51.77,2.36.88.44.61-2.5,2.63-2.72,3.39,3.79-.93,2.89-.19,4.16,2.13,1.37,2.5,1.88-.93,2.98-1.79-.64,2.26-1.34,4.26.33,6.31.35.43.91.38,1.03.49.03.03-.08.49.23.69,2.24,1.39,5.62.62,6.91-1.71ZM181.02,122.6v.34c.22-.11.22-.23,0-.34Z"/>
  <path class="uuid-b86609b4-049f-4ba0-95cb-ce4792fce3e6" d="M171.63,17.36c.86,1.32-3.95,7.37-4.78,8.9-1.74,3.22-3.23,7.25-3.36,10.91-.07,1.94.15,9.53.62,10.96.81,2.49,2.78,2.37,1.28,6.21-.63,1.61-3.51,4.22-4.07,5.78-.43,1.19.04,2.33-.45,3.63-1.59,4.21-8.33,10.25-10.1,14.7-1.57,3.95.22,4.26.2,6.96,0,1.16-.81,5.19-1.25,6.26-1.34,3.26-5.3,1.86-7.98,3.23-1.9.97-3.26,3.42-5.65,3.47-3.72.09-.7-4.48-.21-6.27.55-2,.91-4.94,1.12-7.04.31-3.12-.18-9.83.5-12.07.59-1.95,3.44-4.56,4.33-6.54,1.32-2.92,2.18-5.77,3.72-8.85,3.78-7.52,10.07-16.56,12.83-24.2.67-1.85.6-4.08,1.14-5.65.26-.76,1.82-2.41,2.35-3.42.64-1.21,3.65-8.42,4.06-8.67,1.22-.75,1.73,1.13,2.23,1.28.44.14,2.92-.44,3.47.41Z"/>
  <g>
    <path class="uuid-b86609b4-049f-4ba0-95cb-ce4792fce3e6" d="M54.39,180c1.03-2.37-1.95-7.17-1.19-8.82.39-.85,5.22-4.29,6.28-4.61,1.44-.43,3.02.24,4.28-.48,2.86-1.63,1.63-4.95,2.56-6.27.48-.68,1.54-.61,2.2-1.2,1.42-1.27.1-2.31,3.4-2.07,1.28.1,3.47,1.49,4.4,2.39.73.71,1.55,2.77,2.46,3,.78.2,5.06-1.23,5.19-1.82.43-1.92-3.03.39-3.31.46-2.03.44-1.95-1.08-2.98-1.99-.54-.48-1.76-.6-2.21-1.52,3.23-1.35.84-2.1,1-3.72.08-.85,1.1-1.11,1.3-1.78.27-.92-.04-2.18.07-3.16-1.39-.31-2.07,1.66-2.24,2.71-.46,2.91,2.75,4.83-2.68,4.41-1.93-.15-4.83-.49-5.19-2.63-.63-3.69,2.67-4.23,2.99-7.38.18-1.72-.63-2.83-.66-4.11-.02-.77.46-1.49.32-2.33-.12-.73-.88-.95-1.03-1.72-.91-4.67,1.22-9.7,5.7-11.62,5.58-2.39,6.13,2.2,10.45,1.97,1.84-.1,4.99-1.8,7.16-2.04,1.66-.18,2.99.57,4.65.24,1.44-.29,2.65-1.84,3.96-2.15,1.71-.41,3.61.1,5.27-.17,2.03-.32,4.89-2.81,7.32-1.16,1.49,1.01,1,8.93,1.6,11.3.7,2.75,6.72,8.33,6.08,10.93-.53,2.16-5.6,8.21-7.32,10.04-1.07,1.14-3.07,2.3-4.1,3.47-2.17,2.46-3.87,6.74-6.47,8.72-.78.6-1.68.75-2.54,1.53-.88.8-1.93,2.97-2.68,3.44-.72.46-1.55.17-1.85.36-.12.08-.37,1.33-.73,1.82-.67.93-3.1,3.41-4.24,3.24-2.54-.38.84-1.9,1.2-2.21.54-.46,2.82-2.83,2.7-3.39-.36-.45-1.94-1.16-2.38-1.21.31-1.78-2.87-1.97-3.55-1.34-1.07.98-1.94,3.97.15,4.39-.17.39.14.81-.49,1.72-1.47,2.12-4.13,3.06-5.97,4.74h-28.9Z"/>
    <path class="uuid-18bda400-74f8-44ff-b3d2-c5befca897bc" d="M360,131.77v2.72c-3.72,1.28-7.4,2.78-11.14,3.98-15.35,4.92-32.04,7.02-46.83,12.3-2.22.79-4.5,2.76-6.18,3.34-2.41.83-1.27-1.33-.43-2.47,2.21-3,12.1-7.13,15.84-7.95,1.08-.23,2.37.21,3.44-.61.85-.64,4.64-5.38,5.09-5.5,1.08-.28,2.76,2.18,4.53,1.32.34.33-.59,2.72-1,3.15-.82.85-3.28.53-2.9,1.95,1.62-.72,4.24-.35,5.7-1.1,1.13-.58,1.04-1.9,2.16-2.6,1.21-.76,5.22-2.57,6.59-2.93,3.83-1,7.98-.57,11.73-2.55.46.68-4.23,2.55-2.71,2.72,2.45.29,4.39-3.81,6.04-3.35.47.13.95.97,1.09.97.43,0,.81-2.01,1.76-2.3,2.33-.71,2.96,1.06,4.01.98,1.18-.09.84-1.54.86-2.4l2.38.34Z"/>
    <path class="uuid-18bda400-74f8-44ff-b3d2-c5befca897bc" d="M360,121.58v2.38c-2.65-.41-3.58-2.78,0-2.38Z"/>
    <path class="uuid-b86609b4-049f-4ba0-95cb-ce4792fce3e6" d="M232.86,141.62c.13.24.51,5.22.32,5.42-.08.08-1.52.17-2.12.43-5.19,2.2-4.35,1.31-9.49,1.7-1.85.14-4.17,1.64-6.1,2.09-3.77.89-4.9,1.31-8.38,2.49-1.36.46-2.88.26-4.16.6-7.59,2.03-16.03,9.67-25.06,10.96-2.89.41-4.44-.28-7.45,1.05-1.42.62-7.26,5.15-8.27,4.14-.09-1.06.37-2.73,1.01-3.57.77-1.01,1.71-.93,2.56-1.52.72-.5,1.37-1.81,1.79-2.03.93-.5,2.28-.17,3.23-.43.57-.16.94-.81,1.8-.93,1.12-.16,2,.33,3.03.36,2.59.06,2.47-1.43,4.25-2.24,1.55-.7,3.44-.5,5.1-1.02,3.23-1.02,6.87-5.44,9.51-6.12,1.98-.52,3.81-.13,6.22-.91,1.08-.35,8.5-3.07,8.89-3.35.61-.45.49-1.22,1.05-1.67l1.52,1.02-.68-3.05c.94-.28,2.09.4,2.88.33.95-.08,1.72-1.58,2.9-1.35l-1.36,1.87c2.77.73,2.03-4.77,4.42-4.08.26,1.39-.32,2.32-.68,3.56,1.07-.05,1.35-1.02,2.48-.34.36.22.09,1.13,1.26.51,2.02-1.07.42-2.23.34-3.07-.05-.55.39-1.14.35-1.68-.09-1.16-1.78-1.04-1.7-2.21,1.82-.37,3.27,1.28,4.96,1.33,1.12.03,2.3-.65,3.64-.24.81.25.96,1.24,1.37,1.87.1.15.55.08.56.1Z"/>
    <path class="uuid-18bda400-74f8-44ff-b3d2-c5befca897bc" d="M293.37,146.72c-.02,4.04-1.09,3.88-4.6,3.75-2.62-.1-5.47-.89-8.14-.69-6.67.51-12.04,2.91-19.04,2.71-3.42-.1-6.81-.28-10.19-.32-5.06-.07-9.46-.84-14.28-1.05-2.58-.11-5.11.19-7.66.35-.12-.61.3-.85.7-1.17.71-.57,3.82-2.51,4.6-2.56.9-.06,2.17.94,3.18,1.21,1.69.44,5.15.75,6.97.84,8.66.44,15.32-2.79,23.81-3.41,2.8-.21,7.67-.68,10.2-.68,2,0,5.49,1.21,7.82,1.35s4.38-.26,6.63-.34Z"/>
    <path class="uuid-b86609b4-049f-4ba0-95cb-ce4792fce3e6" d="M203.59,127.74c.25.4-.36,2.6-.31,3.51.09,1.58,1.09,3.29,1.03,4.94,1.21,1.48.06-3.05.04-3.27-.11-1.35-.09-2.44.25-3.75.07-.25-.1-1.13.55-.79.84.44,1.48,5.78,1.77,7.07.22.98,1.1,2.73,1.14,3.32.06,1.04-1.06,1.39-1.29,2.42-.46,2.02.92,6.17-1.95,6.23s-.72-1.83-.51-2.92c.15-.79.36-3.2.38-4.06.13-5.08-3.63-1.27-4.81-3.11-1.12-1.73,2.11-7.47,1.04-9.96.15-.15,2.51.1,2.68.38Z"/>
    <path class="uuid-18bda400-74f8-44ff-b3d2-c5befca897bc" d="M307.99,136.53c.27,1.64-1.42,1.78-2.17,2.35-1.04.8,1.31.81,2.01,1.37,2.91,2.33-2.48,3.9-4.28,3.61-.67-2.42-2.78-4.29-2.67-6.96,1.45-1.04,2.71.17,3.6.25.39.03,2.44-1.2,3.51-.62Z"/>
    <path class="uuid-18bda400-74f8-44ff-b3d2-c5befca897bc" d="M268.85,137.25c.25.29-.78,7.27-1,7.58-.5.7-4.85,1.78-5.1-.65-.29-2.8,1.03-2.4,2.21-3.93,1.38-1.79.59-4.23,3.89-3Z"/>
    <path class="uuid-18bda400-74f8-44ff-b3d2-c5befca897bc" d="M350.41,131.83c.12.19.14.81.05.94-.14.21-4.6,1.39-4.84,1.33-1.26-.3-.72-2.22-1.24-3.11-.29-.5-1.93-.87-1.72-1.93,1.62-.07,3.28.11,4.9-.03.92-.08,2.46-1.36,2.6.2.07.8-.79,1.63-.69,2.02.09.36.85.43.94.58Z"/>
    <path class="uuid-18bda400-74f8-44ff-b3d2-c5befca897bc" d="M300.85,139.24c.08.08-.06,1.59.07,2.14.25,1.07,1.5,1.45,1.29,2.61-3.75,1.17-6.23-.97-6.12-4.75.8.53,4.59-.17,4.76,0Z"/>
    <path class="uuid-18bda400-74f8-44ff-b3d2-c5befca897bc" d="M252.66,142.22c-.72-.72-.24-2.72-.5-3.74s-2.06-2.14-1.62-3.65c1.14.1,3.65-.5,4.03.92.28,1.02-.69,1.67-.63,2.62.07,1.02,1.55,2.41,1.31,3.35-.26,1.04-1.91,1.18-2.59.5Z"/>
    <path class="uuid-18bda400-74f8-44ff-b3d2-c5befca897bc" d="M299.15,130.41c.1.89-.16,1.96.01,2.81.05.26,2.33,1.65,1.68,2.96-.69.66-5.49-1.83-5.74-2.6-.16-.48.93-2.67,1.2-2.86.64-.46,2.06-.28,2.84-.31Z"/>
    <path class="uuid-18bda400-74f8-44ff-b3d2-c5befca897bc" d="M295.07,141.62c.54,1.56-1.32.9-1.66,1.4-.27.4.3,1.65-.38,2.17-.52.4-4.53.72-4.77.5.3-3.67,3.7-4.32,6.8-4.07Z"/>
    <path class="uuid-18bda400-74f8-44ff-b3d2-c5befca897bc" d="M339.68,130.83c.14-.15,1.5-.44,1.81-.43,1.99,0,1.14,2.69,2.19,3.92-.11.6-3.84,1.13-4.44.71-.71-.5.07-3.81.44-4.19Z"/>
    <path class="uuid-b86609b4-049f-4ba0-95cb-ce4792fce3e6" d="M184.64,137.5c-1.04-.66.75-2.91,1.34-3.5.32-.32.94-.4,1.32-.72.44-.38.85-1.65,1.55-1.51.99.2.51,3.23-.01,4.06-.66,1.06-3.13,2.34-4.19,1.67Z"/>
    <path class="uuid-18bda400-74f8-44ff-b3d2-c5befca897bc" d="M325.93,125.75c.47.15.73,1.49.79,1.55.24.23,4.07-.39,3.7,1.24-.21.9-5.31,1.62-6.14,1.05s-.13-4.43,1.65-3.84Z"/>
    <path class="uuid-18bda400-74f8-44ff-b3d2-c5befca897bc" d="M312.07,141.62c-.34-1.15,1.07-1.51,1.29-2.27.19-.67-.17-1.95.4-2.34.36-.25.98.21,1.47.14.52-.08,2.94-2.14,3.3-.78.22.85-2.33,2.63-3.07,3.38-1.15,1.17-1.09,2.33-3.39,1.88Z"/>
    <path class="uuid-18bda400-74f8-44ff-b3d2-c5befca897bc" d="M356.6,127.02c.28.29-.14,2.12-.7,2.53-.37.27-3.2,1.6-3.55,1.57-1.74-.16-.17-1.44.02-2.04.21-.66,0-1.91.47-2.26.15-.11,3.63.06,3.76.2Z"/>
    <path class="uuid-18bda400-74f8-44ff-b3d2-c5befca897bc" d="M294.05,139.59c.19.97-.27.55-.74.77-.67.31-3.14,1.34-3.65.9-.1-.08-.25-1.81-.55-2.34-.67-1.15-3.05-1.14-2.53-3.07,3.86.06,2.82,4.99,7.48,3.74Z"/>
    <path class="uuid-18bda400-74f8-44ff-b3d2-c5befca897bc" d="M310.71,128.38l-.68,2.03c.33.07,1.26-.1,1.36,0,.14.13.13,3.61,0,3.74-1.75,1.69-4.92-7.03-.68-5.77Z"/>
    <path class="uuid-18bda400-74f8-44ff-b3d2-c5befca897bc" d="M326.68,133.47c.27,1.63-5.04,3.09-5.44,2.71.85-6.27,1.53-2.62,3.6-2.37.67.08,1.2-.32,1.84-.35Z"/>
    <path class="uuid-18bda400-74f8-44ff-b3d2-c5befca897bc" d="M292.35,138.22c-.22.21-1.18-.09-1.55-.32-.82-.5-1.06-1.78-1.51-2.5-.2-.32-.97-.11-.68-.74.25-.55,2-.78,1.36-2.55,3.1.05.88,2.77,1.09,3.87.09.44,1.91,1.64,1.28,2.25Z"/>
    <path class="uuid-18bda400-74f8-44ff-b3d2-c5befca897bc" d="M261.41,132.11c-.3,1.47.68,3.12.27,4.51-.2.69-2.21,3.04-2.99,2.28-.86-.85,1.31-3.66,1.61-4.33.13-.31.44-3.38,1.11-2.45Z"/>
    <path class="uuid-18bda400-74f8-44ff-b3d2-c5befca897bc" d="M297.41,136.23c.22.38.06.84-.31,1.14-1.98,1.66-5.03-.97-4.41-3.22.25-.26,4.59,1.85,4.72,2.08Z"/>
    <path class="uuid-18bda400-74f8-44ff-b3d2-c5befca897bc" d="M331.1,131.44c-.03,1.31-1.31,2-2.04,2.89-1.18,1.43-.76,2.74-3.74,2.21l3.91-4.41,1.87-.68Z"/>
    <path class="uuid-b86609b4-049f-4ba0-95cb-ce4792fce3e6" d="M190.59,144.39c1.17-.37,5.07,0,4.53,1.8-.22.74-2.85.64-3.5.45s-2.32-1.85-1.04-2.25Z"/>
    <path class="uuid-18bda400-74f8-44ff-b3d2-c5befca897bc" d="M271.9,138.95c1.01.62-.25,5.93-2.33,5.38-.07-1.91,1.05-3.47.68-5.43.46.07,1.31-.16,1.65.05Z"/>
    <path class="uuid-18bda400-74f8-44ff-b3d2-c5befca897bc" d="M274.85,139.25c1.18-.28.58,2.31.41,2.79-.25.7-1.51,2.82-2.45,2.64-1.67-.49,1.65-4.67,2.04-5.43Z"/>
    <path class="uuid-b86609b4-049f-4ba0-95cb-ce4792fce3e6" d="M212.8,131.78c.19.2-.66,4.81-.85,5.44-.18.6-.07.8-.84.67-.28-2.22-1.68-5.66,1.7-6.11Z"/>
    <path class="uuid-18bda400-74f8-44ff-b3d2-c5befca897bc" d="M278.75,136.87c.13,1.86.19,4.25-2.03,4.75-.68-2.15-.74-4.59,2.03-4.75Z"/>
    <path class="uuid-18bda400-74f8-44ff-b3d2-c5befca897bc" d="M286.23,138.57c2.85-.6,3.36,5.25.67,3.91-1.12-.56-.56-2.82-.67-3.91Z"/>
    <path class="uuid-18bda400-74f8-44ff-b3d2-c5befca897bc" d="M305.61,130.76c.7,1.48-2.56,4.67-3.74,3.91-.45-.34-.46-.75-.17-1.21.15-.24,3.52-3.12,3.92-2.71Z"/>
    <path class="uuid-18bda400-74f8-44ff-b3d2-c5befca897bc" d="M312.83,131.86c.34-.34,2.15-.64,2.3.09.07.35-1.32,3.44-1.91,3.54-1.62.28-1-3.01-.39-3.63Z"/>
    <path class="uuid-18bda400-74f8-44ff-b3d2-c5befca897bc" d="M302.89,127.02c.18.2-1.07,4.9-1.33,5.22-.35.43-.92.16-1.39.22-.26-1.59.76-3.36,1.63-4.65.17-.25.7-1.21,1.08-.78Z"/>
    <path class="uuid-b86609b4-049f-4ba0-95cb-ce4792fce3e6" d="M214.46,142.6c-.24.42-3.76,2.2-3.37-.45s4.25-1.08,3.37.45Z"/>
    <path class="uuid-18bda400-74f8-44ff-b3d2-c5befca897bc" d="M263.8,139.24c.38-1.89-.96-3.24-.68-5.09,1.32-1.37,3.62,5.01.68,5.09Z"/>
    <path class="uuid-18bda400-74f8-44ff-b3d2-c5befca897bc" d="M311.39,138.91c-1.61.5-3.19-2.41-2.05-3.25,2.67-.29,2.66,1.09,2.05,3.25Z"/>
    <path class="uuid-18bda400-74f8-44ff-b3d2-c5befca897bc" d="M280.69,142.18c.14-.07-.03-.79.61-.55,2.71,1.11-2.3,5.23-2.88,1.54.61-.67,1.45-.54,2.27-.99Z"/>
    <path class="uuid-18bda400-74f8-44ff-b3d2-c5befca897bc" d="M328.04,131.1c-1.09,3.19-2.67.75-3.57.67-.44-.04-1.4.48-1.52.35-.21-.23-.02-1.13.56-1.3.62-.19,4.27-.08,4.53.29Z"/>
    <path class="uuid-b86609b4-049f-4ba0-95cb-ce4792fce3e6" d="M195.81,138.57c.29,1.02-1.69,3.65-2.73,2.9-1.31-2.36.72-2.96,2.73-2.9Z"/>
    <path class="uuid-18bda400-74f8-44ff-b3d2-c5befca897bc" d="M256.66,145.7c-.38-1.69.75-2.76,1.53-4.07.98,1.62,1.12,4.75-1.53,4.07Z"/>
    <path class="uuid-18bda400-74f8-44ff-b3d2-c5befca897bc" d="M308.33,135.17c-2.28.32-2.41-2.33-2.04-4.07.63-.75,2.57,3.34,2.04,4.07Z"/>
    <path class="uuid-b86609b4-049f-4ba0-95cb-ce4792fce3e6" d="M200.14,147.48c.3.31.6,1.8-.1,1.94-.32.06-3.14-.92-3.22-1.18-.48-1.53,2.79-1.31,3.33-.76Z"/>
    <path class="uuid-18bda400-74f8-44ff-b3d2-c5befca897bc" d="M327.6,122.71c.5.42,1.23,2.08.26,2.27-.15.03-2.74-.94-2.84-1.06-.96-1.17,1.4-2.19,2.58-1.21Z"/>
    <path class="uuid-18bda400-74f8-44ff-b3d2-c5befca897bc" d="M338.24,133.81c.03,1.91-2.07,2.62-3.74,2.37-.87-.88,2.9-2.74,3.74-2.37Z"/>
    <path class="uuid-18bda400-74f8-44ff-b3d2-c5befca897bc" d="M342.3,125.35c.81,1.12-1.56,2.8-2.69,2.35-.49-1.48,1.81-3.57,2.69-2.35Z"/>
    <path class="uuid-18bda400-74f8-44ff-b3d2-c5befca897bc" d="M330.08,136.53c.13.61-.33.82-.67,1.2-.26.28-1.93,1.97-2.06,2.05-.47.3-.89-.22-1.35-.19-.25-1.25,3.79-3.33,4.08-3.05Z"/>
    <path class="uuid-18bda400-74f8-44ff-b3d2-c5befca897bc" d="M351.16,125.32c-.06-.61.16-3.61,1.18-3.39,1.73.37.44,3.4-1.18,3.39Z"/>
    <path class="uuid-18bda400-74f8-44ff-b3d2-c5befca897bc" d="M261.75,145.02c-.7.78-3.05-3.26-.79-3.35,1.29-.05.67,2.6.79,3.35Z"/>
    <path class="uuid-18bda400-74f8-44ff-b3d2-c5befca897bc" d="M348.65,125.69c1.31-.42,2.28,1.36,1.5,1.85-1.77,1.12-2.88-1.41-1.5-1.85Z"/>
    <path class="uuid-18bda400-74f8-44ff-b3d2-c5befca897bc" d="M281.47,138.57c.59,1.01-1.81,3.66-2.38,3.05-.4-.43,1.57-3.1,2.38-3.05Z"/>
    <path class="uuid-18bda400-74f8-44ff-b3d2-c5befca897bc" d="M356.85,124.7c2.77-.55,1.08,3.45-1.26.79.32-.36.78-.7,1.26-.79Z"/>
    <path class="uuid-18bda400-74f8-44ff-b3d2-c5befca897bc" d="M284.53,144c.29.43.53.25.68.34.06.23.11,1.03-.17,1.02l-2.54-1.03c.2-.9,1.38-.54,2.04-.34Z"/>
    <path class="uuid-18bda400-74f8-44ff-b3d2-c5befca897bc" d="M284.53,144c-.11-.16-.4-1.3-.34-1.36,1.37-.1,2.62,1,2.72,2.37-.09.09-1.48-.55-1.7-.68-.13-.47-.39-.25-.68-.34Z"/>
    <path class="uuid-18bda400-74f8-44ff-b3d2-c5befca897bc" d="M315.81,132.11s-.11-.83-.37-1.16c-.45-.57-1.2-.31-.99-1.21,3.15-.67,2.46,3.22,1.36,2.37Z"/>
    <path class="uuid-18bda400-74f8-44ff-b3d2-c5befca897bc" d="M346.74,124.64c-.13.18-2.56.5-2.72.34-1.33-1.38,3.78-1.82,2.72-.34Z"/>
    <path class="uuid-18bda400-74f8-44ff-b3d2-c5befca897bc" d="M250.88,141.62c-.08.08-2.06.09-2.38-.17.47-.33,1.28-1.64,1.86-1.53.51.1.68,1.53.52,1.7Z"/>
    <path class="uuid-b86609b4-049f-4ba0-95cb-ce4792fce3e6" d="M193.09,128.72c1.71-.15,1.73,1.17.5,2.03-1.29-.19-.72-1.2-.5-2.03Z"/>
    <path class="uuid-18bda400-74f8-44ff-b3d2-c5befca897bc" d="M316.15,124.98c.23,1.13-2.18,1.84-2.38.84s1.76-.9,2.38-.84Z"/>
    <path class="uuid-18bda400-74f8-44ff-b3d2-c5befca897bc" d="M262.43,138.23c-.14.7.56,2.92-.84,2.37-1.09-.42.36-2.98.84-2.37Z"/>
    <path class="uuid-18bda400-74f8-44ff-b3d2-c5befca897bc" d="M304.25,128.38c.5.49-.44,2.84-1.36,2.04-.12-.1.39-2.98,1.36-2.04Z"/>
    <path class="uuid-18bda400-74f8-44ff-b3d2-c5befca897bc" d="M305.95,135.51h-1.7s0-1.02,0-1.02c.84-.09,1.79-.02,1.7,1.02Z"/>
  </g>
</svg>