<?xml version="1.0" encoding="UTF-8"?>
<svg id="uuid-43157ec9-c684-4c24-b3d1-3c99237bd9da" data-name="Layer 1" xmlns="http://www.w3.org/2000/svg" viewBox="0 0 360 180">
  <defs>
    <style>
      .uuid-abded51e-cac4-40d4-ba29-dba7bdf9c55e {
        fill: #fff;
      }
    </style>
  </defs>
  <path d="M0,174.33l16,.33c-1.16-1.62-3.46-.81-5.16-1l-5.17-.99,10.83.67-.49-.67h2.33s-1.33.66-1.33.66l9.33-.67c-2.13-2.49-5.66-.95-8.5-.97-.44,0-1.75-.06-1.83-.69h15.66s-2.66-.67-2.66-.67l1.33-.66-6.09-.75c-.31-.46-3.23-.74-2.91-1.42.58-1.19,5.51-.15,6.76-.28.69-.08,1.6-.89,2.57-.56l-.34-.66,3.33.33v-1s5.05.15,5.05.15c1.59-.13,4.76-1.15,6.11-1.16.74,0,1.5.44,2.35.38.64-.05.47-.72.66-.72.69,0,2.84,1.31,4.16.68l-.17-.67c1.87,1.01,4.81.79,6.99.66.52-.03,3.35-.28,3.62-.35.19-.05.45-1.12,1.55-.64l-.66.66c1.3.24,1.66-.99,2.92-.44.49.22.29,1.12,1.53.77.14-.04,1.18-1.75,2.22,0l-.67.33,10.66.33c0-.59-.95-.46-1.4-.69-.21-.11-.24-.46-.37-.53-.64-.37-1.5.06-1.89-1.44.53-.38,4.19,1.04,4.67-.33-.21.03-4.5.22-3.33-.67,1.86.15,4-.23,5.81.03,1.22.17,1.05.8,1.44.95.78.29,2.37.28,3.25.36l-.17-.67c.97.4,2.36-.04,3.09.07.53.08,1.07.62,1.64.7.84.12,5.69.73,5.93.56l-.34-.66c1.95-.5,3.87.49,5.83.67l-.49-.5c1.09-1.27,2.26.11,3.45.14.22,0,1.61-.18,1.54-.64h-2s.34-.67.34-.67c-.23-.15-2.98.71-2.67-.67l4-.5c.71-.61-1.04-1.37-1.34-1.18.69-1.41,3.16-1.55,3.63.12l.7.21.17-1,1.16.33v-1.66s-2-.17-2-.17c.88-1.34,2.02-.77,3.33-1.17l-.33-1,1.47.29,1.08-1.59c1.39-.11,3.24-.18,4.57-.4.15-.02,1.58-.75,2.7-.8.27-.01,1.59,0,1.5.49l-1.98.36-.19.98c-1.03-.1-1.27-1.24-1.71-.03l-2.79.36,1,.67c-.46,1.24-2.13.59-2.79.69-.08.01-1.01.92-1.33,1.06l.11,1.25c1.61-.9,1.18.15,1.65.48.25.18,1.04-.31,1.35.35l-.66.33c1.26.58,1.44,1.71,1.67,3,1.94-.13.06.56-.13.82-.13.18.09.63-.19.84-.67.5-1.46.2-2.02.39-2.15.74-4.46,1.54-6.87,1.75s-4.79-.08-7.13.04c-.02.49,1.19.58,1.54.62.93.11,1.93-.13,2.79.21-.67,1.01-2.49-.14-2.34,1.17l-.8-.69-2.19.03.67.5-1.34.17,2.36.49c.29,2.46,3.92,1.16,5.48,1.22.53.02.92.46,1.37.51,2.48.24,4.93.6,7.44.46l-1.33.66h3s-2.33.34-2.33.34v.33c.45.3,1.21-.03,1.45.03.27.07.1.62.7.68,1.36.13,4.61-1.13,6.35-1.37s5.46-.58,7.01-.35c.81.11,1.25.68,1.97.71,1.33.04,3.18-1.31,4.57-1.45l8.94-.57c-1.11-1.7-3.64-.77-5.33-1-.14-.54.46-.23.55-.39s-.17-.51.1-.76c1.01-.95,6.3-1.84,7.95-2.08,4.11-.61,7.85,0,11.49-2.09.56-.32,3.87-1.99,4.11-2,.49-.02,1.15.72,1.46-.34l-1-.67,1.46.36.39-.71,2.82.69-.34-.66,1.84-.33.34.99,2.48-.36c-.26-.53-.21-.97.51-.99l.83.68-.66.66c1.67-.07,2.39.16,4.07-.37,1.04-.33,3-.76,4.26-.83,3.02-.17,5.4.41,8.38.02,2.33-.3,1.54,0,3.13.18.64.07,1.43-.49,2.16-.33l-.34.66c.94.5,2.37-.65,2.78-.61,1.09.11,3.09.81,4.33.82,2.05.02,4.36-1.34,6.56-.88l-.33-1.33c1.1-.35,1.73,0,2.74.37.71.25,1.76,1.1,3.12.33.35,1.5,1.2-.46,1.94-.76.43-.18,6.02-1.56,6.35-1.57.87-.04,1.61.97,2.06-.39l1.8.35.22-.93c4.03-1.54,5.82.83,8.98,1.23,1.56.2,9.5.11,10.14.53s-.59,3.18-1,3.64c-.12.14-1.49.2-1.68,1.38l.66.16c.56-1.78,4.02-.11,3.67-3l.84.29c.59-1.19,2.14-.48,3.24-.69,1.55-.29,2.52-1.34,3.17-1.58,1.51-.55,4.31-.46,6.16-1.04.28-.09.26-.65.4-.63,4.19.53,7.27-.22,11.35-.27,1.07-.02,4.07,1.32,3.5-.73l2.46.35.38-.69.16.67c1.57.02,6.07,1.43,7.26.91.09-.04.09-.59.71-.76,1.77-.5,2.84.06,4.43.56.29.09.27.57.51.62,2.65.59,7.4-.85,9.93-.87.57,0,1.36.92,2.34.9.91-.01,1.2-.69,1.81-.88,1.95-.6,10.98.29,13.48.56.42.05.79.25,1.21.29l-.34.66c1.66-1.11,2.66.61,2.9.66.49.1,5.46.43,5.96.37.66-.08.44-.74.64-.7,2.43,1.67,5.59.2,7.68,2.66l.16-.66,8.68,1.19.65.8c-.74,0-1,.99-1.67,1.17-.55.14-.99-.19-1.4-.08-.84.23-1.88.94-2.93.92l.34.66h-2.67c-.19,2.83,1.19,2.42,3.17,3.66l.68-1.3,2.82.64h-2.66s1,.34,1,.34c-.06.45-.45.58-.85.65-.86.14-5.77.04-6.15.35l.66.99-1.66.33h1.66s-.33,1-.33,1l8.18,1.98,10.82,1.03v5.67H0v-5.67ZM113,162.33l-1.33-2-.05,1.95-2.62.71c1.49.19,2.65-.11,4-.67Z"/>
  <g>
    <path class="uuid-abded51e-cac4-40d4-ba29-dba7bdf9c55e" d="M0,21V0h360v20.67l-9.16-1-.84.51.66.83-2.33-.34,1-.33c-.58-1.22-1.88-.07-2.83.02-.73.07-5.86-.14-6.25-.36-.35-.2-.35-.72-.82-.92-2.3-.99-4.75.2-6.92-.09-1.07-.14-2.6-1.27-2.75-1.3-1.87-.41-8.84-.88-10.51-.31-.46.15-.5.82-2.1.97-1.45.14-4.28-.46-4.95-.36-.32.05-.3.7-.54.87-.68.47-1.59-.22-2.34-.18l.33-1.99c-1.84-.1-4.05-.65-5.85-.71-.89-.03-.99.99-2.34,1-1.59.01-4.13-.8-5.97-.9-1.54-.08-3.8.92-1.51-1.9,0-.57-2.64-1.13-3.16-1.17-.97-.07-3.32.4-3.46.29-.13-.1-.09-.74-.58-.91-3.81-1.31-6.83,2.04-10.46.94l.33-.66c-1.04,0-2.01.07-2.59.97l-11.74,2.03,1.33.66h-3.66c1.48,1.63,0,2.03-.83.35l-2.71.97-.12,1.01h-1s.24-1.18.24-1.18c-.52-.81-1.1-.7-.74.18l-1.82.83.85.83-.38,1.02,1.19,1.97-2.84,1.33c-1.03,0-.21-.34.07-.6.57-.54,1.13-1.12,1.77-1.56-1.94-.49-.13-2.74-1.66-2.84l.99-1.65c-.86.29-1.6-.62-2.19-.68-1.35-.13-2.82,2.49-4.47,2.36-.09.13.27,1.82.39,1.92.3.26,1.84-.07,1.93.73l-9.8-1.96-.53.63,2,.84-.67.83-.33-1-5.16,1.01.17-.67c-.53-.36-5.14.84-6.03,1.15-.67.24-.64.71-.72.75-.81.35-1.77-.06-2.59-.25l1.66-.33c-.02-1.59-2.2-.86-3.33-.99l.68.51-.37.97.69.35-.77.45c-1.36-.96-3.62.17-4.07,1.71-1.2-.26-3.84-1.31-4.32.02-.66-.25-.18-1.13-.34-1.35-.23-.33-.93-.12-.83-.65,2.56.41,4.82,1.04,7.33,0-.01-.44-.17-1.11-.58-1.33-1.68-.88-5.33-1.21-7.24-1.53-.91-.15-1.95-.84-3.18-.48l.66-.66-3.79-.69-.37.69c-2.31-1.93-5.37.99-7.96.34l-6.21,2.15c-1.02,1.22,1.77-.51,1.67.5-.57.26-1.96.79-2.32,1.18s-.32.97-.66,1.3c-.44.43-2.72,1.1-3.32,1.38-.55.26-3.16,1.42-3.27,1.56-.57.68.18,3.03.73,3.6,1.86,1.95,3.92-.77,5.32-.38l1.53,2.69-1.67.33.26-.61c-1.78-.57.91-.62-.42-1.38l-2.18.82c-.81.39.15,3.05,0,3.17-.9.08-2.57.11-3.33.51-1.21.64-.7,1.84-3.67,2.49.09-.31.41-1.93.34-2-1.75.33-1.16-.43-1.69-1.14-.42-.57-.99-.4-1.22-.61-.47-.41-.04-1.59-1.42-1.25v-.49c.11-.34,1.44-.93.67-1.34l-1.67-.16,1-1.33c-1.03-.33-.87.49-1.24.64-.67.27-1.68-.15-2.26,1.02l-.17-1-1.63.72.3.95,1-.33-.3.85c.53.28.65.11.38.76l.59.38c-.7.06-1.51-.34-2.19-.05-1.02.44-.16.55-1.63.84-.77.15-.04,2.04-.84,2.88.47.63,5.75-.31,4.5-2.35l1.01-.64c.97-.19.07.6.16.66.85.53.49-1.24,1.34-.5.58.51.37.78-.2,1.13l-.64-.22-.5.77.67.33-1.01.17c-.33,1.29,1.25.16,1.33,1-.82-.18-1.53.73-2,1.33,2.39-.7,4.94-.47,7.33-1-.33,1.11-.35.65-1.21,1.15-.15.08-.13.52-.28.5-.76-.09-2.21-1.49-2.85.01l1.33.67c-1.33-.07-2.35-.6-3.66,0,.48,1.14,1.93,1.17,3,1.33l-.29.61c1.66.42,1.62,2.01.64,3.22-.72.4-6.17-1.11-7.21.16-.33.53.3,1.69.22,2.5-.07.75-.7,1.24-.7,1.66,0,.5.97,1.34.66,2.17,2.2-.8,3.96.72,2.15,2.65-.55.59-1.37.64-1.93,1.06-1.72,1.3-.8,2.78-1.52,3.81-.61.88-2.52,1.14-2.95,1.55-.51.5-1.5,2.55-1.93,3.23-.72,1.15-2.07,2.19-2.17,3.81,1.5.65,1.11,3.59.61,4.96-.17.47-.83.87-.83,1.08,0,.15.42.46.48.76.1.47.41,2.53.63,2.76.44.45,1.25.43,1.81.83,1.25.9,1.51,2.86,1.66,2.97.43.32,4.2,2.78,4.49,2.89,1.39.52,2.86-.64,4.34-.63.75,0,1.44.51,2.21.43,1.73-.18,4.67-2.52,6.62-1.33.86.52.55,2.95,3.49,1.51l.35.33-.18,1c.65.64.76-1.45,1.17-.34.62,1.71-.95,3.71-.79,4.76.17,1.15,2.38,2.49,3.02,3.67.95,1.76,1.04,3.24,1.32,4.98.13.77.97,1.16.45,2.25s-1.36,1.42-1.69,3.33c-.67,4,1.48,4.19,2.36,7,.41,1.31.25,3.05.8,4.54s2.3,2.95,2.85,4.51c.38,1.06-.5,2.01.98,3,1.03.68,2.78-.26,4.04-.37,1.39-.13,2.29.4,3.93-.34,1.49-.68,4.96-3.95,5.7-5.33.45-.85.37-2.6.58-2.92s1.93-.36,2.32-.95c.85-1.3-.72-4.02-.54-4.45.88-.44,1.83-1.92,2.41-2.33,1.08-.78,2.57-.54,3.36-2.25.18-.4.13-4.54.02-4.86-.17-.47-1.22-.59-1.25-2.41l.65-.31-1.02-2.83.99.33-.67-.83c.17-.84,3.8-4.91,4.66-5.68.58-.53,1.33-.7,1.84-1.16,2.56-2.31,4.94-6.14,5.49-9.5-1.76-.29-7.34,2.32-8.16.17l.22-.96c1.2-.15,2.73-.55,3.85-.97,2.39-.9,3.72-1.9,5.66-3.01.79-.45,2.21-.36,3.1-.73l-.66-.66c1.54.47,1.3-1.15,2.67-1.01l-.33-1.33,1.02.19,1.31-2.36c-1.34-1.79-3.99-1.01-3.67-3.83-.15-.19-3.29,3.55-3.83,1.33l-.83,1-.15-2.02c-1.64-.28-5.6-4.84-1.52-3.81,1.56,2.61,3.91,4.08,7,2.83v1.33c3.24.5,6.42.61,9.67.34l-.26.59,2.44,1.83c.25,1.49,1.96,3.04,3.32,1.58.8.5.26,1.21.39,1.94.51,2.94,2.39,7.53,3.71,10.29s2.38-.7,3.76-1.48c0-1.36,0-2.96.08-4.32.1-1.62.56-.67,1.27-1.2,1.17-.88,2.42-2.35,3.54-3.25.92-.74,2.19-.27,2.12-2.29,1.73-.04,3.07.18,4.63-.7,0,.51.11,1.02.38,1.46,1.06,1.72,3.08,2.64,1.96,4.87,1.7.93,1.67-.63,3.33-.66.56.88-.02,3.11,1,3.01-1.5,1.45-.49,1.75-.43,2.55.08,1.09-.14,2.56.11,3.78l.5-.66c1.41.84-.2,1.84,1.43,1.72.35.3.45,3.62,1.74,3.62l-1.26.24c-1.42-2.01-3.11-2.9-5.41-3.58-.29,1.41,1.31,1.76,1.9,2.43,1.88,2.13,3.09,5.33,5.08,7.42.82.86,2.5,2.3,3.68,2.15l-.67.99c4.83.71,9.73,2.56,14.66,1.67l-1,1,1.5.67c1.17.03.04-.85-.17-1.33l5-.67c-.47.91-2.03,1.09-2,2.33l4.33-2c-1.06-1.31-4.09-.32-5.52-.32-1.85,0-3.77-.31-5.62-.34l-.52.66c.22-1.03-1.11-.46-1.53-.99l.2-1.01c-1.21.22-2.34-.24-3.46-.3-.45-.03-1.02.38-1.68.3-1.01-.12-2.23-1.66-3.53-1l.34-2.66c.43-.38,2.4,1.02,2.33-.16-1.04-.79-1.88.08-2.5-1.51-.57-.13-.75,1.01-1.32.33-1.12-1.34.06-.89.32-1.3.04-.07.12-1.56.09-1.64-.04-.1-1.41-.51-.58-1.72l-.97-.02c.91-3.36-2.01-3.19-2.86-4.32-.42-.56-.47-2.24-.51-2.99l-.33,1-.62-.49,1.46-3.84.19.97c1.7-.41,1.8,1.57,2.81,2.39.4.33,1.24-.4,1.17,1.63l4.18-2.65c.83-.82.52-3.11.12-4.08-.37-.89-3.52-2.62-3.18-3.94s1.92-1.27,2.42-2.35c1.3.01,1.48.57,1.79,1.68-4.69,1.68,2.66,3.11.35-.83l.32-.33c3.59-.83,5.37-1.57,8.16-3.85.35-.28.96-.24,1.11-.37.06-.05-.44-.99.73-.95l-.66-.66c.4-.07,1.51-.93,1.66-1.16.6-.87.32-2.2,1.33-2.19-.12-.97-1.21-.22-1.33-.33.87-1.45-1.17-2.4-1.43-3.93l-.91-.07c-.64-.62,2.79-2.36,3.33-2.5l-1.67-.49c0-.33-.02-.67,0-1-.8.44-1.15,1.38-2,1.33l.03-.84-1.37-.16v-1c1.27,1.2,3.02-1.81,3.83-1.67.88.74-.41.96-.49,2.33.66-.36,1.61-.6,2.34-.34l-.34-.66h2.34s-.99,1.5-.99,1.5l1.99.5c.13.61-.56.21-.66.33-.08.09,1.63,2.64,0,1.66v1.67c.57-.35,1.24.1,1.76,0,.25-.05.24-.52.49-.65.7-.35,1.57-.03,1.64-1.22.09-1.8-1.38-2.63-1.89-4.13,2.2-.06,1.74-1.8,3.56-2.64,1.14-.53,1.79.25,3.34-.63.84-.47,5.15-4.45,5.66-5.17.68-.96-.03-2.82,1.27-3.56.95-.01.24,5.15.17,5.99,1.15-.1.39-1.12,2-.33.26-.92-.55-.51-.78-1.07-.31-.75-.07-1.2.12-1.92,2.56,1,.54-1.32.19-2.63-.19-.71.55-2.2-.85-2.7l-1,2c.11-1.8-2.49-2.19-3.67-1l.66-1.66-2.66.66c-.18-.89.22-.58.65-.83,1.3-.75,5.3-3.51,6.26-3.75,1.78-.45,4.4.21,6.26.09.32-.02.68-.58,1.31-.53.2.02.16.56.34.61.41.12,5.18.05,5.18-.43l-1.34-.33c1.3-.93,3.18-2.35,4.86-2.06.47.08.57,1.34,1.3,1.24.44-.61,2.43-.75,2.53-.84.53-.48-.14-1.53,1.31-1.17-.23.54-.52,1.13-1,1.49-.79.6-3.55,2.07-4.66,2.7-.92.53-2.26.29-2.99,1.73s.36,4.36,1.15,5.73c1.46-.4,1.63-2.64,3.17-1.99-.35-1.83.66-1.37,2.01-1.68l-.16-1,.48-.49,1.01.16v-2s-1.33,0-1.33,0c.09-.65.97-.72,1.25-1.11.18-.26.03-.81.1-.87.22-.2,1.13.22,1.5.17.55-.07.93-1.25,1.32.15.54-.58,1.57-1.05,2.35-1.03.74.03,1.13.64,1.59.63.96-.04,4.92-2.27,6.89-2.47,2.33-.23,3.57,1.16,1.34-2.13l1.67-.34v81c-1.52-.14-1.64,1.01-2.01,1.33-.71.63-.78-1.55-1-.17l.5,1.5,1.5-1.17-.66-.49h1.66s0,67.33,0,67.33l-10.82-1.03-8.18-1.98.33-.99h-1.66s1.66-.34,1.66-.34l-.66-.99c.38-.31,5.29-.21,6.15-.35.39-.07.79-.2.85-.65l-1-.33h2.66s-2.82-.65-2.82-.65l-.68,1.3c-1.98-1.25-3.35-.83-3.17-3.66h2.67s-.34-.66-.34-.66c1.05.02,2.08-.69,2.93-.92.41-.11.85.22,1.4.08.67-.17.94-1.16,1.67-1.17l-.65-.8-8.68-1.19-.16.66c-2.09-2.47-5.25-.99-7.68-2.66-.2-.04.02.62-.64.7-.5.06-5.47-.27-5.96-.37-.24-.05-1.24-1.78-2.9-.66l.34-.66c-.42-.04-.78-.25-1.21-.29-2.5-.27-11.53-1.16-13.48-.56-.61.19-.9.86-1.81.88-.98.01-1.77-.91-2.34-.9-2.53.02-7.28,1.46-9.93.87-.24-.05-.22-.53-.51-.62-1.6-.5-2.66-1.06-4.43-.56-.62.17-.62.72-.71.76-1.18.52-5.68-.89-7.26-.91l-.16-.67-.38.69-2.46-.35c.57,2.05-2.43.72-3.5.73-4.08.06-7.16.8-11.35.27-.14-.02-.12.54-.4.63-1.86.58-4.65.49-6.16,1.04-.65.24-1.62,1.29-3.17,1.58-1.1.21-2.65-.5-3.24.69l-.84-.29c.35,2.89-3.11,1.22-3.67,3l-.66-.16c.19-1.18,1.55-1.23,1.68-1.38.4-.46,1.63-3.22,1-3.64s-8.58-.33-10.14-.53c-3.16-.4-4.96-2.77-8.98-1.23l-.22.93-1.8-.35c-.45,1.35-1.19.35-2.06.39-.33.02-5.92,1.39-6.35,1.57-.73.3-1.59,2.26-1.94.76-1.35.76-2.41-.08-3.12-.33-1.01-.36-1.64-.71-2.74-.37l.33,1.33c-2.2-.46-4.51.9-6.56.88-1.24-.01-3.24-.71-4.33-.82-.41-.04-1.84,1.1-2.78.61l.34-.66c-.72-.17-1.52.4-2.16.33-1.6-.18-.8-.48-3.13-.18-2.98.39-5.36-.19-8.38-.02-1.26.07-3.21.51-4.26.83-1.68.52-2.4.3-4.07.37l.66-.66-.83-.68c-.72.01-.77.46-.51.99l-2.48.36-.34-.99-1.84.33.34.66-2.82-.69-.39.71-1.46-.36,1,.67c-.31,1.06-.98.33-1.46.34-.25,0-3.55,1.67-4.11,2-3.64,2.09-7.38,1.48-11.49,2.09-1.64.24-6.94,1.13-7.95,2.08-.26.25,0,.6-.1.76s-.69-.15-.55.39c1.69.23,4.22-.7,5.33,1l-8.94.57c-1.39.14-3.24,1.5-4.57,1.45-.72-.02-1.16-.59-1.97-.71-1.55-.22-5.34.13-7.01.35s-4.99,1.49-6.35,1.37c-.6-.06-.43-.61-.7-.68-.24-.06-.99.27-1.45-.03v-.33s2.33-.33,2.33-.33h-3s1.33-.67,1.33-.67c-2.51.14-4.96-.22-7.44-.46-.45-.04-.84-.49-1.37-.51-1.57-.06-5.2,1.24-5.48-1.22l-2.36-.49,1.34-.17-.67-.5,2.19-.03.8.69c-.16-1.3,1.66-.15,2.34-1.17-.86-.33-1.87-.1-2.79-.21-.35-.04-1.56-.13-1.54-.62,2.34-.12,4.81.17,7.13-.04s4.72-1.01,6.87-1.75c.56-.19,1.35.12,2.02-.39.28-.21.05-.66.19-.84.19-.26,2.07-.95.13-.82-.22-1.29-.41-2.42-1.67-3l.66-.33c-.31-.66-1.1-.17-1.35-.35-.47-.33-.04-1.38-1.65-.48l-.11-1.25c.32-.14,1.24-1.05,1.33-1.06.66-.1,2.33.55,2.79-.69l-1-.67,2.79-.36c.44-1.21.68-.07,1.71.03l.19-.98,1.98-.36c.09-.49-1.23-.5-1.5-.49-1.12.05-2.56.78-2.7.8-1.34.22-3.18.29-4.57.4l-1.08,1.59-1.47-.29.33,1c-1.31.4-2.45-.18-3.33,1.17l2,.17v1.66s-1.16-.33-1.16-.33l-.17,1-.7-.21c-.47-1.68-2.95-1.53-3.63-.12.29-.2,2.04.56,1.34,1.18l-4,.5c-.32,1.38,2.44.51,2.67.67l-.34.66h2c.07.47-1.33.65-1.54.65-1.2-.03-2.37-1.41-3.45-.14l.49.5c-1.96-.18-3.88-1.17-5.83-.67l.34.66c-.25.17-5.09-.44-5.93-.56-.57-.08-1.12-.62-1.64-.7-.73-.11-2.12.34-3.09-.07l.17.67c-.88-.08-2.47-.07-3.25-.36-.39-.15-.22-.78-1.44-.95-1.81-.25-3.96.12-5.81-.03-1.16.88,3.13.69,3.33.67-.48,1.37-4.14-.05-4.67.33.39,1.5,1.25,1.07,1.89,1.44.13.07.16.42.37.53.45.23,1.4.1,1.4.69l-10.66-.33.67-.33c-1.04-1.75-2.08-.04-2.22,0-1.24.34-1.03-.55-1.53-.77-1.26-.55-1.62.67-2.92.44l.66-.66c-1.1-.48-1.36.59-1.55.64-.27.07-3.1.32-3.62.35-2.19.13-5.12.35-6.99-.66l.17.67c-1.32.63-3.47-.69-4.16-.68-.19,0-.02.67-.66.72-.85.07-1.61-.38-2.35-.38-1.35,0-4.53,1.02-6.11,1.16l-5.05-.15v1s-3.34-.33-3.34-.33l.34.66c-.97-.33-1.88.48-2.57.56-1.25.14-6.18-.91-6.76.28-.33.68,2.6.96,2.91,1.42l6.09.75-1.33.66,2.66.67h-15.66c.08.63,1.38.69,1.83.69,2.85.03,6.38-1.52,8.5.97l-9.33.67,1.33-.66h-2.33s.49.67.49.67l-10.83-.67,5.17.99c1.7.19,4-.62,5.16,1l-16-.33V25l1-1.33.55.98c2.04-.99,5.92,3.11,6.48-.31.85.29,1.61.04,2.31-.51L0,21ZM87,12c-1.82-.1-3.66-1.42-5.66-1-.12,1.07,1.74,1.4,2.33,1l-.49.88-.84-.21.33,1c-2.24-1.67-4.39.26-6.67-.34l.34-.66-2.67-.67,2,1-.34,1c1.01.34,2.21.18,3.15.36.57.11.93.57,1.67.67,1.12.14,2.36-.45,2.97-.37.22.03.18.61.44.68.85.21,2.17-.13,3.11,0l-1-1.01c.34-.98,1.23-.62,1.94-.28l.27,1.3c1.68-.33,3.38.35,4.95.35,1.7,0,3.57-.11,5.28-.16,2.54-.07,2.14-1.6,4.21-2.23l-.32-.97,3.95-1.05.25-.91c2.01.55,3.95-1.17,5.64-1.08.61.03.44.63.71.7.71.17,1.68-.09,2.44.01-.53,1.14-2.15.53-3.16.67s-4.21.53-4.84.82c-.15.07-.42.44-.33.5l1.67.17-1.33.5c1.52-.07,3.08,1.16,4.52,1.31,4.33.45,8.61-1.56,11.83,2.53.16.2.58,1.72.77,1.85.61.41,1.2.34,1.88.32l-1.33.83,1.99,1.67c-.75.44-.77,1.86-.47,2.54.38.87.87.81,1.27,1.33.82,1.05,2.66,3.51,3.95,4.05.84.35,1.58.13,2.34.33.8.21,1.5.86,2.37.82,1.11-.04,1.62-2.21,2.21-3.09.2-.29.74-.36.9-.58.75-1.03-.11-1.77,2.28-2.22,3.35-.63,4.09-1.64,6.11-2.21,1.51-.42,10.83-1.26,10.95-2.97l-.92-2.5,1.79.02.24-.98,1.31-.05-1-2.33,1.67.66v-1.33s-1.33,0-1.33,0l.97-.82-.64-1.51c1.05.29,1.7-.43,2.53-.64,1.39-.36,3.51-.23,4.47-1.36-2.33-.69-4.89.7-7.16-.67l.17.67-2,.33.03-.97c.32-.23,1.24.39.97-.7-2.17.43-4.15-.55-6.15-.68-8.34-.54-17.23.37-25.51,1.01l.16.67c-3.14-.66-6.65-.4-9.83,0l.66-.66c-6.62-.65-13.17-.74-19.8-.3-2.82.19-8.45.37-10.98.97-.26.06-.21.66-.43.68-.53.06-1.09-.37-2.13-.22-.5.07-2.66.91-2.66,1.36.92.98,2.34.76,3.53,1.45.29.17.69-.02.47.71.08,0,.41-.29.81-.28,1.5.06,3.2.49,4.52-.39.24,1.1-1.08.3-.33,1.33-2.45.46-4.87.68-7.33.33.42-.83,1.94.25,2.33-1ZM239.33,8c-1.87-.13-3.5,1.15-5.33.33l-.02.97-1.98.36c1.22.74,2.52-.26,3.52-.29.15,0,.11.57.36.63,1.69.39,4.63-.38,6.32-.63,1.04-.15,2.86.34,3.47-.7-1.1-.26-2.18.3-3.16.33-1.07.04-2.21-.91-3.34.32l-.5-.66.67-.67ZM231.66,9c-.22-.28-4.49-.09-5.17,0-.46.06-.99.21-.49.66.61.25,6.84.83,5.67-.66ZM277.98,9.03c-1.44-.25-2.58-.47-4.06-.27-.35.05-3.74.9-2.92,1.58.78-.38,1.11.69,1.19.69.46,0,.88-.54,1.31-.56s1.1.45,1.7.51c1.81.18,4.64,1.16,5.13-.97l-2.17-.07-.18-.91ZM200.67,10.67h4.83c.2,0,1.8-.52,1.83-1h-5.81c-1.11-1.48-5.17,1.09-7.01.18l-3.85.16.31.98-.64.35c.77.44,1.86.02,2.52.29s.71.87,1.07,1.04c.26.13,2.44.93,2.58.92.18-.01,2.43-1.87,2.7-2.26l1.49.52-.03.83c1.54-.65,2.11.68,3.66-.34l-3.66-1.66ZM81,11.67c-2.07-1.13-4.4-1.06-6.66-1.34l.39,1.28,3.27.06-.66.66c1.05-.37,3.08.41,3.66-.66ZM285.33,11c-1.13.02-2.3-.8-3.42-.61-.58.1-2.18,1.05-2.58,1.61l1.86.3c.32-.99,2.42-.45,3.64-.64.44-.07,1.06-.14.5-.65ZM70.67,11.34h-4s1,.5,1,.5l-1,.33c1.23,1.03,3.33.71,4-.83ZM64.66,12.34c-2.23-.2-4.44.24-6.54.95-.44.15-1.02.1-1.12.71h5.67s.2.95.2.95c1.55-.43,2.88.74,4.29.75,1.06,0,2.03-.54,3.04-.66,1.56-.19,3.44.53,4.46-.87-.54-.75-1.69-.15-2.12-.25-.76-.17-1.38-1.58-3.21-.58l1,.49c-1.23,1.29-2.73-.69-4.33-.17l.66-.66-2.66.33.66-1ZM249,13c-4.32.29-8.69.57-12.88,1.61l-2.44,1.41.32.64-1.26.23c-.12.69-1.69.7-1.4,1.26.16.31,1.82,1,2.24,1.09.38.08,4.94.57,4.09-.25-.83.1-2.53-.64-1.96-1.63.15-.26,4.64-2.35,5.3-2.53,2.12-.59,4.35-.47,6.41-.93.56-.13,1.4-.27,1.59-.91ZM318.26,13.73c-.35.05-1.58.48-1.59.77,1.28,1.33,2.79.58,4.19.53,1.26-.04,2.99.52,4.13-.53.01-.85-4.22-.57-4.82-.57s-1.08-.31-1.91-.2ZM331,14.67c-1.52.22-2.99-.54-4.5-.34-.6.08-.55-.11-.5.67,1.2-.16,2.31.37,3.49.35.34,0,1.52-.14,1.51-.68ZM69.28,17.25c-2.25.11-4.51-1.23-6.47-1.56-.92-.15-7.5-.61-7.81-.36.85,1.37-.4,1.63-1,2.66,1.98.3,3.34,1.25,5.43.67.33-.09.92-1.66,1.91-1.33l-.67.99.98.03v.82s1.35.16,1.35.16l-.33.82,3.33.84c-2.78.48-5.26-.67-7.85-1.01-.38-.05-2.83-.32-2.98-.32-.47,0-.86.67-1.34.68-.67.02-.99-1.04-1.65-1.02-.43.01-.76.54-1.07.59-.55.1-1.08-.46-1.61-.45-1.18.02-5.44,1.48-6.66,1.5s-6-.9-7.95-1.09c-5.43-.53-12.68-2.09-17.81.02-.42.17-.42.73-.81.88-1.03.39-2.71-.08-3.26.89.88.13,1.92.37,2.73.7.22.09.24.47.53.6.46.22,1.65,0,1.73.7-2.27-.42-4.17-.35-6.33.5,2.26,2.06,4.71.93,7.33,1.51.09.89,0,.53-.5.66-1.93.47-4.12-.09-4.81,2.31,1.44.81,1.81,2.22,3.78,1.37l.47.53-.28.79,2.18-.18,2.48.67c-1.78,1.91-4.37,2.05-6.6,3.08-.47.22-.91-.2-.73.75.97-.61,1.81,0,2.47,0,.2,0,.19-.54.45-.66.68-.3,1.76-.38,2.24.31l.5-.66-.67-.33c.54.01,1.07-.02,1.57-.26.57-.27,4.66-2.53,4.86-2.72.42-.41.37-1.34,1.07-1.68l.5,1.33c.24.25,2.1-.83,2.59-.94,3.22-.74,9.52-.15,12.46,1.65.63.39,1.26,1.63,1.62,1.81.38.2.93-.21.98-.18.06.04.14.75.36,1.07.93,1.36,1.55.78,2.99.58-.18,2.12,2.25,2.14,3,3.84l-1,.49c2.07,1.04,4.69,1.84,4.89,4.55.07.97-.51,2.28-.55,3.29-.14,3.45,1.96,5.07,3.68,7.67.24.37.29,1.06.36,1.12.23.2,1.22-.04,1.73.06.23.04.25.48.31.52.26.12.55-.13.91.27,1.26,1.39,1.32,3.69,3.33,4.71l-1.33.33c.37.96,3.18,1.72,3.28,1.88.73,1.19-.7.94,1.8,2.63.22.15.31.62.41.66,2.29.75-.39-1.76-.47-1.88-.74-1.13-1.09-1.89-2.12-3.22-.36-.47-.35-1.22-.56-1.39-.9-.75-1.49-.16-1.68-2.17,1.8-.17,2.31,1.42,2.34,3l.6-.26c.2.67,2.41,1.87,2.67,2.3.07.11-.34.6-.13.94.43.72,2.83,1.78,3.81,3.57.67,1.23-.26,1.26-.15,1.79.25,1.24,8.05,4.74,9.34,4.64.67-.05,1.01-.66,1.86-.53,1.4.21,1.81,1.61,2.67,2.02,2.02.97,4.04.27,5.67,2.67.97,1.44.93,1.88,2.67,2.98.39.25,1.62,1.06,1.71,1.11.11.05,1.54-.15,1.93.09-.38-.89-.09-1.64,1-1.66l-.28.6c1.62.57,2.03,3.1,1.8,4.57-.07.44-.88.9-1.21,1.32-.86,1.12-1.19,1.12-1.58,1.57s-1.72,3.68-.24,3.57l.16.51c-.89.54-1.27,1.74-.85,2.69.29.65.92.63,1.2,1.06,1.54,2.43,3.24,7.47,5.34,8.9,1.01.68,3.16,1.29,3.88,2.29,1.5,2.11-.75,9.75-1.11,12.45-.3,2.28.43,4.84-2.13,6.64.94,1.93-.17,4.13-.66,6.14l1.17-.32.16.66c-1.87-.03-1.21.91-1.52,1.64-.26.59-.94.99-.81,1.7l1,.17c-2.51,1.6-.61,5.82,1.59,7.08,2.59,1.48,5.85,2.67,8.08.09-2,.7-4.37-2.07-4.03-3.8.08-.4.87-.28,1.14-.5.32-.26.22-.85.55-1.19.51-.52,2.4-.64,1.45-1.85l-1.77-.83c.23-1.19,1.47-.78,2-1.32.44-.45.18-1.13.39-1.44.17-.25,1.35-.36,1.59-.91l-1.33-.5v-1s2.46-.05,2.46-.05c.78-.26.52-1.3.55-1.95,2.18-.03,5.06-.21,5.35-2.79-.84-.23-.41-.79-.65-1.05-.36-.4-1.06-.3-1.04-.82,2.82.78,3.6,1.06,5.66-1.18,1.16-1.27,1.87-2.49,2.86-3.82.33-.45.97-.58,1.18-.91.92-1.46-1.21-2.4,1.8-4.11,1.64-.93,3.02-.92,4.6-1.34,1.76-.46,4.07-7.78,3.24-9.75,1.55-1.38,2.97-3.16,4.13-4.96.37-.68-.01-2.54-.41-3.08-.27-.36-1.17-.15-1.69-.38-.96-.43-1.81-1.74-2.67-2.01-.74-.23-4.3-.31-4.62-.57-.24-.19-.2-.78-.96-1.18-1.03-.54-3.15-.57-4.09-1.24s-1.45-3.53-2.11-4.4c-1.44-1.89-4.11-1-5.76-1.73-.96-.42-1.18-1.4-1.81-1.86-.51-.37-1.35-.36-1.58-.6-.44-.45-.76-1.57-.42-2.23l-3.67-.33-.19.99c-.95-.3-2.44-.12-3.24-.32-.15-.04-1.87-1.77-2.24-2l-.04,1.29c-.7.11-1.38.61-1.63-.29l.49-1.01c-.74.12-1.21.86-1.85,1.16-.18.09-.8.29-1.13.43-.18.08-.72-.21-1.09.15-.43.42-.52,1.85-1.27,2.26-.39.09-1.18-.91-2.01-1-1.07-.11-2.01.77-2.79.5-2.79-.97-2.01-3.97-1.38-6.13l-2.98-.7.34-.66h-1s.34.66.34.66h-2.34s1.33-1.33,1.33-1.33l-.65-.47c.26-1.51,1.24-2.45,1.32-3.86l-3.79.29c-.9,4.51-6.45,3.5-7.12-.88-.3-1.99.25-2.21.48-3.62.16-.97-.85-1.23.59-2.46,2.73-2.33,4.44-.83,7.5-.67l-.33-1.33c2.08-.53,3.66.95,5.45.31,1.12,1.43.88,3.35,2.55,4.53l-.66.83c4.37-.21.08-4.59.73-6.76.13-.45,2.12-2.03,2.62-2.38,1-.69,2.33-.63,2.7-1.8l.6.27-1-1.99c1.23.08,1.98-2.91,2.4-3.27.33-.27,3.3-.87,3.93-.74v-1s-.99-.17-.99-.17c0-1.26,4.54-2.38,5.66-2.83.06.56-.74.29-.96.87-.16.4-.24,1.36.47,1.14l6.16-2.84c-.65-.26-.76-.41-.67-1.17l-1.5,1.33-.16-.66c-.58-.04-1.2.1-1.78-.01-.23-.04-.24-.48-.32-.52-.22-.1-.5.08-.57.03-.78-.47.59-.99.66-1.35-.29-1.48-2.23-.69-3.26-.59-.37.04-1.13.39-1.07-.24.92.12,1.5-.77,2.23-.94,2.15-.5,4.42.47,6.78-.22.63-.18,1.11-1.06,1.99-.84,0,.9-2.55,3.11-2,3.66.85.12,1.99-.18,2.77,0,.97.24.13.27,2.04.32.21,0,.16.54.35.6,2.16.68,1.59-2.49.16-3.1-.78-.33-1.65.61-2.32-.65l.99-1-.64-.3c.97-2.23,0-1.57-.79-2.17-1.4-1.09-2.89-1.28-3.7-2.06-.55-.52-.54-1.13-.87-1.48-1.1-1.14-2.59-2.07-3.5-3.49-1.09,1.98-2.77,3.4-4.69,1.32l.19-1.66c-2.01.42-3.02-.96-4.84-1.66l-.16.66-4-.33.34,1.66-1,.33,1.32.5-1.32,1.33c.7.93,1.98.52,2.22,2,0,1.12-2.24,1.99-3.22,1.84,1.35,2.71.76,4.97-2,2.16l1.33-.5-1.29-.04-.39-1.94c-2.38.4-4.24-.89-6.31-1.52-1.14-.35-2.7-.29-3.45-.55-.99-.34-.39-2.3-2.56-1.61-.49-2.34,2.07-2.91,3.64-3.88,1.69-1.05,1.57-.65,3.03-1.29.77-.34.88-1.38,1.01-1.49.76-.66.77.78.34,1.44-.19.3-.8.04-.67.55,1.4-.57,1.73.69,1.84.69.59.02,1.41-.87,2.06-.95,1-.13,2.26.81,3.43.26l-3.99-1.99,2.66-1.34c-.72-1.27-.34-1.35.03-2.65l2.64-.18-.66,1.5c.93.24.82-.75,1-1.33l2.33,1-1.33.33c-.59,1.44,2.11,1.45,2.49.38l2.18.45-1.99,1.33.66.49-4.28.39-.05,1.28c3.12-1.44,4.78.45,7.25,1.25,1.98.64,4.46.54,6.41,1.42l-2-1.66,2.33.66-.66-.5,1-1c-.33-.87-3.49-1.54-3.33-2,.27-.78.73-.25,1.1-.11.82.31,1.74,1.15,2.67.95.39-1,2.21-.54,2.22-2l-6-1.67.16-.6.5-.23c-2.62-2.05-6.33-2.06-9.41-3.2-.35-.13-.26-.72-1.15-.9-2.6-.51-4.52-.11-6.94-.07-2.19.03-4.45-1.24-6.07,1.49.4,2.17,2.72,2.11,4.57,2.17.39,1.75-.95,1.26-1.53,2.34l-1.14-.51c-.13-.24,1.27-.01.33-.66-.83-.57-1.88-.5-2.75-.91-1.04-.5-2.19-1.81-3.24-2.42l3.66-1.83c-.98-.29-5.23-.6-5.62.04l-.05,1.08.67.71c-1.13.75-1.79,1.06-1,2.5-1.42-.5-2.01-.02-3.33.34l.67.49-.56.85c-2.04.18-3.83-.16-5.77-.68l3.45-.11c.58-.08,1.32-1.2.67-1.56l-3.05-.75-.74-1.12.68-1.46c-1.68-.95-2.51.59-4,0l.33,1.33-2.53-.98-.2.57ZM82.67,15.34c-.42.24-1.22-.04-1.45.03-.25.08-.2.57-.45.63-1.16.26-2.87-.1-3.77,1.34,2.39,0,3.67,2.16,6.09.93,1.2-.61.2-1.95-.68-2.32l.26-.6ZM158.56,23.79c-1.28-.77-2.33-.39-3.23.71l1.33.17-1,.66h2s-.66,1-.66,1c1.49-.46,3,.46,4.45.31,1.57-.16,3.23-1.19,4.88-1.32.4-.47-.97-1.88-1.22-1.96-.47-.16-5.68.33-6.28.97-.27.12-.08-.42-.27-.54ZM28,31.34l-3,1.16c.84,1.5,3.03.35,3-1.16ZM326,45.67c-.7-.48-1.24.29-1.92.12-.98-.24-1.53-1.32-2.57-1.46l-.51.5.69.35-.36,1.49c-1.1-.66-1.31.37-2,1.17.84-.11.64,1.96.48,2.53-.26.94-1.47,2.11-2.32,2.63l-.16-.66h-.66c-.7,2.79-2.18,1.47-4.1,2.07-.67.21-1.67,1.31-2.16,1.6-.42.25-1.71.19-2.09,1.32l1.33-.33.67,1.84-.66.33,1.33.5c.03-.67.4-1.91.84-2.35.3-.3,2.9-.22,2.83-1.65l.83,1h.49c.38-1.88,2.9-1.22,4.22-1.79,1.04-.45.4-1.98.81-2.95.17-.4.96-.4.97-1.46,0-.78-1.95-3.54.02-2.99.33.09.67.54,1.14.54.2,0,.14-.61.58-.79.73-.31,1.81-.25,2.59-.56l-.61-.37.28-.63ZM104.33,65.33l-2-.66c.58,1.01.93.94,2,.66ZM302,64.67c-1.77-.29-2.78,2.67-1.16,3.33.91-.84.94-2.11,1.16-3.33ZM105.67,69.34c-3.3-1-7.8-4.98-10.66-1.17.66.42.9-.55,1.79-.5,1,.05,2.77.8,3.99.66l.24.97,1.64.05-.34.66c.26-.05,4.3.35,3.33-.66ZM111.67,71c-1.75-.83-3.37-1.43-5.33-1-.16.5,1.3.19.5,1-.55.56-1.48-.01-1.5.66.64.43,2.06-.09,2.45.01.26.07.17.67.38.67.48,0,.81-.6,1.35-.69.95-.15,2.15.84,2.15-.65ZM302.33,71.33h-2c.39,1.02-.61,1.89-.67,2.52-.01.14.3,2.1.36,2.6.05.44,2.52,2.12,1.65,3.21h.84c-.35.67.47,1.42.47,1.51,0,.15-2.01,1.34-1.32,2.49-2-.89-.97.53-2.33,1.33-.29-1.3-1.88-.95-2.17-2.64-.13-.76,1.91-2.74,2.83-2.7-1.01-.61,1.6-2.14-.33-2.33.12,1.93-2.82,3.4-2.96,4.83-.03.28.37.77.29.84-.09.07-.67-.13-.91.07-.21.18-.38,1.44-.83,1.82-.05.05-.8-.02-1.34.43-.9.75-1.08,1.98-2.91,1.69l-.02,1.32c-3.31-1.71-1.62,1.6-2.33,3.33l1.33-.33.02,1.64c.86.09,1.53-.34,1.79.65l2.34-.32.18,1.02c.71-.39,1.18-.82,2-.33.17-.55.02-1.95.21-2.34s.71-.6.92-.99c.18-.34-.04-.89.37-1.35.28-.32.92.06,1.17-.49l-.99-.5.66-.49c-1.59-.74-1.18-1.91.33-2.34l-.66-.5c1.53.66,4.27-.88,4-2.68h1.66c-.66,1.49.33,1.88,1.67,2l-.33-1.33,1,.66c.42-.56.09-2.73-.07-3.5-.03-.16-.48-.1-.56-.37-.31-1.06.57-2.81-1.7-2.46l.33-1.66c-1.22.72-1.79-.88-3-1.01,1.41-1.33.96-1.74,1-3.33ZM259.84,80c-.61.39-.37.53-.36.99.04,1.28-.04,3.52,1.64,2.97,1.86-.62-.4-4.14-1.28-3.96ZM308.66,87.34c-.89-.8-1.92,2.66-1.65,3.29l.88.31.77-.44-.67-.66,1-.17-.64-.35.31-.79-.67-.2c-.19-.44,1.39-.34.66-.99ZM305.33,88c-.86-.09-.99.89-1.85,1.01-.92.12-2.08-.63-2.66-.55-1.09.16-2.12,3.73-2.16,4.71-.03.84.24.31.67.16l-.33,2.33h1.33s0-2.99,0-2.99c.7.46.9,2.25,1.56,2.69.59.4,1.15.08,1.77-.03l-2-3.66c.5-.6,3.98,1.37,4.66,0h-2.65c.04-1.2-1.07-1.78-2.16-1.69-.34.03-.14,1.37-.84,1.35-.39-.8-1.53-1.83.25-1.78,1.88.05,4.07.95,4.41-1.55ZM311.33,90.33c.31-.37-1.1-.6-1.33-.66-.4,1.39,1.5,1.76,1.85,2.34.2.33-.18.78-.1.93.04.07,1.09,1.05,1.16,1.09.51.29,1.17-.06,1.75.12,2,.6,3.63.87,3.99,3.16l-1.32,1.03c.86.11,1.95-.16,2.76.01.24.05.96,1.63,1.9.99l-1.03,7.13-.79,1.17-.84-.31.67-.99c-.6-.12-1.2.42-1.77.28-.2-.05-2.9-1.99-2.56-2.28h1.33c.11-.87,0-.86-.67-1.16l.6-1.01-.8-.8c-1.99,1.66-2.77-.91-4.45-.36l.67.99h-1.33s.33-.99.33-.99h-1.33s.66,1.16.66,1.16c-1.17.81-.81,3.03-2.43,2.44-.95-.35-1.09-1.54-2.9-.76-1.06.46-1.13,1.82-1.32,1.97-.13.1-.57-.04-.86.18-1.35,1.01-1.19,2.77-2.07,3.36-1.01.68-4.29.78-5.5,1.33-.08.04-1.2,1.17-1.32,1.22-.23.09-.56-.25-.6-.23-.31.22-.15,2.99-.17,3.51-.01.28-.5.58-.44.93.04.29.6.77.78,1.23.71,1.84,2.35,4.94.86,6.5.65.71,2.23,1.5,3.16,1.36.28-.04,1.54-1.08,2.34-1.18,1-.12,2.21.37,3.24-.09.46-.2.47-.74.83-.92,1.51-.73,5.19-1.43,6.86-1.3,1.14.09,1.6.56,2.53.85l1.85,2.44c.68.18,1.26-1.94,1.83-1.33s-.67,1.13-.67,1.2l.3.78-.63.35,2.44-.28c.89.21.77,1.84,1.98,2.37.27.12,2.6.81,2.74.79.31-.03.56-.58,1.26-.5.58.07,1.8,1.23,2.25.95-.53-1.56,1.78-1.76,2.99-1.68.25-3.82,3.33-5.22,3.6-9.17.08-1.18-.97-2.37-.26-3.81l-.96.32c-.17-.93-1.02-1.32-1.51-2.01-.56-.78-1.42-2.45-2.2-3.14-.39-.34-1.22-.23-1.81-.85-1.27-1.34-1.15-5.61-3.18-4.65.3-1.37-1.02-2.87-.99-4.15,0-.42,1.34-2.49,1.8-2.51,1.7-.07,1.81,1.59,3.11,2.25.53.27,3.49,1,3.76.74l-.36-1.66c-1.93.75-2.1-.22-3.14-1.36-.35-.38-1.09-.08-.83-.98l.96-.03.2-.96c1.05.77,2.57.84,3.6,0,1.61-1.31-.38-3.05-.79-.36h-5.3s.34-.98.34-.98c-1.04.34-1.04-.66-1.32-.83-.48-.29-3.93-1.05-5.01-1.34-1.19-.32-1.67-1.23-3.33-.51l.28-.61-1.12-.72.14.98-.64.35c2.14-.42.33,1.91,0,1.67-.6-2.73-1.56-3.5-4.34-2.67-.13-.61.56-.21.67-.33ZM311.33,94c-.63-1.49-2.76-1.9-3.99-.83.68.97,1.51.04,2.42.21.56.11.93.75,1.58.62ZM229.86,106.87c.7-2.16.5-3.18-.56-5.19-1.22.32-1.28,2.18-2.28,3.17-1.3,1.29-2.94.31-3.19,2.85-.09.93.48,1.6.43,2.07-.07.73-1.19,1.41-1.23,2.37-.05,1.4.72,3.51,2.41,3.41,2.63-.15,3.26-6.22,3.91-8.31.09-.28.47-.31.5-.39ZM354.68,126.33c.44-1.29-2.03-2.36-1.68-1.17l1.62,2.42-.96,2.09c3.24.48-.43,2.18-.7.71l-.47-.04c-1.27,3.19-4.72,2.82-6.18,5.5l.5.77,1.18-.26-1,.99c.96-.22,2.7-.73,3.41-1.32.9-.74.78-2.42,2.59-2.01l-.31-.97c1.71-.15,1.2-1.63,1.31-1.69.3-.16,1.08.41,1.66.18.68-.28,1.43-1.74,1.34-2.52l.99.34.67-2-2.29.31-.71-1.51-.99.2ZM328,133.34c.13-1.28.9-2.91-.16-4l.17,1.33-3.66.17c.77,1.23.92,3.04,2.78,2.85l.38-.6.49.25ZM122.33,141.34l-3.1-.36c-1.7,1.78,2.49,1.69,3.1.36ZM136.23,168.1c-.72-.52-4.74-.63-5.66-.43-.08.02-1.21,1.08-1.27,1.15-.28.36.05.8.02.82-.57.38-3.23.09-3.99.85.74.76,2.19.55,3.18.51,2.01-.08,5.72-.28,7.56-.78.29-.08.85-.11.94-.41.06-.4-.48-1.49-.78-1.71ZM113.33,168c-1.46.37-3.28.42-4.68.83-.59.18-.78.06-.65.83,1.07.48,2.56-.53,3.16-.54.76-.01,1.89,1.29,2.74,1.47.61.14,5.09.49,5.59.4,1.91-.37.95-2.12-.89-1.3-.29.13-.27.57-.5.63-1.04.24-2.64-.15-3.76,0l.03-.83-2.36-.51,1.33-.99ZM20.67,169.34l-5-.67c-.42.34.01.59.41.75.57.24,2.43.48,3.13.53s1.7.42,1.45-.62Z"/>
    <path d="M360,106v1h-1.66s.66.5.66.5l-1.5,1.17-.5-1.5c.22-1.39.28.79,1,.17.36-.32.49-1.47,2.01-1.33Z"/>
    <path d="M302.33,71.33c-.04,1.58.41,1.99-1,3.33,1.21.13,1.78,1.72,3,1.01l-.33,1.66c2.27-.35,1.39,1.4,1.7,2.46.08.27.53.21.56.37.16.77.49,2.95.07,3.5l-1-.66.33,1.33c-1.34-.13-2.32-.52-1.67-2h-1.66c.27,1.79-2.47,3.33-4,2.67l.66.5c-1.51.43-1.92,1.59-.33,2.34l-.66.49.99.5c-.25.54-.88.17-1.17.49-.41.46-.19,1.02-.37,1.35-.21.39-.74.61-.92.99s-.03,1.79-.21,2.34c-.81-.48-1.28-.06-2,.33l-.18-1.02-2.34.32c-.26-.99-.93-.56-1.79-.65l-.02-1.64-1.33.33c.71-1.73-.98-5.05,2.33-3.33l.02-1.32c1.83.29,2.02-.94,2.91-1.69.53-.45,1.28-.38,1.34-.43.45-.38.62-1.65.83-1.82.25-.2.83,0,.91-.07.08-.06-.32-.56-.29-.84.13-1.42,3.08-2.9,2.96-4.83,1.93.19-.68,1.72.33,2.33-.92-.04-2.96,1.93-2.83,2.7.28,1.69,1.88,1.33,2.17,2.64,1.36-.8.33-2.23,2.33-1.33-.7-1.15,1.32-2.34,1.32-2.49,0-.08-.82-.84-.47-1.51h-.84c.87-1.09-1.6-2.76-1.65-3.21-.06-.5-.37-2.46-.36-2.6.06-.63,1.07-1.5.67-2.52h2Z"/>
    <path d="M229.86,106.87c-.03.08-.41.11-.5.39-.65,2.09-1.28,8.16-3.91,8.31-1.7.1-2.46-2.01-2.41-3.41.03-.96,1.16-1.64,1.23-2.37.05-.47-.52-1.14-.43-2.07.25-2.54,1.89-1.56,3.19-2.85,1-.99,1.06-2.85,2.28-3.17,1.05,2.01,1.25,3.03.56,5.19Z"/>
    <path d="M326,45.67l-.28.63.61.37c-.79.31-1.87.25-2.59.56-.44.19-.38.79-.58.79-.47,0-.8-.45-1.14-.54-1.96-.55,0,2.22-.02,2.99-.01,1.06-.8,1.06-.97,1.46-.41.97.23,2.5-.81,2.95-1.33.57-3.85-.09-4.22,1.79h-.49s-.83-1-.83-1c.07,1.42-2.53,1.35-2.83,1.65-.44.44-.81,1.68-.84,2.35l-1.33-.5.66-.33-.67-1.84-1.33.33c.38-1.13,1.66-1.06,2.09-1.32.49-.29,1.48-1.39,2.16-1.6,1.92-.6,3.4.72,4.1-2.07h.66s.16.66.16.66c.84-.52,2.06-1.69,2.32-2.63.16-.57.36-2.64-.48-2.53.69-.8.9-1.83,2-1.17l.36-1.49-.69-.35.51-.5c1.05.14,1.59,1.22,2.57,1.46.68.17,1.22-.6,1.92-.12Z"/>
    <path d="M354.68,126.33l.99-.2.71,1.51,2.29-.31-.67,2-.99-.34c.08.77-.66,2.24-1.34,2.52-.58.23-1.36-.34-1.66-.18-.11.06.4,1.54-1.31,1.69l.31.97c-1.8-.41-1.69,1.27-2.59,2.01-.72.59-2.46,1.11-3.41,1.32l1-.99-1.18.26-.5-.77c1.47-2.67,4.91-2.3,6.18-5.5l.47.04c.27,1.47,3.94-.22.7-.71l.96-2.09-1.62-2.42c-.35-1.19,2.11-.12,1.68,1.17Z"/>
    <path d="M200.67,10.67l3.66,1.66c-1.55,1.01-2.13-.31-3.66.34l.03-.83-1.49-.52c-.28.39-2.53,2.25-2.7,2.26-.14.01-2.32-.79-2.58-.92-.36-.17-.39-.77-1.07-1.04s-1.75.16-2.52-.29l.64-.35-.31-.98,3.85-.16c1.84.91,5.89-1.65,7.01-.17h5.81c-.04.47-1.63.99-1.83.99h-4.83Z"/>
    <path d="M136.23,168.1c.3.22.84,1.31.78,1.71-.08.31-.65.33-.94.41-1.84.5-5.55.71-7.56.78-.99.04-2.44.25-3.18-.51.76-.76,3.42-.48,3.99-.85.03-.02-.3-.47-.02-.82.05-.07,1.18-1.13,1.27-1.15.92-.2,4.94-.09,5.66.43Z"/>
    <path d="M305.33,88c-.34,2.5-2.54,1.6-4.41,1.55-1.77-.05-.64.98-.25,1.78.71.02.51-1.33.84-1.35,1.09-.09,2.2.49,2.16,1.69h2.65c-.68,1.37-4.17-.6-4.66,0l2,3.66c-.62.12-1.18.43-1.77.03-.66-.45-.86-2.23-1.56-2.69v3s-1.34,0-1.34,0l.33-2.33c-.43.15-.7.68-.67-.16.04-.98,1.07-4.55,2.16-4.71.58-.08,1.74.67,2.66.55.86-.11.98-1.1,1.85-1.01Z"/>
    <path d="M239.33,8l-.67.67.5.66c1.13-1.23,2.26-.28,3.34-.32.99-.04,2.07-.59,3.16-.33-.61,1.04-2.43.55-3.47.7-1.68.25-4.63,1.02-6.32.63-.25-.06-.21-.63-.36-.63-1,.04-2.3,1.04-3.52.29l1.98-.36.02-.97c1.83.82,3.46-.46,5.33-.33Z"/>
    <path d="M113.33,168l-1.33.99,2.36.51-.03.83c1.13-.15,2.73.23,3.76,0,.22-.05.21-.5.5-.63,1.84-.82,2.8.92.89,1.3-.5.1-4.97-.26-5.59-.4-.84-.19-1.98-1.48-2.74-1.47-.61,0-2.09,1.02-3.16.54-.13-.76.07-.65.65-.83,1.39-.41,3.22-.47,4.68-.83Z"/>
    <path d="M259.84,80c.88-.18,3.14,3.34,1.28,3.96-1.67.55-1.6-1.68-1.64-2.97-.01-.46-.26-.6.36-.99Z"/>
    <path d="M231.66,9c1.17,1.49-5.05.91-5.67.66-.5-.46.03-.61.49-.66.69-.09,4.95-.27,5.17,0Z"/>
    <path d="M20.67,169.34c.24,1.04-.78.67-1.45.62s-2.56-.3-3.13-.53c-.4-.16-.83-.42-.41-.75l5,.67Z"/>
    <path d="M302,64.67c-.23,1.22-.26,2.49-1.16,3.33-1.62-.66-.61-3.62,1.16-3.33Z"/>
    <path d="M308.66,87.34c.73.65-.85.56-.66.99l.67.2-.31.79.64.35-1,.17.67.66-.77.44-.88-.31c-.28-.64.76-4.09,1.65-3.29Z"/>
    <path d="M122.33,141.34c-.61,1.33-4.8,1.42-3.1-.36l3.1.36Z"/>
    <path d="M331,14.67c.01.54-1.17.68-1.51.68-1.18.02-2.29-.51-3.49-.35-.05-.78-.11-.59.5-.67,1.51-.2,2.98.56,4.5.34Z"/>
    <path d="M311.33,94c-.65.13-1.02-.51-1.58-.62-.9-.17-1.73.76-2.42-.21,1.24-1.07,3.37-.66,3.99.83Z"/>
    <path class="uuid-abded51e-cac4-40d4-ba29-dba7bdf9c55e" d="M113,162.33c-1.35.55-2.5.86-4,.67l2.62-.71.05-1.95,1.33,2Z"/>
    <g>
      <g>
        <path d="M105.67,69.34c.96,1.01-3.07.61-3.33.66l.34-.66-1.64-.05-.24-.97c-1.22.14-2.99-.6-3.99-.66-.89-.05-1.13.92-1.79.5,2.86-3.81,7.37.17,10.66,1.17Z"/>
        <path d="M111.67,71c0,1.5-1.19.5-2.15.65-.55.09-.87.69-1.35.69-.2,0-.12-.6-.38-.67-.4-.11-1.81.42-2.45-.01.03-.67.95-.1,1.5-.66.8-.81-.66-.5-.5-1,1.96-.43,3.58.17,5.33,1Z"/>
        <path d="M104.33,65.33c-1.06.28-1.42.35-2-.66l2,.66Z"/>
      </g>
      <g>
        <path d="M0,21l10.34,2.83c-.7.54-1.47.8-2.31.51-.56,3.42-4.44-.68-6.48.31l-.55-.98-1,1.33v-4Z"/>
        <path d="M69.28,17.25l.2-.57,2.53.98-.33-1.33c1.48.59,2.31-.94,4,0l-.68,1.46.74,1.12,3.05.75c.65.36-.09,1.47-.67,1.56l-3.45.11c1.94.53,3.73.86,5.77.68l.56-.85-.67-.49c1.32-.36,1.91-.84,3.33-.34-.79-1.44-.14-1.75,1-2.5l-.67-.71.05-1.08c.39-.63,4.64-.33,5.62-.04l-3.66,1.83c1.06.62,2.2,1.93,3.24,2.42.87.42,1.93.34,2.75.91.94.65-.46.42-.33.66l1.14.51c.58-1.08,1.91-.58,1.53-2.34-1.85-.06-4.17,0-4.57-2.17,1.61-2.73,3.88-1.46,6.07-1.49,2.42-.04,4.34-.44,6.94.07.89.18.8.77,1.15.9,3.07,1.14,6.79,1.15,9.41,3.2l-.5.23-.16.6,6,1.67c-.02,1.47-1.84,1-2.22,2-.93.2-1.85-.64-2.67-.95-.37-.14-.83-.67-1.1.11-.16.47,3,1.13,3.33,2l-1,1,.66.5-2.33-.66,2,1.66c-1.95-.88-4.43-.79-6.41-1.42-2.47-.79-4.13-2.69-7.25-1.25l.05-1.28,4.28-.39-.66-.49,1.99-1.33-2.18-.45c-.37,1.07-3.07,1.06-2.49-.38l1.33-.33-2.33-1c-.18.58-.07,1.57-1,1.33l.66-1.5-2.64.18c-.37,1.3-.75,1.37-.03,2.65l-2.66,1.34,3.99,1.99c-1.17.54-2.43-.39-3.43-.26-.65.09-1.47.98-2.06.95-.11,0-.44-1.26-1.84-.69-.13-.51.48-.26.67-.55.43-.67.42-2.11-.34-1.44-.13.12-.25,1.15-1.01,1.49-1.46.64-1.34.25-3.03,1.29-1.57.97-4.12,1.54-3.64,3.88,2.17-.69,1.57,1.27,2.56,1.61.75.26,2.31.2,3.45.55,2.07.63,3.93,1.92,6.31,1.52l.39,1.94,1.29.04-1.33.5c2.76,2.8,3.35.54,2-2.16.98.15,3.23-.72,3.22-1.84-.23-1.49-1.52-1.07-2.22-2l1.32-1.33-1.32-.5,1-.33-.34-1.66,4,.33.16-.66c1.82.7,2.83,2.08,4.84,1.66l-.19,1.66c1.92,2.08,3.6.65,4.69-1.32.91,1.41,2.4,2.34,3.5,3.49.34.35.32.95.87,1.48.81.77,2.3.96,3.7,2.06.78.61,1.75-.05.79,2.17l.64.3-.99,1c.66,1.26,1.54.32,2.32.65,1.44.61,2,3.79-.16,3.1-.19-.06-.14-.59-.35-.6-1.91-.05-1.07-.08-2.04-.32-.78-.19-1.92.12-2.77,0-.55-.55,1.99-2.76,2-3.66-.87-.22-1.36.66-1.99.84-2.36.69-4.63-.27-6.78.22-.73.17-1.32,1.05-2.23.94-.07.63.7.27,1.07.24,1.03-.1,2.97-.89,3.26.59-.08.36-1.44.88-.66,1.35.08.05.36-.14.57-.03.07.04.09.47.32.52.58.11,1.19-.03,1.78.01l.16.66,1.5-1.33c-.09.76.02.91.67,1.17l-6.16,2.84c-.71.22-.63-.74-.47-1.14.23-.57,1.02-.3.96-.87-1.12.45-5.65,1.58-5.66,2.83l.99.17v1c-.62-.13-3.6.47-3.93.74-.42.35-1.17,3.34-2.4,3.27l1,1.99-.6-.27c-.37,1.17-1.7,1.1-2.7,1.8-.51.35-2.49,1.94-2.62,2.38-.65,2.16,3.64,6.55-.73,6.76l.66-.83c-1.67-1.18-1.43-3.1-2.55-4.53-1.79.65-3.37-.83-5.45-.31l.33,1.33c-3.06-.17-4.77-1.66-7.5.67-1.44,1.23-.44,1.49-.59,2.46-.23,1.41-.78,1.63-.48,3.62.67,4.38,6.22,5.38,7.12.88l3.79-.29c-.08,1.4-1.06,2.34-1.32,3.86l.65.47-1.33,1.33h2.34s-.34-.66-.34-.66h1s-.34.66-.34.66l2.98.7c-.63,2.17-1.41,5.17,1.38,6.13.77.27,1.71-.61,2.79-.5.83.09,1.61,1.08,2.01,1,.75-.41.84-1.85,1.27-2.26.37-.36.91-.07,1.09-.15.33-.14.95-.34,1.13-.43.65-.3,1.11-1.04,1.85-1.16l-.49,1.01c.25.9.93.4,1.63.29l.04-1.29c.37.24,2.09,1.97,2.24,2,.8.2,2.29.03,3.24.32l.19-.99,3.67.33c-.34.66-.03,1.78.42,2.23.24.24,1.07.23,1.58.6.63.45.85,1.43,1.81,1.86,1.66.73,4.32-.16,5.76,1.73.66.87,1.13,3.7,2.11,4.4s3.05.7,4.09,1.24c.76.4.72,1,.96,1.18.32.25,3.89.34,4.62.57.86.27,1.7,1.58,2.67,2.01.52.23,1.42.02,1.69.38.4.53.78,2.4.41,3.08-1.15,1.8-2.58,3.58-4.13,4.96.83,1.97-1.48,9.29-3.24,9.75-1.58.42-2.97.4-4.6,1.34-3.01,1.71-.87,2.65-1.8,4.11-.21.33-.84.45-1.18.91-.98,1.33-1.69,2.55-2.86,3.82-2.05,2.24-2.84,1.95-5.66,1.18-.03.52.67.42,1.04.82.24.26-.2.83.65,1.05-.29,2.58-3.17,2.77-5.35,2.79-.03.65.23,1.7-.55,1.95l-2.46.05v1s1.33.5,1.33.5c-.24.55-1.43.66-1.59.91-.2.31.05.99-.39,1.44-.53.55-1.78.14-2,1.32l1.77.83c.95,1.21-.94,1.33-1.45,1.85-.33.34-.23.93-.55,1.19-.28.22-1.06.1-1.14.5-.35,1.74,2.03,4.5,4.03,3.8-2.23,2.58-5.49,1.38-8.08-.09-2.2-1.26-4.1-5.47-1.59-7.08l-1-.17c-.14-.7.55-1.1.81-1.7.32-.73-.35-1.67,1.52-1.64l-.16-.66-1.17.32c.49-2.01,1.6-4.21.66-6.14,2.56-1.8,1.82-4.36,2.13-6.64.36-2.7,2.61-10.34,1.11-12.45-.71-1-2.87-1.61-3.88-2.29-2.1-1.42-3.8-6.47-5.34-8.9-.28-.43-.91-.41-1.2-1.06-.42-.95-.03-2.15.85-2.69l-.16-.51c-1.48.1-.13-3.13.24-3.57s.72-.46,1.58-1.57c.33-.42,1.14-.89,1.21-1.32.23-1.47-.19-4.01-1.8-4.57l.28-.6c-1.09.02-1.38.78-1,1.66-.4-.24-1.82-.04-1.93-.09-.1-.05-1.32-.86-1.71-1.11-1.74-1.1-1.7-1.54-2.67-2.98-1.62-2.4-3.64-1.69-5.67-2.67-.86-.41-1.27-1.81-2.67-2.02-.86-.13-1.19.48-1.86.53-1.29.1-9.09-3.4-9.34-4.64-.11-.54.82-.56.15-1.79-.97-1.79-3.37-2.84-3.81-3.57-.21-.35.2-.83.13-.94-.26-.43-2.47-1.63-2.67-2.3l-.6.26c-.03-1.58-.53-3.17-2.34-3,.19,2.01.77,1.41,1.68,2.17.21.18.2.92.56,1.39,1.04,1.34,1.38,2.09,2.12,3.22.08.12,2.76,2.63.47,1.88-.11-.04-.2-.51-.41-.66-2.5-1.69-1.07-1.44-1.8-2.63-.1-.16-2.92-.92-3.28-1.88l1.33-.33c-2.01-1.01-2.07-3.32-3.33-4.71-.37-.41-.66-.15-.91-.27-.07-.03-.08-.47-.31-.52-.51-.1-1.51.14-1.73-.06-.07-.06-.12-.75-.36-1.12-1.72-2.6-3.82-4.22-3.68-7.67.04-1.01.62-2.32.55-3.29-.19-2.7-2.82-3.5-4.89-4.55l1-.49c-.75-1.7-3.18-1.72-3-3.84-1.45.21-2.06.78-2.99-.58-.22-.32-.3-1.03-.36-1.07-.05-.03-.6.37-.98.18s-.99-1.43-1.62-1.81c-2.94-1.8-9.24-2.39-12.46-1.65-.49.11-2.35,1.19-2.59.94l-.5-1.33c-.71.35-.66,1.27-1.07,1.68-.2.2-4.28,2.45-4.86,2.72-.5.24-1.03.28-1.57.26l.67.33-.5.66c-.48-.69-1.56-.61-2.24-.31-.27.12-.26.65-.45.66-.66,0-1.5-.61-2.47,0-.18-.95.26-.54.73-.75,2.23-1.03,4.82-1.18,6.6-3.08l-2.48-.67-2.18.18.28-.79-.47-.53c-1.97.85-2.34-.56-3.78-1.37.7-2.4,2.89-1.85,4.81-2.31.5-.12.59.24.5-.66-2.62-.57-5.07.55-7.33-1.51,2.16-.86,4.06-.92,6.33-.5-.08-.71-1.27-.48-1.73-.7-.29-.13-.31-.52-.53-.6-.82-.33-1.86-.57-2.73-.7.56-.97,2.23-.5,3.26-.89.39-.15.39-.7.81-.88,5.14-2.11,12.39-.55,17.81-.02,1.95.19,6.7,1.12,7.95,1.09s5.48-1.48,6.66-1.5c.53,0,1.06.54,1.61.45.31-.05.64-.58,1.07-.59.66-.02.99,1.04,1.65,1.02.48-.01.87-.68,1.34-.68.16,0,2.6.27,2.98.32,2.59.34,5.07,1.49,7.85,1.01l-3.33-.84.33-.82-1.36-.16v-.82s-.97-.03-.97-.03l.67-.99c-.98-.33-1.58,1.24-1.91,1.33-2.09.58-3.45-.37-5.43-.67.6-1.03,1.85-1.29,1-2.66.3-.25,6.89.2,7.81.36,1.96.33,4.23,1.67,6.47,1.56Z"/>
        <path d="M87,12c.23-.73-.17-.54-.47-.71-1.19-.69-2.6-.48-3.53-1.45,0-.46,2.16-1.29,2.66-1.36,1.04-.15,1.6.28,2.13.22.22-.02.17-.62.43-.68,2.52-.6,8.16-.78,10.98-.97,6.63-.44,13.17-.35,19.8.3l-.66.66c3.18-.39,6.68-.65,9.83,0l-.16-.67c8.29-.65,17.17-1.56,25.51-1.01,2,.13,3.98,1.11,6.15.68.27,1.09-.65.47-.97.7l-.03.97,2-.33-.17-.67c2.27,1.38,4.83-.02,7.16.67-.96,1.13-3.07,1-4.47,1.36-.83.21-1.48.93-2.53.64l.64,1.51-.97.82h1.34s0,1.33,0,1.33l-1.67-.66,1,2.33-1.31.05-.24.98-1.79-.02.92,2.5c-.12,1.71-9.45,2.55-10.95,2.97-2.02.57-2.76,1.58-6.11,2.21-2.39.45-1.53,1.19-2.28,2.22-.16.22-.71.29-.9.58-.59.88-1.09,3.04-2.21,3.09-.88.04-1.58-.61-2.37-.82-.75-.2-1.49.02-2.34-.33-1.29-.54-3.13-2.99-3.95-4.05-.4-.51-.89-.46-1.27-1.33-.3-.68-.29-2.1.47-2.54l-1.99-1.67,1.33-.83c-.68.02-1.27.1-1.88-.32-.19-.13-.61-1.65-.77-1.85-3.22-4.09-7.5-2.07-11.83-2.53-1.44-.15-3-1.38-4.52-1.31l1.33-.5-1.67-.17c-.09-.07.18-.43.33-.5.63-.3,3.86-.69,4.84-.82s2.63.47,3.16-.67c-.76-.1-1.73.16-2.44-.01-.28-.06-.11-.67-.71-.7-1.69-.08-3.64,1.63-5.64,1.08l-.25.91-3.95,1.05.32.97c-2.07.63-1.67,2.16-4.21,2.23-1.71.05-3.58.16-5.28.16-1.57,0-3.27-.68-4.95-.35l-.27-1.3c-.72-.34-1.6-.71-1.94.28l1,1.01c-.93-.14-2.26.21-3.11,0-.26-.06-.21-.65-.44-.68-.61-.08-1.85.51-2.97.37-.74-.09-1.1-.56-1.67-.67-.94-.18-2.14-.02-3.15-.36l.34-1-2-1,2.67.67-.34.66c2.27.59,4.43-1.33,6.67.34l-.33-1,.84.21.49-.88c-.59.4-2.45.07-2.33-1,2-.42,3.84.9,5.66,1-.39,1.25-1.91.16-2.33,1,2.47.34,4.89.13,7.33-.33-.76-1.03.57-.23.33-1.33-1.32.88-3.02.45-4.52.39-.4-.01-.73.28-.81.28ZM98.67,13.67h-8.33c.52.99,2.25.52,3.18.69l5.15-.69Z"/>
        <path d="M64.66,12.34l-.66,1,2.66-.33-.66.66c1.6-.53,3.1,1.46,4.33.17l-1-.49c1.83-1,2.45.41,3.21.58.44.1,1.58-.5,2.12.25-1.02,1.4-2.9.68-4.46.87-1.02.12-1.99.67-3.04.66-1.42-.01-2.75-1.19-4.29-.75l-.2-.94h-5.67c.1-.62.68-.57,1.12-.71,2.11-.72,4.31-1.15,6.54-.95Z"/>
        <path d="M82.67,15.34l-.26.6c.88.38,1.88,1.72.68,2.32-2.42,1.23-3.71-.93-6.09-.93.9-1.43,2.61-1.07,3.77-1.34.25-.06.2-.55.45-.63.23-.07,1.03.21,1.45-.03Z"/>
        <path d="M81,11.67c-.59,1.07-2.62.29-3.66.66l.66-.66-3.27-.06-.39-1.28c2.26.28,4.59.2,6.66,1.34Z"/>
        <path d="M70.67,11.34c-.66,1.53-2.76,1.85-4,.83l1-.33-1-.5h4Z"/>
        <path d="M28,31.34c.04,1.52-2.15,2.67-3,1.16l3-1.16Z"/>
        <path class="uuid-abded51e-cac4-40d4-ba29-dba7bdf9c55e" d="M98.67,13.67l-5.15.69c-.93-.17-2.66.3-3.18-.69h8.33Z"/>
      </g>
    </g>
    <g>
      <path d="M311.33,90.33c-.1.12-.8-.27-.67.33,2.78-.83,3.74-.06,4.34,2.67.32.24,2.14-2.09,0-1.67l.64-.35-.14-.98,1.12.72-.28.61c1.67-.72,2.14.19,3.33.51,1.08.29,4.53,1.04,5.01,1.34.28.17.29,1.17,1.32.83l-.34,1h5.3c.41-2.7,2.4-.96.79.35-1.03.84-2.55.77-3.6,0l-.2.96-.96.03c-.26.9.48.6.83.98,1.04,1.13,1.21,2.11,3.14,1.36l.36,1.66c-.27.26-3.23-.48-3.76-.74-1.3-.65-1.41-2.32-3.11-2.25-.46.02-1.79,2.09-1.8,2.51-.02,1.28,1.29,2.77.99,4.15,2.03-.96,1.9,3.31,3.18,4.65.59.62,1.42.51,1.81.85.78.68,1.64,2.36,2.2,3.14.49.69,1.34,1.08,1.51,2.01l.96-.32c-.71,1.45.34,2.64.26,3.81-.28,3.95-3.35,5.35-3.6,9.17-1.21-.09-3.52.12-2.99,1.68-.45.28-1.67-.88-2.25-.95-.7-.08-.95.47-1.26.5-.14.01-2.47-.68-2.74-.79-1.21-.53-1.09-2.16-1.98-2.37l-2.44.28.63-.35-.3-.78c0-.07,1.24-.57.67-1.2s-1.14,1.51-1.83,1.33l-1.85-2.44c-.93-.29-1.39-.76-2.53-.85-1.67-.13-5.35.57-6.86,1.3-.36.18-.36.71-.83.92-1.03.46-2.25-.03-3.24.09-.81.1-2.06,1.14-2.34,1.18-.93.14-2.51-.65-3.16-1.36,1.5-1.57-.15-4.66-.86-6.5-.18-.46-.73-.94-.78-1.23-.05-.36.43-.66.44-.93.02-.51-.14-3.28.17-3.51.04-.03.37.32.6.23.12-.05,1.24-1.18,1.32-1.22,1.21-.55,4.49-.65,5.5-1.33.88-.59.72-2.35,2.07-3.36.29-.21.72-.08.86-.18.19-.15.26-1.51,1.32-1.97,1.8-.78,1.95.42,2.9.76,1.61.59,1.25-1.63,2.43-2.44l-.66-1.16h1.33s-.33,1-.33,1h1.33s-.67-.99-.67-.99c1.68-.55,2.46,2.02,4.45.36l.8.8-.6,1.01c.68.3.78.29.67,1.16h-1.33c-.33.3,2.36,2.24,2.56,2.29.56.14,1.16-.4,1.77-.28l-.67.99.84.31.79-1.17,1.03-7.13c-.94.64-1.66-.94-1.9-.99-.81-.18-1.9.1-2.76-.01l1.32-1.03c-.36-2.29-1.99-2.56-3.99-3.16-.58-.17-1.24.17-1.75-.12-.07-.04-1.13-1.02-1.16-1.09-.08-.15.3-.6.1-.93-.35-.58-2.25-.95-1.85-2.34.23.06,1.64.29,1.33.66Z"/>
      <path d="M328,133.34l-.49-.25-.38.6c-1.87.19-2.01-1.62-2.78-2.85l3.66-.17-.17-1.33c1.06,1.09.29,2.72.16,4Z"/>
    </g>
    <g>
      <path d="M158.56,23.79c.19.11,0,.66.27.54.6-.65,5.8-1.14,6.28-.97.24.08,1.61,1.5,1.22,1.96-1.65.13-3.31,1.16-4.88,1.32-1.45.15-2.96-.77-4.45-.31l.66-.99h-2s1-.67,1-.67l-1.33-.17c.9-1.1,1.95-1.47,3.23-.71Z"/>
      <g>
        <path d="M181.33,39c2.98-.65,2.46-1.85,3.67-2.49.76-.4,2.43-.43,3.33-.51.14-.12-.82-2.79,0-3.17l2.18-.82c1.34.76-1.36.81.42,1.38l-.26.61,1.67-.33-1.53-2.69c-1.4-.39-3.47,2.32-5.32.38-.54-.57-1.29-2.92-.73-3.6.12-.14,2.72-1.3,3.27-1.56.6-.28,2.88-.95,3.32-1.38.34-.33.31-.93.66-1.3s1.75-.92,2.32-1.18c.11-1.01-2.68.73-1.67-.5l6.21-2.15c2.59.65,5.66-2.27,7.96-.34l.37-.69,3.79.69-.66.66c1.23-.37,2.27.32,3.18.48,1.91.32,5.56.64,7.24,1.53.42.22.57.89.58,1.33-2.51,1.05-4.77.42-7.33,0-.11.52.59.32.83.65.16.22-.32,1.1.34,1.35.48-1.32,3.12-.27,4.32-.02.45-1.53,2.72-2.67,4.07-1.71l.77-.45-.69-.35.37-.97-.68-.51c1.13.13,3.31-.6,3.33.99l-1.66.33c.81.18,1.78.6,2.59.25.08-.04.06-.51.72-.75.88-.31,5.5-1.52,6.03-1.15l-.17.67,5.16-1.01.33,1,.67-.83-2-.84.53-.63,9.8,1.96c-.1-.79-1.63-.46-1.93-.73-.12-.11-.48-1.79-.39-1.92,1.65.13,3.12-2.49,4.47-2.36.59.06,1.33.97,2.19.68l-.99,1.65c1.53.11-.29,2.35,1.66,2.84-.64.44-1.2,1.02-1.77,1.56-.28.26-1.1.61-.07.6l2.84-1.33-1.19-1.97.38-1.02-.85-.83,1.82-.83c-.36-.88.22-.99.74-.18l-.24,1.18h1s.12-1.02.12-1.02l2.71-.97c.83,1.68,2.31,1.28.83-.34h3.66s-1.33-.67-1.33-.67l11.74-2.03c.58-.9,1.55-.97,2.59-.97l-.33.66c3.63,1.1,6.64-2.25,10.46-.94.5.17.46.81.58.91.14.11,2.49-.36,3.46-.29.52.04,3.17.6,3.16,1.17-2.29,2.82-.04,1.82,1.51,1.9,1.84.1,4.38.91,5.97.9,1.35,0,1.45-1.03,2.34-1,1.8.06,4,.61,5.85.71l-.33,1.99c.76-.04,1.66.64,2.34.18.24-.16.22-.81.54-.87.67-.11,3.5.49,4.95.36,1.6-.15,1.63-.81,2.1-.97,1.67-.56,8.64-.1,10.51.31.15.03,1.68,1.16,2.75,1.3,2.17.29,4.62-.9,6.92.09.46.2.46.72.82.92.39.21,5.51.43,6.25.36.95-.09,2.24-1.24,2.83-.02l-1,.33,2.33.34-.66-.83.84-.51,9.16,1v4.33l-1.67.34c2.23,3.29.99,1.89-1.34,2.13-1.97.2-5.93,2.43-6.89,2.47-.46.02-.86-.6-1.59-.63-.78-.03-1.81.45-2.35,1.03-.39-1.41-.77-.22-1.32-.15-.38.05-1.28-.37-1.5-.17-.06.06.09.62-.1.87-.27.39-1.16.45-1.25,1.11h1.34s0,2,0,2l-1.01-.16-.48.49.16,1c-1.34.31-2.36-.16-2.01,1.68-1.54-.66-1.7,1.59-3.17,1.99-.79-1.36-1.9-4.25-1.15-5.73s2.07-1.2,2.99-1.73c1.11-.64,3.87-2.1,4.66-2.7.48-.36.77-.95,1-1.49-1.45-.36-.78.68-1.31,1.17-.1.09-2.09.23-2.53.84-.73.1-.83-1.16-1.3-1.24-1.67-.29-3.55,1.13-4.86,2.06l1.34.33c0,.48-4.77.54-5.18.43-.18-.05-.14-.59-.34-.61-.63-.05-.99.51-1.31.53-1.86.12-4.48-.54-6.26-.09-.95.24-4.95,3-6.26,3.75-.44.25-.84-.06-.65.83l2.66-.66-.66,1.66c1.18-1.19,3.77-.8,3.67,1l1-2c1.4.5.66,1.99.85,2.7.35,1.32,2.37,3.63-.19,2.63-.19.72-.42,1.17-.12,1.92.23.57,1.04.16.78,1.07-1.61-.79-.84.23-2,.33.07-.84.78-6.01-.17-5.99-1.29.74-.59,2.6-1.27,3.56-.51.72-4.83,4.7-5.66,5.17-1.55.87-2.2.1-3.34.63-1.81.84-1.36,2.58-3.56,2.64.51,1.5,1.99,2.33,1.89,4.13-.06,1.19-.93.87-1.64,1.22-.25.13-.24.6-.49.65-.52.1-1.19-.35-1.76,0v-1.67c1.63.97-.08-1.57,0-1.66.11-.12.8.27.66-.33l-1.99-.5.99-1.5h-2.34s.34.66.34.66c-.72-.26-1.68-.03-2.34.34.08-1.38,1.37-1.59.49-2.33-.81-.15-2.56,2.87-3.82,1.67v1s1.36.16,1.36.16l-.03.84c.85.05,1.2-.89,2-1.33-.02.33,0,.67,0,1l1.67.49c-.54.15-3.97,1.88-3.33,2.5l.91.07c.26,1.53,2.3,2.48,1.43,3.93.12.11,1.21-.64,1.33.33-1.01-.01-.73,1.32-1.33,2.19-.16.23-1.27,1.08-1.66,1.16l.66.66c-1.17-.04-.67.9-.73.95-.15.13-.76.09-1.11.37-2.79,2.28-4.57,3.02-8.16,3.85l-.32.33c2.32,3.94-5.03,2.51-.35.83-.3-1.11-.49-1.67-1.79-1.68-.5,1.08-2.09,1.06-2.42,2.35s2.81,3.05,3.18,3.94c.4.97.71,3.26-.12,4.08l-4.18,2.65c.06-2.03-.77-1.3-1.17-1.63-1.01-.83-1.11-2.81-2.81-2.39l-.19-.97-1.46,3.84.62.49.33-1c.04.75.09,2.43.51,2.99.85,1.14,3.77.96,2.86,4.32l.97.02c-.83,1.21.54,1.62.58,1.72.03.08-.04,1.57-.09,1.64-.27.41-1.45-.04-.32,1.3.57.67.75-.47,1.32-.33.62,1.59,1.47.72,2.5,1.51.08,1.18-1.9-.22-2.33.16l-.34,2.66c1.3-.65,2.52.88,3.53,1,.66.08,1.22-.33,1.68-.3,1.12.07,2.26.52,3.46.3l-.2,1.01c.42.53,1.75-.04,1.53.99l.52-.66c1.85.03,3.77.34,5.62.34,1.43,0,4.46-.99,5.52.32l-4.33,2c-.03-1.24,1.53-1.42,2-2.33l-5,.67c.22.47,1.35,1.35.17,1.33l-1.5-.67,1-1c-4.93.89-9.84-.96-14.66-1.67l.67-.99c-1.18.14-2.86-1.3-3.68-2.15-1.99-2.09-3.2-5.29-5.08-7.42-.59-.67-2.19-1.02-1.9-2.43,2.3.68,3.98,1.57,5.41,3.58l1.26-.24c-1.29,0-1.39-3.32-1.74-3.62-1.63.12-.01-.88-1.43-1.72l-.5.66c-.25-1.22-.03-2.69-.11-3.78-.06-.8-1.07-1.1.43-2.55-1.02.1-.44-2.12-1-3.01-1.66.03-1.63,1.59-3.33.66,1.12-2.22-.9-3.14-1.96-4.87-.27-.44-.37-.95-.38-1.46-1.56.89-2.9.66-4.63.7.07,2.03-1.2,1.56-2.12,2.29-1.12.89-2.37,2.37-3.54,3.25-.7.53-1.17-.41-1.27,1.2-.08,1.35-.09,2.96-.08,4.32-1.38.77-2.5,4.11-3.76,1.48-1.32-2.77-3.19-7.35-3.71-10.29-.13-.73.42-1.44-.39-1.94-1.36,1.46-3.06-.1-3.32-1.58l-2.44-1.83.26-.59c-3.25.27-6.43.16-9.67-.34v-1.33c-3.09,1.25-5.44-.22-7.01-2.83-4.07-1.03-.12,3.53,1.52,3.81l.15,2.02.83-1c.54,2.22,3.68-1.53,3.83-1.33-.32,2.82,2.32,2.04,3.67,3.83l-1.31,2.36-1.02-.19.33,1.33c-1.37-.15-1.13,1.48-2.67,1.01l.66.66c-.9.37-2.31.28-3.1.73-1.93,1.11-3.27,2.11-5.66,3.01-1.12.42-2.65.82-3.85.97l-.22.96c.82,2.15,6.4-.46,8.16-.17-.55,3.36-2.93,7.2-5.49,9.5-.51.46-1.26.63-1.84,1.16-.86.77-4.49,4.84-4.66,5.68l.67.83-.99-.33,1.02,2.83-.65.31c.03,1.82,1.08,1.94,1.25,2.41.11.31.17,4.46-.02,4.86-.79,1.7-2.27,1.46-3.36,2.25-.58.42-1.53,1.89-2.41,2.33-.19.43,1.39,3.15.54,4.45-.39.59-2.11.64-2.32.95s-.13,2.07-.58,2.92c-.73,1.38-4.21,4.66-5.7,5.33-1.63.75-2.54.22-3.93.34-1.26.11-3.01,1.05-4.04.37-1.48-.99-.61-1.94-.98-3-.55-1.56-2.29-2.97-2.85-4.51s-.38-3.22-.8-4.54c-.88-2.81-3.03-3-2.36-7,.32-1.91,1.17-2.25,1.69-3.33s-.32-1.48-.45-2.25c-.28-1.74-.37-3.22-1.32-4.98-.64-1.18-2.85-2.52-3.02-3.67-.16-1.05,1.41-3.05.79-4.76-.41-1.12-.52.97-1.17.34l.18-1-.35-.33c-2.94,1.44-2.63-.99-3.49-1.51-1.96-1.19-4.9,1.15-6.62,1.33-.78.08-1.46-.43-2.21-.43-1.48,0-2.95,1.15-4.34.63-.29-.11-4.07-2.56-4.49-2.89-.15-.12-.41-2.08-1.66-2.97-.56-.4-1.36-.38-1.81-.83-.23-.23-.53-2.28-.63-2.76-.07-.3-.48-.61-.48-.76,0-.21.66-.61.83-1.08.5-1.37.88-4.3-.61-4.96.1-1.62,1.45-2.67,2.17-3.81.43-.68,1.42-2.73,1.93-3.23.43-.42,2.34-.68,2.95-1.55.72-1.03-.19-2.51,1.52-3.81.56-.42,1.38-.48,1.93-1.06,1.82-1.93.05-3.44-2.15-2.65.31-.83-.66-1.67-.66-2.17,0-.42.63-.91.7-1.66.07-.81-.55-1.97-.22-2.5,1.04-1.27,6.48.24,7.21-.16.98-1.21,1.02-2.8-.64-3.22l.29-.61c-1.07-.16-2.52-.19-3-1.33,1.32-.61,2.33-.08,3.66,0l-1.33-.67c.64-1.5,2.09-.1,2.85-.01.14.02.13-.42.28-.5.86-.5.88-.04,1.21-1.15-2.4.52-4.94.3-7.33,1,.47-.6,1.17-1.51,2-1.33-.08-.84-1.66.3-1.33-1l1.01-.17-.67-.33.5-.77.64.22c.57-.34.78-.62.2-1.13-.84-.74-.49,1.02-1.34.5-.09-.05.81-.85-.16-.66l-1.01.64c1.25,2.04-4.03,2.98-4.5,2.35.8-.84.07-2.73.84-2.88,1.48-.29.62-.4,1.63-.84.68-.29,1.49.11,2.19.05l-.59-.38c.28-.65.15-.48-.38-.76l.3-.85-1,.33-.3-.95,1.63-.72.17,1c.58-1.17,1.59-.75,2.26-1.02.37-.15.22-.97,1.24-.64l-1,1.33,1.67.16c.77.41-.57,1.01-.67,1.34v.49c1.38-.34.95.84,1.42,1.25.24.21.8.05,1.22.61.53.71-.06,1.47,1.69,1.14.08.07-.24,1.69-.34,2ZM204.67,24.34c-.91-.03-1.97-.02-2.8.39-.45.22-.26,1.11-.99,1.47-1.56.78-3.61.65-3.55,3.13,1.07-.15,1.88.38,2.34,1.33l-2.58.75c-.27,3.09-.55,1.86-2.5,2.61-.28.11-.22.52-.5.62-.66.24-2.34.04-2.75,1.02.64.26,1.53-.61,1.84-.58.35.03.56.83,1.26.85.84.01,2.23-.86,3.11-.92.69-.05,1.27.33,1.89.26,2.06-.24,1.25-1.12,1.44-1.95.17-.75,1.06-.98,1.08-1.05.12-.29-.29-.63-.21-.88.22-.68,1.81-.45,1.92-1.06-1.28-.03-2.64.16-3.87-.3-.46-.17-.57.11-.46-.7l1.62-.04c.48-.87.25-1.66-.27-2.46,1.28-.95,3.48-.62,3.98-2.49ZM212.63,44.04c-.06-.08-1.68-.75-1.91-.65-.39,1.09-3.97,4.08-2.51,4.97,1.73,1.06,4.83-.76,6.93-.7.23,0,.17.55.35.6,2,.54,4.24.96,6.17.07.46-.59-3.85-3.1-4.58-3.25-1.5-.31-2.19.24-3.54.62l-1.14-1.1c-.07-.12.27-.5.22-.56ZM193.31,44.35c-.27-.19-.91.23-.98.49-.27,1,.74,1.04,1.16,1.49,1.62,1.75,2.23,1.51,4.06,2.6.43.25.8.5,1.1.9l-1.99-.16.66,1.33c-1.1.6-2.11,1.16-2.5,2.34l-2.83-1.66h3.66s.04-1.43.04-1.43l-6.03-3.25c-.11-.1.98-1.37-.84-1.3-.76.03-1.88,1.22-2.68,1.29-.84.07-1.91-.74-2.85-.17-.38.23.18.93-.28,1.34-.8.72-4.41,1.17-2.7,3.16-1.02.22-1.6,1.66-2.57,1.94-.9.25-2.12-.07-3.09.41.78,2.34,4.64.14,6.26-.24,1.49-.36,3.99-.57,5.5-.66,1.4-.08,3.12.22,4.57-.1-.38,1.02-.16,1.73.34,2.66l-1.34.67c.93-.1,1.47.72,2.24.93s2.18,0,2.88.39c.38.21.1.82.41,1.04.62.44,2.81.34,3.64,1.22l.65-.57c-.33-1.49.23-1.86,1.69-2.02,1.75-.19,1.35.52,1.75.65,1.1.35,4.7,1.26,5.65,1.27.63,0,1.15-.57,1.94-.6,1.13-.05,2.56.98,3.52-.12.53-.6,1.83-4.33,1.31-4.85-1.03-.29-1.92.75-2.81.67-.61-.06-1.5-.93-2.04-.99-.08,0-.24.98-1.32.83-.3-.04-.59-.53-.94-.46s-.68.75-.88.62c-.04-.02.04-.46-.08-.53-.17-.1-.49.13-.74-.13-.14-.15-1.15-1.42-1.18-1.51-.36-.9,1.13-.13,1-.83l-.89-.31-.11-1.49c-1.22-.82-1.07,1.41-2.66.8.65.87,2.38,1.6.96,2.47-.3.18-.88.14-.96.22-.15.14.68.93-.17,1.3-.71-.36-1.13-1.12-1.63-1.55-.18-.16-.69-.04-.8-.17-.09-.11-1.24-2.45-1.27-2.59-.29-1.11,1.06-1.5-1.06-2.25s-2.5-.71-4.39-2.3c-.29-.24-.34-.76-.37-.78ZM218.23,66.1c-.2-.25-.73-.35-1.04-.78-.75-1.05-1.18-2.3-2.18-3.16-.32-.41-.93.09-1,.36-.15.58,2.09,5.11,2.99,5.41l.37,3.06.97.02c-.61.77.89.97.7,2.3,1.05-.01,1.34-.08,1.6,1.01l-.64.36,3,2c.1-.12-.64-2.7-.77-2.93-.18-.32-1.94-.66-.22-1.23-.41-1.3-2.21-2.39-2.68-3.07-.6-.87-.29-2.33-1.09-3.33Z"/>
        <path d="M249,13c-.18.64-1.03.79-1.59.91-2.06.46-4.29.34-6.41.93-.66.18-5.15,2.27-5.3,2.53-.57.99,1.13,1.73,1.96,1.63.85.83-3.71.34-4.09.25-.42-.09-2.09-.78-2.24-1.09-.28-.56,1.28-.58,1.4-1.26l1.26-.23-.32-.64,2.44-1.41c4.19-1.03,8.55-1.32,12.88-1.61Z"/>
        <path d="M277.98,9.03l.18.91,2.17.07c-.49,2.13-3.33,1.15-5.13.97-.6-.06-1.28-.53-1.7-.51s-.85.56-1.31.56c-.07,0-.4-1.07-1.19-.69-.82-.68,2.57-1.53,2.92-1.58,1.48-.2,2.62.02,4.06.27Z"/>
        <path d="M318.26,13.73c.83-.11,1.29.2,1.91.2s4.83-.28,4.82.57c-1.14,1.05-2.87.49-4.13.53-1.41.05-2.92.8-4.19-.53,0-.3,1.24-.73,1.59-.77Z"/>
        <path d="M285.33,11c.55.51-.06.58-.5.65-1.22.19-3.32-.35-3.64.64l-1.86-.3c.4-.55,2-1.51,2.58-1.61,1.12-.19,2.28.64,3.42.61Z"/>
        <path class="uuid-abded51e-cac4-40d4-ba29-dba7bdf9c55e" d="M193.31,44.35s.09.54.37.78c1.89,1.59,2.29,1.56,4.39,2.3s.77,1.14,1.06,2.25c.04.14,1.18,2.48,1.27,2.59.1.13.62,0,.8.17.5.43.92,1.2,1.63,1.55.84-.37.02-1.16.17-1.3.08-.07.67-.03.96-.22,1.41-.87-.31-1.6-.96-2.47,1.59.61,1.45-1.62,2.66-.8l.11,1.49.89.31c.13.69-1.35-.07-1,.83.04.09,1.04,1.37,1.18,1.51.25.26.57.03.74.13.12.07.04.5.08.53.2.13.54-.56.88-.62s.65.42.94.46c1.08.15,1.24-.84,1.32-.83.54.06,1.44.93,2.04.99.88.09,1.77-.96,2.81-.67.52.52-.78,4.25-1.31,4.85-.96,1.1-2.38.07-3.52.12-.79.03-1.31.61-1.94.6-.95,0-4.55-.92-5.65-1.27-.4-.13,0-.84-1.75-.65-1.46.16-2.02.53-1.69,2.02l-.65.57c-.83-.88-3.02-.78-3.64-1.22-.32-.22-.04-.83-.41-1.04-.7-.39-2.1-.18-2.88-.39s-1.31-1.03-2.24-.93l1.34-.67c-.5-.93-.72-1.64-.34-2.66-1.45.31-3.17.01-4.57.1-1.51.09-4.02.31-5.5.66-1.62.39-5.48,2.58-6.26.24.98-.48,2.19-.15,3.09-.41.97-.27,1.55-1.72,2.57-1.94-1.71-1.99,1.9-2.44,2.7-3.16.46-.42-.11-1.11.28-1.34.94-.57,2.01.24,2.85.17s1.92-1.26,2.68-1.29c1.81-.07.72,1.2.84,1.3l6.03,3.25-.04,1.42h-3.66s2.83,1.67,2.83,1.67c.39-1.18,1.41-1.74,2.5-2.34l-.66-1.33,1.99.16c-.3-.4-.68-.65-1.1-.9-1.83-1.09-2.44-.84-4.06-2.6-.42-.45-1.43-.5-1.16-1.49.07-.26.71-.68.98-.49ZM189.66,51c-.08-.48.08-3.99-.5-3.99l-.85.55.35,1.44-.67-.17v2.16s1.67,0,1.67,0Z"/>
        <path class="uuid-abded51e-cac4-40d4-ba29-dba7bdf9c55e" d="M212.63,44.04c.05.05-.3.44-.22.56l1.14,1.1c1.35-.38,2.03-.93,3.54-.62.73.15,5.03,2.66,4.58,3.25-1.94.89-4.17.48-6.17-.07-.18-.05-.12-.59-.35-.6-2.1-.06-5.19,1.76-6.93.7-1.47-.9,2.12-3.88,2.51-4.97.23-.1,1.84.57,1.91.65Z"/>
        <path class="uuid-abded51e-cac4-40d4-ba29-dba7bdf9c55e" d="M218.23,66.1c.8,1,.49,2.45,1.09,3.33.47.69,2.27,1.78,2.68,3.07-1.72.57.04.91.22,1.23.13.23.87,2.81.77,2.93l-3-2,.64-.36c-.26-1.09-.55-1.02-1.6-1.01.18-1.33-1.32-1.52-.7-2.3l-.97-.02-.37-3.06c-.91-.3-3.14-4.82-2.99-5.41.07-.27.69-.77,1-.36,1,.86,1.43,2.12,2.18,3.16.31.43.84.53,1.04.78Z"/>
        <path class="uuid-abded51e-cac4-40d4-ba29-dba7bdf9c55e" d="M204.67,24.34c-.51,1.87-2.7,1.54-3.98,2.49.52.8.76,1.59.27,2.46l-1.62.04c-.11.81,0,.53.46.7,1.23.46,2.59.27,3.87.3-.12.61-1.7.37-1.92,1.06-.08.25.33.58.21.88-.03.07-.91.3-1.08,1.05-.19.83.62,1.71-1.44,1.95-.62.07-1.2-.31-1.89-.26-.88.06-2.27.94-3.11.92-.7-.01-.91-.81-1.26-.85-.31-.03-1.2.84-1.84.58.41-.98,2.09-.78,2.75-1.02.28-.1.22-.51.5-.62,1.95-.74,2.23.48,2.5-2.61l2.58-.75c-.46-.95-1.26-1.48-2.34-1.33-.06-2.49,1.99-2.36,3.55-3.13.73-.36.54-1.25.99-1.47.83-.41,1.89-.42,2.8-.39Z"/>
        <path d="M189.66,51h-1.66s0-2.16,0-2.16l.67.17-.35-1.44.85-.55c.58,0,.42,3.51.5,3.99Z"/>
      </g>
    </g>
  </g>
</svg>