<?xml version="1.0" encoding="UTF-8"?>
<svg id="uuid-d8a4e6e1-5813-4ffe-8b98-772b742031df" xmlns="http://www.w3.org/2000/svg" version="1.1" viewBox="0 0 360 180">
  <!-- Generator: Adobe Illustrator 29.8.2, SVG Export Plug-In . SVG Version: 2.1.1 Build 3)  -->
  <defs>
    <style>
      .st0 {
        fill: #FFFFFF;
        fill-opacity: 200;
      }
    </style>
  </defs>
  <path class="st0" d="M165.21,0c-1.38,5.64-3.91,10.87-6.01,16.24-.7,1.8-1.25,3.99-2.01,5.8-.33.79-1.63,2.5-1.77,2.99-.29.99.12,2.19-.15,3.24-.25.96-2.59,3.81-3.24,5.6-1.28,3.56-.87,6.97-3.14,10.44-1.13,1.72-1.41,2.2-2.42,4.03-.25.45-2.45,2.95-2.78,2.88-.44-.09-1.14-1.3-1.76.05-1.08,2.33,1.43,1.84.69,4.09-.21.63-3.11,4.33-3.75,5.08-.47.55-1.53,1.06-1.71,1.35-.56.9.32,1.86.14,2.49-.13.46-.98.65-1.33,1.07-.94,1.13-3.17,5.27-3.59,6.6-.5,1.63.49,4.52.16,6.62-.27,1.76-2.01,3.95-2.29,5.19-1.12,4.92,2.66,12.42-6.53,9.95-.17,1.05.27.54.85.67,1.21.26,3.85.3,4.71.7.7.32-.11,1.61-.98,1.69-.75.07-2.05-.72-2.82-.27-.19.11-.53,1.24-.94,1.61-.45.41-1.15.42-1.53.84-.44.49-.4,1.49-.73,1.82-.36.36-1.83.34-1.96.94-.1.46,1.1,1.58.33,2.53-1.03-.7-1.6-3.09-2.52-3.76-.56-.4-1.27-.5-1.9-.15-.68.38.33.78.34,1.36.01.54-.62,1.1-.68,1.73-.07.74.55,1.6.18,2.18-.7,1.09-2.62-1.47-3.57-1.36-.44.42,2.21,2.83,2.33,3.29.07.26-.91,2.67-1.02,2.77-.45.4-7.8-1.62-9.14-.97.07,2.22,3.17,1.9,4.83,2.47,1.47.51,5.93,2.37,6.57,3.64.44.88-.66,1.44-1.55,1.22-1.39-.36-3.69-1.87-5.34-2.51-.38-.15-.89-.75-.95-.75h-5.78c-.11,0-.63.69-.84.85,1.26,1.07,2.15-.28,1.35,1.87l2.04-.34-.34,1.35c1.2-.06,5.77,1.13,5.74,2.5-.03,1-3.56,2.77-4.57,2.91-1.91.27-5.25-.85-6.36-.59-.98.23-2.02,2.53-2.76,3.03-1.24.82-6.11-1.04-8.01-.36-.97-3.03,3.45-4.66,4.25-6.46.4-.89-.08-2.04.34-2.72.26-.42,1.28-.52,1.7-1.02.53-.64.37-1.56.84-2.22.43-.6,2.14-1.25,2.55-1.87.73-1.12.3-3.53.59-4,.13-.21,2.11-.6,2.5-1.41.5-1.03-.08-2.8.32-4.1.37-1.21,2.59-2.41,2.91-3.21.3-.74-1.17-.58-1.53-1.18-.54-.89.15-4.22.83-4.96.6-.65,1.5-.28,1.74-.71,1.38-2.41-1.18-5.57,3.06-8.76.94-.7,4.94-2.22,5.11-2.45.49-.68.55-4.88-.2-4.88h-5.95c-.31-2.29,1.61-3.2,1.95-5.35.52-3.26-1.13-5.73.76-9,1.67-2.87,7.92-9.73,11.16-10.68,1.73-.5,5.03-.45,6.51-1.31s2.05-4.87,1.7-6.37c-.06-.24-.55-.24-.64-.5-1-3.23.52-3.18.96-5.71.35-2,.72-6.83.66-8.82-.04-1.32-2.13-5.56-2.52-7.61-1.01-5.28.04-10.5,1.96-15.4.13-.33.55-1.04.1-1.26-2.04,1.24-1.47,2.57-1.94,4.17-.18.59-1.02.97-1.22,1.84-.21.95.12,2.06-.14,2.92-.16.51-.88.73-.96,1.43-.05.51,1.58,9,1.87,10.02.31,1.1,1.83,3.75,1.88,4.26.07.71-.6,1.46-.7,2.35-.2,1.81.54,4.8.29,6.04s-1.86,1.82-1.99,2.82c-.29,2.16,2.74,5.72.68,7.44-3.21,2.68-8.48,1.66-11.33,3.62-.91.63-1.08,1.87-1.73,2.69-.89,1.13-2.4,1.69-3.25,2.62-.55.61-3,4.49-3.2,5.2-.72,2.55.28,6.14-.2,8.63-.13.66-1.4,1.86-1.82,2.94-2.07,5.4,2.57,5.27,6.58,5.39-.65,3.36-3.93,2.59-5.95,4.07-2.49,1.83-1.77,5.99-4.69,7.88-.46.3-2.75,1.36-3.1,1.28-1.47-.36-.3-7.55-.61-8.91-.28-1.27-.78-1-1.17-1.34-.04-.03-.05-.39-.21-.5-.48-.33-8.81.4-7.73.23-.56.69-.2,1.6-1.8,2.44-4.15,2.18-4.97-1.72-5.29-5.03-.66-6.75,2.82-8.73,4.78-14.16.52-1.43.56-2.92,1.12-4.31.84-2.08,2.42-3.09,2.85-5.64.67-3.88-.63-7,2.58-9.98.74-.68,1.86-.33,1.53-1.69-6.44,1.11-3.8,7.43-4.99,11.49-.37,1.25-1.73,2.54-2.32,3.79-.89,1.88-1.22,4.14-2.05,6.11-2.46,5.84-5.48,7.22-4.53,14.39.65,4.88,1.18,7.9,7.09,6.67-.05.31,4.42-3.4,4.42-3.4.1-.02.37-.32.82-.35,1.19-.09,2.41.08,3.6.01,1.07,3.6-.68,7.52-.71,11.04-.01,1.56.71,3.25.74,4.75.04,2.29-2.23,4.31-3.79,5.75-.35.32-.65,1.16-.84,1.22-1.06.33-.93-.87-1.51-1.54-1.15-1.33-2.24-2.4-4.06-1.5-.91,1.42,4.62,2.63,4.01,4.83-.05.19-1.88,3.16-2.04,3.26-1.23.71-4.8-3.99-5.39-3.35-1.11,1.23,6.72,5.97,6.4,7.55-.1.52-1.68,3.13-2.2,3.29-.85.26-1.93-1.37-3.71-.33-.31.18-2.41,2.37-2.68,2.76-.7,1.03-.9,2.66-1.71,3.38-.87.78-1.73.47-2.55.85-1.07.51-5.26,3.53-6.14,4.5-.41.45-3.45,4.56-3.55,4.85-.53,1.57-.75,9.22-.53,11.03s2.75,3.01,1.28,4.49c-1.87,1.89-2.29-1.89-3.07-2.53-1.79-1.48-3.76,1.17-5.51,1.29-1.47.1-2.3-1.01-3.4-1.08-1.21-.07-2.44.79-3.7.69-1.42-.1-2.95-1.38-4.46-1.38-.53,0-3.69,1.17-3.91,1.4-1.23,1.27,2.67.06,2.92.03,2.73-.28,3.89,1.19,6.08,1.26,1.74.06,5.18.16,6.79.08,1.32-.07,3.17-1.34,4.38-1.06.18.04,1.52,2.83,1.58,3.28.17,1.38-1.06,4.1-1.31,5.78s-.07,3.93-.46,5.65c-.15.65-1.68,3.72-2.02,3.92-.97.58-3.15-.9-4.22-.94-1.41-.06-1.9,1.18-2.95,1.76-1.18.64-2.95.99-3.97,1.81-2.51,2-2.17,6.83-1.62,9.75.22,1.18.83,2.15.93,3.31H0V0h165.21"/>
  <path class="st0" d="M180.17,0l9.98,4.37,2.93-4.37h.68c1.34,2.03,3.93,3.36,3.44,6.08l17.3,5.81c.62.28.19,1.11,0,1.54-.33.8-2.74,3.89-3.39,4.43-.49.41-1.65.37-1.38.98,1.05,2.41,2.71-1.67,2.9-1.85.41-.4,1.08-.32,1.49-.89.32-.43.93-2.77,1.05-2.86.26-.19,1.69,1.04,2.38.68.54.52-2.19,3.55.5,2.37.8,1.4-1.08,1.31-1.86,1.88-2.41,1.76-1.8,3.64-2.45,5.71-.23.73-1.03.68-1.29,1.17-.37.68-.46,4.24-1.63,2.21-.78-1.36-.1-3.37-.76-4.85-.6-.14-1.01.73-1.48.65-1.42-.25-2.08-2.77-2.23-2.88-1.09-.75-2.38.95-2.06-3.02.22-2.86,2.27-5.52-.51-7.99.03,1.62.7,2.41.48,4.22-.16,1.33-1.68,3.53-1.68,3.76,0,.68,1.42,1.59,1.04,3.06-.05.21-2.47.02.16,2.21.73.2.29-.83.98-.66.43.11,1.81,1.16,1.87,1.56.05.31-.59.92-.67,1.63-.23,2.05.74,4.25.69,5.11-.02.46-.54.77-.6,1.08-.1.52.59.97.54,1.57-.04.52-.67,1.03-.64,2.09.05,1.22.89,1.85,1.3,2.81.2.47,0,1.17.27,1.77.83,1.94,3.78,1.81,4.74,2.73,1.04.99,1.25,3.06-.67,3.08-.28,0-1.93-2-1.52-.55.61,2.16,5.3,1.99,5.43,4.59-1.5.35-2.13-.92-3.16-1.43-1.13-.55-2.36-.96-3.53-1.56-.99-.51-1.3-1.39-2.66-1.45-.53-.02-4.65,1.11-5.04,1.35-.62.39-.56,1.73-.57,2.41-.84,0-1.53.26-1.97-.57-.07-.14-.74-2.84-.74-2.99v-6.62c-.5-.07-.52.92-.58,1.28-.44,2.65-.65,2.38-1.39,4.4-.46,1.26.75,1.68-1.77,1.45-.31,1.21.63,2.14.69,3.22s-2.87.21-3.27-.13c-.67-.57-.39-1.6-.49-1.71-.16-.16-1.94.19-2.71-.18-.65-.31-.81-1.5-1.37-2.02-1.08-1-3.63-1.21-4.25-3.22-.37-1.18.29-3.03-.83-3.75.06,2.33-.54,4.52,1.38,6.26.91.83,3.28,1.56,3.65,2.81.23.77.15,2.59-.43,3.16-.44.44-3.66.13-4.42,0-.82-.15-1.34-1.11-2.76-1.32-5.85-.86-3.78,4.46-8.64,4.39.49.88,1.46.38.84,1.68-.83,1.76-5.62,6.77-7.97,5.43-.48-.55,1.72-3.65,2.21-4.05s1.13-.31,1.18-.35c.25-.21-2.11-5.43,2.37-3.9-.59-1.66-3.9-2.29-4.34-3.81-.17-.61-.37-3.44-.42-4.33-.4-7.04.36-11.44,3.97-17.46,1.45-2.41,4.8-5.56,4.21-8.7-.31-1.62-5.74-2.33-5.81-2.74L171.33.02h8.84v-.02Z"/>
  <path class="st0" d="M222.32,0c2.19.48,1.05.89,1.37,2.53.14.74.92.98.51,1.87-.1.22-2.84,3.54-3.07,3.74-.4.36-.96.74-1.53.68-.51-2.03,1.53-3.6,2.03-5.27.21-.72-.49-.55-.97-.45l-3.97,7.07c-.55.81-1,1.05-1.86,1.37-5.33-2.38-11.05-3.95-16.58-5.85-.26-2.62-2.15-3.63-3.48-5.7h27.55Z"/>
  <path class="st0" d="M192.07,0l-2.2,3.69c-2.48-1.63-5.44-2.2-8-3.69h10.2Z"/>
  <path class="st0" d="M194.79,0c1.32,2.07,3.22,3.07,3.48,5.7,5.53,1.9,11.24,3.47,16.58,5.85-.11.04-.23.25-.34.34l-17.3-5.81C197.7,3.36,195.11,2.03,193.77,0c0,0,1.02,0,1.02,0Z"/>
  <path class="st0" d="M181.87,0c2.56,1.5,5.51,2.06,8,3.69l2.2-3.69h1.02l-2.93,4.37-9.98-4.37h1.7-.01Z"/>
  <path class="st0" d="M228.04,60.01c-1.18.75.56,6.53.3,6.75-.09.07-.6-.05-.85.01l-6.97-14.11c-2.2-1.08-2.06,2.36-2.95,2.92-.32.2-2.27.69-2.65.65-1.99-.2-.34-2.33-1.18-2.9-.44-.3-5.08-.33-6.23-.57s-2.5-1.69-3.09-1.57c-.33.06-.7.68-1.15.89s-1.7.37-1.76.44c-.16.2.37,3.46-1.95,3.67-1.24.12-.64-3.09-1.65-3.69-2.13,1.29-2.78,3.02-5.6,2.04-.2.19.87,2.08.71,2.84-.09.45-2.09.41-1.7,1.71.44,1.46,2.89.45,3.03.54.68.47-.32,6.91.71,7.79.46.39,1.82-.6,2.88,0,1.34.76,1.38,2.11.84,3.42-1.14-.28-.34-2-.88-2.41-1.61-1.2-2.99,1.7-4.32,1.35-.88-.23-1.79-2.16-2.62-2.67-1.29,2.33-4.67,3.1-6.91,1.71-.31-.2-.2-.66-.23-.69-.12-.11-.68-.06-1.03-.49-1.67-2.05-.97-4.05-.33-6.31-1.1.86-1.61,4.29-2.98,1.79-1.27-2.32-.37-3.06-4.16-2.13.22-.76,3.16-2.78,2.72-3.39-.85-.11-1.54-.69-2.36-.88-.51-.11-1.07.25-1.48.14-.72-.19-.62-1.17-1.96-.83-.38.1-4.55,4.89-5.27,5.64-.35.36-.45.99-.5,1.02-.38.27-2-1.72-3.3-.59-1.43,1.24.8,2.67.57,3.44-.07.24-3.18,2.7-3.72,3.27-.24.54-.58,1.13-.68,1.36-.11.26.01.67-.31,1.2-1.87,3.09-5.2,5.68-5.81,9.66,1.41-.15,2.41-1.28,3.94-1.32,4.2-.1,5.23,4.49,8.89,5.64l2.8,2.14c-.33.07-1.26-.1-1.36,0-.2.2.43,1.99-.33,2.04-.4-.76-1.25-2.82-1.8-3.29-.61-.51-1.95-.54-2.8-1.11-1.68-1.13-3.01-4.61-6.1-4.41-3.4.23-2.81,5.41-3.34,7.55-.31,1.25-.96,1.95-1.37,3.04-.62,1.66.04,3.47-2.28,3.33l1.36,2.2c-1.31,1.48-1.9-.8-3.25-1.16-1-.27-3.33-.41-4.21.17-1.39.91-5.1,10.15-6.65,12.03-1.09,1.15-1.58-1.54-2.86.2-1.53,2.08,2.49,4.07,2.7,5.42.1.65-.02,1.53-.86,1.53-1.23-.01-.66-1.95-1.86-1.71-.56,1.47,1.26,3.8,2.65,2.99.6-.35,1.63-3.2,1.77-3.33.82-.75.63.97.68,1.02.21.21,1.83-.55,2.04-.34.36.38-1.53,3.25-2.06,3.56-.12.06-2.21,1.04-2.34,1.06-.58.08-1.48-.24-1.73-.07-.21.15-1.69,3.61-2.37,4.45-1.47,1.8-3.48,2.01-5.09,4.08-3.13,3.99-2.91,11.24.66,14.94s10.05,2.73,12.94,7.45c.49.8.4,1.95.77,2.46.66.89,3.36,1.16,2.62,3.49-1.14-.03-2.11-1.01-3.22-1.03-1.84-.04-5.44.63-4.55,3.18.22.62,4.97,2.31,5.9,2.29,1.42-.04,2.5-.86,3.77-1.02,1.48-.19,2.52.3,3.68.27,2.72-.06,7.76-1.74,10.92-2.01,1.8-.16,3.81.54,5.61.68.33-3.71-4.13-2.62-6.87-3.16-.61-.12-1.9,0-1.63-.92h9.69c.28,0,1.96,2,3.41,2.06,3.24.13,1.29-3.26.31-4.76-1.14-1.75-4.55-4.4-5.24-5.97-.52-1.18,1.96.34,2.28.44,1.48.45,2.72-.04,3.85,1.93.65,1.13.13,4.09.32,4.27.24.24,5.96-.2,5.44,2.72h-1.7c.23,2.67,6.91,1.97,7.99,1.02.18-.16.73-1.34.78-1.62.16-.94-1.72-9.15-2.32-9.75-1.15-1.14-2.92.28-4.27.48-1.67.24-5.71.68-7.07-.02-1.01-.52-2.3-2.4-1.06-3.35.98-.22.69,2.55,2.43,2.68.75.05.56-.88,1.03-1,.55-.15,2.31.16,2.48,0l-2.04-4.41c.69-.12,1.51,1.31,1.78,1.78.4.69,1.06,2.8,1.48,2.94,1.28.44,2.88-2.04,2.88-3.2,0-.93-1.86-.71-2.57-1.53-.6-.7-.36-1.64-.7-2.36-.37-.78-4.34-3.08-5.33-3.77-.21-.14-.88-.72-.95-.99,2.85.2,5.27,3.69,7.99,3.74,1.78.03,1.63-1.22,2.55-2.21.65-.7,3.39-3.12,3.39-3.74-.01-1.49-3.75-3.5-3.74-5.27l3.4,2.88c2.36.89,1.33-1.43,1.84-2.23.49-.76,3.13.47,2.58-2.02.33-.36,1.84,1.49,2.55,0,.64-1.34-.84-1.81-.86-3.05l3.57,2.37c.42.7-.16,2.11.49,2.58.27.2,1.61-.23,2.22-.23.56-.01,1.26.36,1.66.29.59-.11,1.12-1.38,1.81-1.57.91-.25,2.65.51,3.82-.07.32-2.38-2.42-6.11,1.55-6.45,1-.09,3.82.45,2.08,1.07-2.13.76-3.99-.3-3.12,3.38,1.24,5.24,13.66,8.33,14.1,10.06.24.97-3.1,3.57-3.86,4.55-.47.61-2.38,3.66-2.54,4.26-.19.72,1.83.74,2.45,1.14s.28,1.42,1.59.86c.2-.08,2.56-2.12,2.64-2.28.81-1.62-1.74-5,2.29-6.04,2.34,5.3,2.21.15,3.73-1.37,1.01-1.01,5.03-1.98,5.46-2.7.68-1.13-.34-3.15-.17-4.42.79.54,1,1.63,1.7,2.38h0c-.1.49.35.29.34.35-.16.8.12,1.95-.02,2.87-.32,2.04-1.36,1.18-2.55,1.87-.57.33-3.48,2.63-4,3.14-.24.23-.71.29-.57.79l2.03.87c.45.93-1.22,1.16-.67,2.01.34.53,3.69.14,4.67.6s1.09,1.6,1.44,2.47c.07.17.45.36.6.91.37,1.33.42,3.13.42,4.52,2.47.17,5.23-.25,7.65,0,1.4.14,2.51.87,3.73,1.02,2.27.28,4.52-.57,6.8-.36,1.48-.04,1.57-2.98.86-3.56-.31-.26-3.14-1.44-3.4-1.19-.32.97,1.04,3.4-.51,2.72-.47-.2-.44-1.16-.86-1.52-.55-.47-2.46-.48-2.9-1.19-.69-1.12,1.06-3.31.88-4.57-.13-.91-3.86-4.22-.78-3.67l2.3,2.45c1.59-1.67,2.49-3.92,3.92-5.77.85-.18,1.02.99,1.86,1.02.33-.08,1.58-3.87,2.04-.34,1.51-2.29,1.98-.59,3.37-.68,1.05-.07,2.56-1.46,3.94-1.02-.5,3.8.9,1.69,2.06,2.52.42.3.29,1.35.48,1.9.76,2.16,2.65.98,4.28,1.5,1.53.49,2.18,2.69,4.52,1.5.51-.26,4.35-3.38,4.48-3.7.23-.53-.96-3.06-.17-3.72.9-.75,1.24,1,1.53,1.35.64.78,5.38,2.34,5.97,1.9.11-.09.99-2.56,1-2.78.06-.98-2.35-2.73-.81-3.17,2.33-.66,3.52,2.55,4.27,2.96.48.26,1.36-.13,1.98.23.72.42.24,1.95,1.51,1.53,1.65-2.63,2.63-4,2.24-7.3-.11-.95-2.96-1.24-3.03-3.72,0-.28.29-1.88.45-1.88,1.45.03.54,2.32.92,2.99.19.31,2.57,1.16,2.92,2.34.3,1.02-.64,5.79,1.71,4.45,1.63-.92-1-4.55.92-6.05,1.38-.43,1.34,3.14,3.69,2.35.87-.29.51-1.76.56-2.51.04-.5-.26-.98.51-.84.52.5,4.18,3.48,4.59,3.05.84-.87-1.62-2.42-1.71-3.24-.13-1.15.88-1.68,1.67-.62,1.02,1.38.18,1.91,2.42.81-.04.9.14,1.77.86,2.37,1.46-.16.13-2.05,1.71-1.71.6.13,1.44,1.55,2.36,1.72.95,1.09.25,2.65.59,3.83.25.85,1.25.96,1.53,1.36.5.69,0,2.26.95,2.27.97-.79.28-2.13.58-3.16.19-.66,1.22-.94,1.31-1.78.12-1.16-.82-1.01-.96-1.24-.85-1.36,1.79-1,2.55-1.72.72-.67,1.61-4.82,1.83-4.96.91-.58,4.54.47,4.71.3.09-.09.52-2.74,1.36-2.04.08.06.16,1.08.38,1.42,1.88,2.92,5.26.14,6.93-1.44,2.16.76,4.43,1.35,6.64,2.05.33-.31-.93-1.79-.97-2.27-.17-1.75,4.42.01,5.19-.17.57-.13.79-1.68,1.73-1.66,1.14,0,.93,2.5,2.18,1.7.3-.2-.07-1.75,1.2-1.35.37.12.22,1.52,2.05,1.41,1.56-.09,1.77-2.12,3.57-1.73V.18h-7.48c-1.88,2-4.44,1.53-6.46,0h-2.72v2.35c1.98-.92,1.62.35,2.39.84.39.26,1.06.14,1.35.35.49.35.31,1.53.56,2.16.55,1.36,1.56,1.7.75,3.24-2.05,3.91-2.19-1.82-2.42-2.94-.45-2.22-6.48-2.87-8.42-2.61.04-2.8,4.29.17,4.76-3.39h-17.68c.6,1.64,2.69,3.2,3.31,4.68,1.14,2.72.43,6.43,1.18,9.01.21.7,2.21,2.39,2.66,3.12,1.11,1.82.58,3.33.33,5.27-1.49-.55-1.09-3.12-1.51-3.75-.22-.32-1.01-.33-1.39-.66-.31-.28-.4-.78-.74-1.03-1.03-.75-4.43-2.25-5.02-3.04-1.96-2.59.75-9.1-5.44-8.49-2.02.19-2.27.78-2.79,2.64-1.04,3.72.45,2.8,1.34,5.25.35.94.3,2,.6,2.96-.43.38-5.81-1.7-6.72-1.94-3.45-.93-4.81.28-7-3.2-1.8-2.85-2.08-5.15-1.58-8.45-1.81-.26-7.2,1.64-6.75,3.83.17.84,2.5,3.4.98,4.51-1.79,1.3-1.92-4.74-2.88-5.64l-2.91-3.38c2.01-.63,3.81,2.01,5.6,1.72.93-.15,1.69-2.36,2.8-2.68.94-.28,1.55.21,2.31.21.44,0,.9-.28,1.36-.27,1.06.03,3.37,1.23,3.57-.68h-22.44c-.73,3.09-2.93,1.9-4.86,2.45-.76.22-1.5,1.76-2.15,1.89-1.31.26-3.98-1.82-5.57-1.28v2.38c.56.54,5.38-3.21,5.1,1.02-1.53-.59-3.68.98-4.86.7-.4-.1-.56-1.49-1.38-1.35-.29.05-1.28,1.08-1.21,1.46.09.54,1.53,1.03,1.33,1.91-3.25-.85-2.58.69-4.08,2.55-.61.76-2.49,1.91-2.65,2.44-.18.6-.2,4.68-.06,5.37.15.73.8.94.95,1.43.6,1.96-1.13,2.4,2.45,2.14.62.61-2.48,3.36-2.86,4.1-1.82,3.57,1.04,5.56,2.03,8.45.87,2.55.8,7.62.47,10.34-.04.31-.56,2.49-.66,2.58-.04.03-.97.03-1.01,0-.42-.39-1.31-10.03-1.05-11.02.11-.4,1.44.09,1.04-.69-.29-.55-1.91-1.07-2.39-1.69-.64-.83-.69-2.46-1.34-3.33-.86-1.16-2.7-2.1-3.7-3.87-.6-1.07-1.35-4.2-1.84-4.78-.96-1.15-11.4-3.55-13.37-5.16-2.05-.35-1.28.68-2.38,1.3-1.33.75-2.6-.3-2.53,1.88.03,1.04.88,2.43.64,3.34-.34,1.27-3.77,2.67-3.66,3.42.2,1.05,2.11,2.05,2.37,2.5.56.97,0,3.29,1.17,3.84.88.42.2-1.51,1.04-1.68.49-.1,1.4.8,2.55.53.9-.21,1.16-1.92,2.19-1.92,1.11-.01.64,1.27.93,1.65.07.09,1.43.42,1.77,1.09.31.62.34,5.71.22,6.64-.08.7-.78.33-.72.97.13,1.33,1.57,1.7,1.71,2.91-.42.41-2.5-2.67-3.02,1.57-.09.77.34,5.01-1.39,3.86-.7-.46-.65-7.18-2.54-9.18-.82-.87-3.15-1.76-4.35-2.38-1.03-.53-2.41-.72-2.76-.97-.31-.22-.25-.95-.71-1.4-.51-.5-3.41-2.91-3.94-2.56-.27.18-1.38,2.28-1.38,2.73-.03,2.57,3.37,3.05-.15,6.28-1.62,1.48-2.57.76-2.17,3.55.48,3.28,3.55,3.66,3.99,5.55.18.77-.34,1.47-.29,2.27.03.55.48,3.67.42,3.85M180.9,122.78v.34c.22-.11.22-.23,0-.34Z"/>
  <path class="st0" d="M171.63,17.36c.86,1.32-3.95,7.37-4.78,8.9-1.74,3.22-3.23,7.25-3.36,10.91-.07,1.94.15,9.53.62,10.96.81,2.49,2.78,2.37,1.28,6.21-.63,1.61-3.51,4.22-4.07,5.78-.43,1.19.04,2.33-.45,3.63-1.59,4.21-8.33,10.25-10.1,14.7-1.57,3.95.22,4.26.2,6.96,0,1.16-.81,5.19-1.25,6.26-1.34,3.26-5.3,1.86-7.98,3.23-1.9.97-3.26,3.42-5.65,3.47-3.72.09-.7-4.48-.21-6.27.55-2,.91-4.94,1.12-7.04.31-3.12-.18-9.83.5-12.07.59-1.95,3.44-4.56,4.33-6.54,1.32-2.92,2.18-5.77,3.72-8.85,3.78-7.52,10.07-16.56,12.83-24.2.67-1.85.6-4.08,1.14-5.65.26-.76,1.82-2.41,2.35-3.42.64-1.21,3.65-8.42,4.06-8.67,1.22-.75,1.73,1.13,2.23,1.28.44.14,2.92-.44,3.47.41h0Z"/>
  <path class="st0" d="M54.39,180c1.03-2.37-1.95-7.17-1.19-8.82.39-.85,5.22-4.29,6.28-4.61,1.44-.43,3.02.24,4.28-.48,2.86-1.63,1.63-4.95,2.56-6.27.48-.68,1.54-.61,2.2-1.2,1.42-1.27.1-2.31,3.4-2.07,1.28.1,3.47,1.49,4.4,2.39.73.71,1.55,2.77,2.46,3,.78.2,5.06-1.23,5.19-1.82.43-1.92-3.03.39-3.31.46-2.03.44-1.95-1.08-2.98-1.99-.54-.48-1.76-.6-2.21-1.52,3.23-1.35.84-2.1,1-3.72.08-.85,1.1-1.11,1.3-1.78.27-.92-.04-2.18.07-3.16-1.39-.31-2.07,1.66-2.24,2.71-.46,2.91,2.75,4.83-2.68,4.41-1.93-.15-4.83-.49-5.19-2.63-.63-3.69,2.67-4.23,2.99-7.38.18-1.72-.63-2.83-.66-4.11-.02-.77.46-1.49.32-2.33-.12-.73-.88-.95-1.03-1.72-.91-4.67,1.22-9.7,5.7-11.62,5.58-2.39,6.13,2.2,10.45,1.97,1.84-.1,4.99-1.8,7.16-2.04,1.66-.18,2.99.57,4.65.24,1.44-.29,2.65-1.84,3.96-2.15,1.71-.41,3.61.1,5.27-.17,2.03-.32,4.89-2.81,7.32-1.16,1.49,1.01,1,8.93,1.6,11.3.7,2.75,6.72,8.33,6.08,10.93-.53,2.16-5.6,8.21-7.32,10.04-1.07,1.14-3.07,2.3-4.1,3.47-2.17,2.46-3.87,6.74-6.47,8.72-.78.6-1.68.75-2.54,1.53-.88.8-1.93,2.97-2.68,3.44-.72.46-1.55.17-1.85.36-.12.08-.37,1.33-.73,1.82-.67.93-3.1,3.41-4.24,3.24-2.54-.38.84-1.9,1.2-2.21.54-.46,2.82-2.83,2.7-3.39-.36-.45-1.94-1.16-2.38-1.21.31-1.78-2.87-1.97-3.55-1.34-1.07.98-1.94,3.97.15,4.39-.17.39.14.81-.49,1.72-1.47,2.12-4.13,3.06-5.97,4.74h-28.9l.02.02Z"/>
  <path class="st0" d="M360,131.77v2.72c-3.72,1.28-7.4,2.78-11.14,3.98-15.35,4.92-32.04,7.02-46.83,12.3-2.22.79-4.5,2.76-6.18,3.34-2.41.83-1.27-1.33-.43-2.47,2.21-3,12.1-7.13,15.84-7.95,1.08-.23,2.37.21,3.44-.61.85-.64,4.64-5.38,5.09-5.5,1.08-.28,2.76,2.18,4.53,1.32.34.33-.59,2.72-1,3.15-.82.85-3.28.53-2.9,1.95,1.62-.72,4.24-.35,5.7-1.1,1.13-.58,1.04-1.9,2.16-2.6,1.21-.76,5.22-2.57,6.59-2.93,3.83-1,7.98-.57,11.73-2.55.46.68-4.23,2.55-2.71,2.72,2.45.29,4.39-3.81,6.04-3.35.47.13.95.97,1.09.97.43,0,.81-2.01,1.76-2.3,2.33-.71,2.96,1.06,4.01.98,1.18-.09.84-1.54.86-2.4l2.38.34h-.03Z"/>
  <path class="st0" d="M360,121.58v2.38c-2.65-.41-3.58-2.78,0-2.38Z"/>
  <path class="st0" d="M232.86,141.62c.13.24.51,5.22.32,5.42-.08.08-1.52.17-2.12.43-5.19,2.2-4.35,1.31-9.49,1.7-1.85.14-4.17,1.64-6.1,2.09-3.77.89-4.9,1.31-8.38,2.49-1.36.46-2.88.26-4.16.6-7.59,2.03-16.03,9.67-25.06,10.96-2.89.41-4.44-.28-7.45,1.05-1.42.62-7.26,5.15-8.27,4.14-.09-1.06.37-2.73,1.01-3.57.77-1.01,1.71-.93,2.56-1.52.72-.5,1.37-1.81,1.79-2.03.93-.5,2.28-.17,3.23-.43.57-.16.94-.81,1.8-.93,1.12-.16,2,.33,3.03.36,2.59.06,2.47-1.43,4.25-2.24,1.55-.7,3.44-.5,5.1-1.02,3.23-1.02,6.87-5.44,9.51-6.12,1.98-.52,3.81-.13,6.22-.91,1.08-.35,8.5-3.07,8.89-3.35.61-.45.49-1.22,1.05-1.67l1.52,1.02-.68-3.05c.94-.28,2.09.4,2.88.33.95-.08,1.72-1.58,2.9-1.35l-1.36,1.87c2.77.73,2.03-4.77,4.42-4.08.26,1.39-.32,2.32-.68,3.56,1.07-.05,1.35-1.02,2.48-.34.36.22.09,1.13,1.26.51,2.02-1.07.42-2.23.34-3.07-.05-.55.39-1.14.35-1.68-.09-1.16-1.78-1.04-1.7-2.21,1.82-.37,3.27,1.28,4.96,1.33,1.12.03,2.3-.65,3.64-.24.81.25.96,1.24,1.37,1.87.1.15.55.08.56.1v-.02Z"/>
  <path class="st0" d="M293.37,146.72c-.02,4.04-1.09,3.88-4.6,3.75-2.62-.1-5.47-.89-8.14-.69-6.67.51-12.04,2.91-19.04,2.71-3.42-.1-6.81-.28-10.19-.32-5.06-.07-9.46-.84-14.28-1.05-2.58-.11-5.11.19-7.66.35-.12-.61.3-.85.7-1.17.71-.57,3.82-2.51,4.6-2.56.9-.06,2.17.94,3.18,1.21,1.69.44,5.15.75,6.97.84,8.66.44,15.32-2.79,23.81-3.41,2.8-.21,7.67-.68,10.2-.68,2,0,5.49,1.21,7.82,1.35s4.38-.26,6.63-.34h0Z"/>
  <path class="st0" d="M203.59,127.74c.25.4-.36,2.6-.31,3.51.09,1.58,1.09,3.29,1.03,4.94,1.21,1.48.06-3.05.04-3.27-.11-1.35-.09-2.44.25-3.75.07-.25-.1-1.13.55-.79.84.44,1.48,5.78,1.77,7.07.22.98,1.1,2.73,1.14,3.32.06,1.04-1.06,1.39-1.29,2.42-.46,2.02.92,6.17-1.95,6.23s-.72-1.83-.51-2.92c.15-.79.36-3.2.38-4.06.13-5.08-3.63-1.27-4.81-3.11-1.12-1.73,2.11-7.47,1.04-9.96.15-.15,2.51.1,2.68.38h-.01Z"/>
  <path class="st0" d="M307.99,136.53c.27,1.64-1.42,1.78-2.17,2.35-1.04.8,1.31.81,2.01,1.37,2.91,2.33-2.48,3.9-4.28,3.61-.67-2.42-2.78-4.29-2.67-6.96,1.45-1.04,2.71.17,3.6.25.39.03,2.44-1.2,3.51-.62Z"/>
  <path class="st0" d="M268.85,137.25c.25.29-.78,7.27-1,7.58-.5.7-4.85,1.78-5.1-.65-.29-2.8,1.03-2.4,2.21-3.93,1.38-1.79.59-4.23,3.89-3h0Z"/>
  <path class="st0" d="M350.41,131.83c.12.19.14.81.05.94-.14.21-4.6,1.39-4.84,1.33-1.26-.3-.72-2.22-1.24-3.11-.29-.5-1.93-.87-1.72-1.93,1.62-.07,3.28.11,4.9-.03.92-.08,2.46-1.36,2.6.2.07.8-.79,1.63-.69,2.02.09.36.85.43.94.58h0Z"/>
  <path class="st0" d="M300.85,139.24c.08.08-.06,1.59.07,2.14.25,1.07,1.5,1.45,1.29,2.61-3.75,1.17-6.23-.97-6.12-4.75.8.53,4.59-.17,4.76,0h0Z"/>
  <path class="st0" d="M252.66,142.22c-.72-.72-.24-2.72-.5-3.74s-2.06-2.14-1.62-3.65c1.14.1,3.65-.5,4.03.92.28,1.02-.69,1.67-.63,2.62.07,1.02,1.55,2.41,1.31,3.35-.26,1.04-1.91,1.18-2.59.5Z"/>
  <path class="st0" d="M299.15,130.41c.1.89-.16,1.96.01,2.81.05.26,2.33,1.65,1.68,2.96-.69.66-5.49-1.83-5.74-2.6-.16-.48.93-2.67,1.2-2.86.64-.46,2.06-.28,2.84-.31h0Z"/>
  <path class="st0" d="M295.07,141.62c.54,1.56-1.32.9-1.66,1.4-.27.4.3,1.65-.38,2.17-.52.4-4.53.72-4.77.5.3-3.67,3.7-4.32,6.8-4.07h.01Z"/>
  <path class="st0" d="M339.68,130.83c.14-.15,1.5-.44,1.81-.43,1.99,0,1.14,2.69,2.19,3.92-.11.6-3.84,1.13-4.44.71-.71-.5.07-3.81.44-4.19h0Z"/>
  <path class="st0" d="M184.64,137.5c-1.04-.66.75-2.91,1.34-3.5.32-.32.94-.4,1.32-.72.44-.38.85-1.65,1.55-1.51.99.2.51,3.23,0,4.06-.66,1.06-3.13,2.34-4.19,1.67h-.01Z"/>
  <path class="st0" d="M325.93,125.75c.47.15.73,1.49.79,1.55.24.23,4.07-.39,3.7,1.24-.21.9-5.31,1.62-6.14,1.05s-.13-4.43,1.65-3.84h0Z"/>
  <path class="st0" d="M312.07,141.62c-.34-1.15,1.07-1.51,1.29-2.27.19-.67-.17-1.95.4-2.34.36-.25.98.21,1.47.14.52-.08,2.94-2.14,3.3-.78.22.85-2.33,2.63-3.07,3.38-1.15,1.17-1.09,2.33-3.39,1.88h0Z"/>
  <path class="st0" d="M356.6,127.02c.28.29-.14,2.12-.7,2.53-.37.27-3.2,1.6-3.55,1.57-1.74-.16-.17-1.44.02-2.04.21-.66,0-1.91.47-2.26.15-.11,3.63.06,3.76.2h0Z"/>
  <path class="st0" d="M294.05,139.59c.19.97-.27.55-.74.77-.67.31-3.14,1.34-3.65.9-.1-.08-.25-1.81-.55-2.34-.67-1.15-3.05-1.14-2.53-3.07,3.86.06,2.82,4.99,7.48,3.74h-.01Z"/>
  <path class="st0" d="M310.71,128.38l-.68,2.03c.33.07,1.26-.1,1.36,0,.14.13.13,3.61,0,3.74-1.75,1.69-4.92-7.03-.68-5.77Z"/>
  <path class="st0" d="M326.68,133.47c.27,1.63-5.04,3.09-5.44,2.71.85-6.27,1.53-2.62,3.6-2.37.67.08,1.2-.32,1.84-.35h0Z"/>
  <path class="st0" d="M292.35,138.22c-.22.21-1.18-.09-1.55-.32-.82-.5-1.06-1.78-1.51-2.5-.2-.32-.97-.11-.68-.74.25-.55,2-.78,1.36-2.55,3.1.05.88,2.77,1.09,3.87.09.44,1.91,1.64,1.28,2.25h.01Z"/>
  <path class="st0" d="M261.41,132.11c-.3,1.47.68,3.12.27,4.51-.2.69-2.21,3.04-2.99,2.28-.86-.85,1.31-3.66,1.61-4.33.13-.31.44-3.38,1.11-2.45h0Z"/>
  <path class="st0" d="M297.41,136.23c.22.38.06.84-.31,1.14-1.98,1.66-5.03-.97-4.41-3.22.25-.26,4.59,1.85,4.72,2.08Z"/>
  <path class="st0" d="M331.1,131.44c-.03,1.31-1.31,2-2.04,2.89-1.18,1.43-.76,2.74-3.74,2.21l3.91-4.41,1.87-.68h0Z"/>
  <path class="st0" d="M190.59,144.39c1.17-.37,5.07,0,4.53,1.8-.22.74-2.85.64-3.5.45s-2.32-1.85-1.04-2.25h0Z"/>
  <path class="st0" d="M271.9,138.95c1.01.62-.25,5.93-2.33,5.38-.07-1.91,1.05-3.47.68-5.43.46.07,1.31-.16,1.65.05h0Z"/>
  <path class="st0" d="M274.85,139.25c1.18-.28.58,2.31.41,2.79-.25.7-1.51,2.82-2.45,2.64-1.67-.49,1.65-4.67,2.04-5.43Z"/>
  <path class="st0" d="M212.8,131.78c.19.2-.66,4.81-.85,5.44-.18.6-.07.8-.84.67-.28-2.22-1.68-5.66,1.7-6.11h0Z"/>
  <path class="st0" d="M278.75,136.87c.13,1.86.19,4.25-2.03,4.75-.68-2.15-.74-4.59,2.03-4.75Z"/>
  <path class="st0" d="M286.23,138.57c2.85-.6,3.36,5.25.67,3.91-1.12-.56-.56-2.82-.67-3.91Z"/>
  <path class="st0" d="M305.61,130.76c.7,1.48-2.56,4.67-3.74,3.91-.45-.34-.46-.75-.17-1.21.15-.24,3.52-3.12,3.92-2.71h-.01Z"/>
  <path class="st0" d="M312.83,131.86c.34-.34,2.15-.64,2.3.09.07.35-1.32,3.44-1.91,3.54-1.62.28-1-3.01-.39-3.63h0Z"/>
  <path class="st0" d="M302.89,127.02c.18.2-1.07,4.9-1.33,5.22-.35.43-.92.16-1.39.22-.26-1.59.76-3.36,1.63-4.65.17-.25.7-1.21,1.08-.78h.01Z"/>
  <path class="st0" d="M214.46,142.6c-.24.42-3.76,2.2-3.37-.45s4.25-1.08,3.37.45Z"/>
  <path class="st0" d="M263.8,139.24c.38-1.89-.96-3.24-.68-5.09,1.32-1.37,3.62,5.01.68,5.09Z"/>
  <path class="st0" d="M311.39,138.91c-1.61.5-3.19-2.41-2.05-3.25,2.67-.29,2.66,1.09,2.05,3.25Z"/>
  <path class="st0" d="M280.69,142.18c.14-.07-.03-.79.61-.55,2.71,1.11-2.3,5.23-2.88,1.54.61-.67,1.45-.54,2.27-.99h0Z"/>
  <path class="st0" d="M328.04,131.1c-1.09,3.19-2.67.75-3.57.67-.44-.04-1.4.48-1.52.35-.21-.23-.02-1.13.56-1.3.62-.19,4.27-.08,4.53.29h0Z"/>
  <path class="st0" d="M195.81,138.57c.29,1.02-1.69,3.65-2.73,2.9-1.31-2.36.72-2.96,2.73-2.9Z"/>
  <path class="st0" d="M256.66,145.7c-.38-1.69.75-2.76,1.53-4.07.98,1.62,1.12,4.75-1.53,4.07Z"/>
  <path class="st0" d="M308.33,135.17c-2.28.32-2.41-2.33-2.04-4.07.63-.75,2.57,3.34,2.04,4.07Z"/>
  <path class="st0" d="M200.14,147.48c.3.31.6,1.8-.1,1.94-.32.06-3.14-.92-3.22-1.18-.48-1.53,2.79-1.31,3.33-.76h0Z"/>
  <path class="st0" d="M327.6,122.71c.5.42,1.23,2.08.26,2.27-.15.03-2.74-.94-2.84-1.06-.96-1.17,1.4-2.19,2.58-1.21Z"/>
  <path class="st0" d="M338.24,133.81c.03,1.91-2.07,2.62-3.74,2.37-.87-.88,2.9-2.74,3.74-2.37Z"/>
  <path class="st0" d="M342.3,125.35c.81,1.12-1.56,2.8-2.69,2.35-.49-1.48,1.81-3.57,2.69-2.35Z"/>
  <path class="st0" d="M330.08,136.53c.13.61-.33.82-.67,1.2-.26.28-1.93,1.97-2.06,2.05-.47.3-.89-.22-1.35-.19-.25-1.25,3.79-3.33,4.08-3.05h0Z"/>
  <path class="st0" d="M351.16,125.32c-.06-.61.16-3.61,1.18-3.39,1.73.37.44,3.4-1.18,3.39Z"/>
  <path class="st0" d="M261.75,145.02c-.7.78-3.05-3.26-.79-3.35,1.29-.05.67,2.6.79,3.35Z"/>
  <path class="st0" d="M348.65,125.69c1.31-.42,2.28,1.36,1.5,1.85-1.77,1.12-2.88-1.41-1.5-1.85Z"/>
  <path class="st0" d="M281.47,138.57c.59,1.01-1.81,3.66-2.38,3.05-.4-.43,1.57-3.1,2.38-3.05Z"/>
  <path class="st0" d="M356.85,124.7c2.77-.55,1.08,3.45-1.26.79.32-.36.78-.7,1.26-.79Z"/>
  <path class="st0" d="M284.53,144c.29.43.53.25.68.34.06.23.11,1.03-.17,1.02l-2.54-1.03c.2-.9,1.38-.54,2.04-.34h0Z"/>
  <path class="st0" d="M284.53,144c-.11-.16-.4-1.3-.34-1.36,1.37-.1,2.62,1,2.72,2.37-.09.09-1.48-.55-1.7-.68-.13-.47-.39-.25-.68-.34h0Z"/>
  <path class="st0" d="M315.81,132.11s-.11-.83-.37-1.16c-.45-.57-1.2-.31-.99-1.21,3.15-.67,2.46,3.22,1.36,2.37h0Z"/>
  <path class="st0" d="M346.74,124.64c-.13.18-2.56.5-2.72.34-1.33-1.38,3.78-1.82,2.72-.34Z"/>
  <path class="st0" d="M250.88,141.62c-.08.08-2.06.09-2.38-.17.47-.33,1.28-1.64,1.86-1.53.51.1.68,1.53.52,1.7Z"/>
  <path class="st0" d="M193.09,128.72c1.71-.15,1.73,1.17.5,2.03-1.29-.19-.72-1.2-.5-2.03Z"/>
  <path class="st0" d="M316.15,124.98c.23,1.13-2.18,1.84-2.38.84s1.76-.9,2.38-.84Z"/>
  <path class="st0" d="M262.43,138.23c-.14.7.56,2.92-.84,2.37-1.09-.42.36-2.98.84-2.37Z"/>
  <path class="st0" d="M304.25,128.38c.5.49-.44,2.84-1.36,2.04-.12-.1.39-2.98,1.36-2.04Z"/>
  <path class="st0" d="M305.95,135.51h-1.7v-1.02c.84-.09,1.79-.02,1.7,1.02Z"/>
</svg>