<?xml version="1.0" encoding="UTF-8"?><svg id="uuid-6771f6cb-8526-446c-a2b5-93dc22835798" xmlns="http://www.w3.org/2000/svg" viewBox="0 0 360 180"><path d="M 0 174.3 l 16 0.3 c -1.2 -1.6 -3.5 -0.8 -5.2 -1 l -5.2 -1 l 10.8 0.7 l -0.5 -0.7 h 2.3 s -1.3 0.7 -1.3 0.7 l 9.3 -0.7 c -2.1 -2.5 -5.7 -0.9 -8.5 -1 c -0.4 0 -1.8 -0.1 -1.8 -0.7 h 15.7 s -2.7 -0.7 -2.7 -0.7 l 1.3 -0.7 l -6.1 -0.8 c -0.3 -0.5 -3.2 -0.7 -2.9 -1.4 c 0.6 -1.2 5.5 -0.1 6.8 -0.3 c 0.7 -0.1 1.6 -0.9 2.6 -0.6 l -0.3 -0.7 l 3.3 0.3 v -1 s 5 0.1 5 0.1 c 1.6 -0.1 4.8 -1.1 6.1 -1.2 c 0.7 0 1.5 0.4 2.4 0.4 c 0.6 -0.1 0.5 -0.7 0.7 -0.7 c 0.7 0 2.8 1.3 4.2 0.7 l -0.2 -0.7 c 1.9 1 4.8 0.8 7 0.7 c 0.5 0 3.4 -0.3 3.6 -0.3 c 0.2 -0.1 0.5 -1.1 1.6 -0.6 l -0.7 0.7 c 1.3 0.2 1.7 -1 2.9 -0.4 c 0.5 0.2 0.3 1.1 1.5 0.8 c 0.1 0 1.2 -1.8 2.2 0 l -0.7 0.3 l 10.7 0.3 c 0 -0.6 -0.9 -0.5 -1.4 -0.7 c -0.2 -0.1 -0.2 -0.5 -0.4 -0.5 c -0.6 -0.4 -1.5 0.1 -1.9 -1.4 c 0.5 -0.4 4.2 1 4.7 -0.3 c -0.2 0 -4.5 0.2 -3.3 -0.7 c 1.9 0.1 4 -0.2 5.8 0 c 1.2 0.2 1.1 0.8 1.4 0.9 c 0.8 0.3 2.4 0.3 3.3 0.4 l -0.2 -0.7 c 1 0.4 2.4 0 3.1 0.1 c 0.5 0.1 1.1 0.6 1.6 0.7 c 0.8 0.1 5.7 0.7 5.9 0.6 l -0.3 -0.7 c 1.9 -0.5 3.9 0.5 5.8 0.7 l -0.5 -0.5 c 1.1 -1.3 2.3 0.1 3.5 0.1 c 0.2 0 1.6 -0.2 1.5 -0.6 h -2 s 0.3 -0.7 0.3 -0.7 c -0.2 -0.1 -3 0.7 -2.7 -0.7 l 4 -0.5 c 0.7 -0.6 -1 -1.4 -1.3 -1.2 c 0.7 -1.4 3.2 -1.6 3.6 0.1 l 0.7 0.2 l 0.2 -1 l 1.2 0.3 v -1.7 s -2 -0.2 -2 -0.2 c 0.9 -1.3 2 -0.8 3.3 -1.2 l -0.3 -1 l 1.5 0.3 l 1.1 -1.6 c 1.4 -0.1 3.2 -0.2 4.6 -0.4 c 0.1 0 1.6 -0.8 2.7 -0.8 c 0.3 0 1.6 0 1.5 0.5 l -2 0.4 l -0.2 1 c -1 -0.1 -1.3 -1.2 -1.7 0 l -2.8 0.4 l 1 0.7 c -0.5 1.2 -2.1 0.6 -2.8 0.7 c -0.1 0 -1 0.9 -1.3 1.1 l 0.1 1.3 c 1.6 -0.9 1.2 0.1 1.6 0.5 c 0.3 0.2 1 -0.3 1.4 0.3 l -0.7 0.3 c 1.3 0.6 1.4 1.7 1.7 3 c 1.9 -0.1 0.1 0.6 -0.1 0.8 c -0.1 0.2 0.1 0.6 -0.2 0.8 c -0.7 0.5 -1.5 0.2 -2 0.4 c -2.1 0.7 -4.5 1.5 -6.9 1.8 s -4.8 -0.1 -7.1 0 c 0 0.5 1.2 0.6 1.5 0.6 c 0.9 0.1 1.9 -0.1 2.8 0.2 c -0.7 1 -2.5 -0.1 -2.3 1.2 l -0.8 -0.7 l -2.2 0 l 0.7 0.5 l -1.3 0.2 l 2.4 0.5 c 0.3 2.5 3.9 1.2 5.5 1.2 c 0.5 0 0.9 0.5 1.4 0.5 c 2.5 0.2 4.9 0.6 7.4 0.5 l -1.3 0.7 h 3 s -2.3 0.3 -2.3 0.3 v 0.3 c 0.5 0.3 1.2 0 1.4 0 c 0.3 0.1 0.1 0.6 0.7 0.7 c 1.4 0.1 4.6 -1.1 6.3 -1.4 s 5.5 -0.6 7 -0.3 c 0.8 0.1 1.3 0.7 2 0.7 c 1.3 0 3.2 -1.3 4.6 -1.4 l 8.9 -0.6 c -1.1 -1.7 -3.6 -0.8 -5.3 -1 c -0.1 -0.5 0.5 -0.2 0.6 -0.4 s -0.2 -0.5 0.1 -0.8 c 1 -0.9 6.3 -1.8 8 -2.1 c 4.1 -0.6 7.8 0 11.5 -2.1 c 0.6 -0.3 3.9 -2 4.1 -2 c 0.5 0 1.1 0.7 1.5 -0.3 l -1 -0.7 l 1.5 0.4 l 0.4 -0.7 l 2.8 0.7 l -0.3 -0.7 l 1.8 -0.3 l 0.3 1 l 2.5 -0.4 c -0.3 -0.5 -0.2 -1 0.5 -1 l 0.8 0.7 l -0.7 0.7 c 1.7 -0.1 2.4 0.2 4.1 -0.4 c 1 -0.3 3 -0.8 4.3 -0.8 c 3 -0.2 5.4 0.4 8.4 0 c 2.3 -0.3 1.5 0 3.1 0.2 c 0.6 0.1 1.4 -0.5 2.2 -0.3 l -0.3 0.7 c 0.9 0.5 2.4 -0.7 2.8 -0.6 c 1.1 0.1 3.1 0.8 4.3 0.8 c 2 0 4.4 -1.3 6.6 -0.9 l -0.3 -1.3 c 1.1 -0.3 1.7 0 2.7 0.4 c 0.7 0.3 1.8 1.1 3.1 0.3 c 0.3 1.5 1.2 -0.5 1.9 -0.8 c 0.4 -0.2 6 -1.6 6.3 -1.6 c 0.9 0 1.6 1 2.1 -0.4 l 1.8 0.3 l 0.2 -0.9 c 4 -1.5 5.8 0.8 9 1.2 c 1.6 0.2 9.5 0.1 10.1 0.5 s -0.6 3.2 -1 3.6 c -0.1 0.1 -1.5 0.2 -1.7 1.4 l 0.7 0.2 c 0.6 -1.8 4 -0.1 3.7 -3 l 0.8 0.3 c 0.6 -1.2 2.1 -0.5 3.2 -0.7 c 1.6 -0.3 2.5 -1.3 3.2 -1.6 c 1.5 -0.6 4.3 -0.5 6.2 -1 c 0.3 -0.1 0.3 -0.7 0.4 -0.6 c 4.2 0.5 7.3 -0.2 11.3 -0.3 c 1.1 0 4.1 1.3 3.5 -0.7 l 2.5 0.3 l 0.4 -0.7 l 0.2 0.7 c 1.6 0 6.1 1.4 7.3 0.9 c 0.1 0 0.1 -0.6 0.7 -0.8 c 1.8 -0.5 2.8 0.1 4.4 0.6 c 0.3 0.1 0.3 0.6 0.5 0.6 c 2.6 0.6 7.4 -0.8 9.9 -0.9 c 0.6 0 1.4 0.9 2.3 0.9 c 0.9 0 1.2 -0.7 1.8 -0.9 c 1.9 -0.6 11 0.3 13.5 0.6 c 0.4 0.1 0.8 0.3 1.2 0.3 l -0.3 0.7 c 1.7 -1.1 2.7 0.6 2.9 0.7 c 0.5 0.1 5.5 0.4 6 0.4 c 0.7 -0.1 0.4 -0.7 0.6 -0.7 c 2.4 1.7 5.6 0.2 7.7 2.7 l 0.2 -0.7 l 8.7 1.2 l 0.7 0.8 c -0.7 0 -1 1 -1.7 1.2 c -0.6 0.1 -1 -0.2 -1.4 -0.1 c -0.8 0.2 -1.9 0.9 -2.9 0.9 l 0.3 0.7 h -2.7 c -0.2 2.8 1.2 2.4 3.2 3.7 l 0.7 -1.3 l 2.8 0.6 h -2.7 s 1 0.3 1 0.3 c -0.1 0.5 -0.5 0.6 -0.8 0.7 c -0.9 0.1 -5.8 0 -6.2 0.3 l 0.7 1 l -1.7 0.3 h 1.7 s -0.3 1 -0.3 1 l 8.2 2 l 10.8 1 v 5.7 H 0 v -5.7 Z M 113 162.3 l -1.3 -2 l -0.1 1.9 l -2.6 0.7 c 1.5 0.2 2.6 -0.1 4 -0.7 Z"/><path d="M 360 106 v 1 h -1.7 s 0.7 0.5 0.7 0.5 l -1.5 1.2 l -0.5 -1.5 c 0.2 -1.4 0.3 0.8 1 0.2 c 0.4 -0.3 0.5 -1.5 2 -1.3 Z"/><path d="M 302.3 71.3 c 0 1.6 0.4 2 -1 3.3 c 1.2 0.1 1.8 1.7 3 1 l -0.3 1.7 c 2.3 -0.3 1.4 1.4 1.7 2.5 c 0.1 0.3 0.5 0.2 0.6 0.4 c 0.2 0.8 0.5 3 0.1 3.5 l -1 -0.7 l 0.3 1.3 c -1.3 -0.1 -2.3 -0.5 -1.7 -2 h -1.7 c 0.3 1.8 -2.5 3.3 -4 2.7 l 0.7 0.5 c -1.5 0.4 -1.9 1.6 -0.3 2.3 l -0.7 0.5 l 1 0.5 c -0.3 0.5 -0.9 0.2 -1.2 0.5 c -0.4 0.5 -0.2 1 -0.4 1.4 c -0.2 0.4 -0.7 0.6 -0.9 1 s 0 1.8 -0.2 2.3 c -0.8 -0.5 -1.3 -0.1 -2 0.3 l -0.2 -1 l -2.3 0.3 c -0.3 -1 -0.9 -0.6 -1.8 -0.7 l 0 -1.6 l -1.3 0.3 c 0.7 -1.7 -1 -5 2.3 -3.3 l 0 -1.3 c 1.8 0.3 2 -0.9 2.9 -1.7 c 0.5 -0.5 1.3 -0.4 1.3 -0.4 c 0.5 -0.4 0.6 -1.6 0.8 -1.8 c 0.3 -0.2 0.8 0 0.9 -0.1 c 0.1 -0.1 -0.3 -0.6 -0.3 -0.8 c 0.1 -1.4 3.1 -2.9 3 -4.8 c 1.9 0.2 -0.7 1.7 0.3 2.3 c -0.9 0 -3 1.9 -2.8 2.7 c 0.3 1.7 1.9 1.3 2.2 2.6 c 1.4 -0.8 0.3 -2.2 2.3 -1.3 c -0.7 -1.1 1.3 -2.3 1.3 -2.5 c 0 -0.1 -0.8 -0.8 -0.5 -1.5 h -0.8 c 0.9 -1.1 -1.6 -2.8 -1.6 -3.2 c -0.1 -0.5 -0.4 -2.5 -0.4 -2.6 c 0.1 -0.6 1.1 -1.5 0.7 -2.5 h 2 Z"/><path d="M 229.9 106.9 c 0 0.1 -0.4 0.1 -0.5 0.4 c -0.7 2.1 -1.3 8.2 -3.9 8.3 c -1.7 0.1 -2.5 -2 -2.4 -3.4 c 0 -1 1.2 -1.6 1.2 -2.4 c 0.1 -0.5 -0.5 -1.1 -0.4 -2.1 c 0.3 -2.5 1.9 -1.6 3.2 -2.9 c 1 -1 1.1 -2.9 2.3 -3.2 c 1.1 2 1.3 3 0.6 5.2 Z"/><path d="M 326 45.7 l -0.3 0.6 l 0.6 0.4 c -0.8 0.3 -1.9 0.3 -2.6 0.6 c -0.4 0.2 -0.4 0.8 -0.6 0.8 c -0.5 0 -0.8 -0.5 -1.1 -0.5 c -2 -0.6 0 2.2 0 3 c 0 1.1 -0.8 1.1 -1 1.5 c -0.4 1 0.2 2.5 -0.8 3 c -1.3 0.6 -3.9 -0.1 -4.2 1.8 h -0.5 s -0.8 -1 -0.8 -1 c 0.1 1.4 -2.5 1.4 -2.8 1.6 c -0.4 0.4 -0.8 1.7 -0.8 2.4 l -1.3 -0.5 l 0.7 -0.3 l -0.7 -1.8 l -1.3 0.3 c 0.4 -1.1 1.7 -1.1 2.1 -1.3 c 0.5 -0.3 1.5 -1.4 2.2 -1.6 c 1.9 -0.6 3.4 0.7 4.1 -2.1 h 0.7 s 0.2 0.7 0.2 0.7 c 0.8 -0.5 2.1 -1.7 2.3 -2.6 c 0.2 -0.6 0.4 -2.6 -0.5 -2.5 c 0.7 -0.8 0.9 -1.8 2 -1.2 l 0.4 -1.5 l -0.7 -0.3 l 0.5 -0.5 c 1.1 0.1 1.6 1.2 2.6 1.5 c 0.7 0.2 1.2 -0.6 1.9 -0.1 Z"/><path d="M 354.7 126.3 l 1 -0.2 l 0.7 1.5 l 2.3 -0.3 l -0.7 2 l -1 -0.3 c 0.1 0.8 -0.7 2.2 -1.3 2.5 c -0.6 0.2 -1.4 -0.3 -1.7 -0.2 c -0.1 0.1 0.4 1.5 -1.3 1.7 l 0.3 1 c -1.8 -0.4 -1.7 1.3 -2.6 2 c -0.7 0.6 -2.5 1.1 -3.4 1.3 l 1 -1 l -1.2 0.3 l -0.5 -0.8 c 1.5 -2.7 4.9 -2.3 6.2 -5.5 l 0.5 0 c 0.3 1.5 3.9 -0.2 0.7 -0.7 l 1 -2.1 l -1.6 -2.4 c -0.3 -1.2 2.1 -0.1 1.7 1.2 Z"/><path d="M 200.7 10.7 l 3.7 1.7 c -1.6 1 -2.1 -0.3 -3.7 0.3 l 0 -0.8 l -1.5 -0.5 c -0.3 0.4 -2.5 2.3 -2.7 2.3 c -0.1 0 -2.3 -0.8 -2.6 -0.9 c -0.4 -0.2 -0.4 -0.8 -1.1 -1 s -1.8 0.2 -2.5 -0.3 l 0.6 -0.3 l -0.3 -1 l 3.9 -0.2 c 1.8 0.9 5.9 -1.6 7 -0.2 h 5.8 c 0 0.5 -1.6 1 -1.8 1 h -4.8 Z"/><path d="M 136.2 168.1 c 0.3 0.2 0.8 1.3 0.8 1.7 c -0.1 0.3 -0.7 0.3 -0.9 0.4 c -1.8 0.5 -5.5 0.7 -7.6 0.8 c -1 0 -2.4 0.3 -3.2 -0.5 c 0.8 -0.8 3.4 -0.5 4 -0.8 c 0 0 -0.3 -0.5 0 -0.8 c 0.1 -0.1 1.2 -1.1 1.3 -1.1 c 0.9 -0.2 4.9 -0.1 5.7 0.4 Z"/><path d="M 305.3 88 c -0.3 2.5 -2.5 1.6 -4.4 1.6 c -1.8 -0.1 -0.6 1 -0.3 1.8 c 0.7 0 0.5 -1.3 0.8 -1.4 c 1.1 -0.1 2.2 0.5 2.2 1.7 h 2.6 c -0.7 1.4 -4.2 -0.6 -4.7 0 l 2 3.7 c -0.6 0.1 -1.2 0.4 -1.8 0 c -0.7 -0.5 -0.9 -2.2 -1.6 -2.7 v 3 s -1.3 0 -1.3 0 l 0.3 -2.3 c -0.4 0.1 -0.7 0.7 -0.7 -0.2 c 0 -1 1.1 -4.5 2.2 -4.7 c 0.6 -0.1 1.7 0.7 2.7 0.6 c 0.9 -0.1 1 -1.1 1.9 -1 Z"/><path d="M 239.3 8 l -0.7 0.7 l 0.5 0.7 c 1.1 -1.2 2.3 -0.3 3.3 -0.3 c 1 0 2.1 -0.6 3.2 -0.3 c -0.6 1 -2.4 0.6 -3.5 0.7 c -1.7 0.3 -4.6 1 -6.3 0.6 c -0.3 -0.1 -0.2 -0.6 -0.4 -0.6 c -1 0 -2.3 1 -3.5 0.3 l 2 -0.4 l 0 -1 c 1.8 0.8 3.5 -0.5 5.3 -0.3 Z"/><path d="M 113.3 168 l -1.3 1 l 2.4 0.5 l 0 0.8 c 1.1 -0.1 2.7 0.2 3.8 0 c 0.2 -0.1 0.2 -0.5 0.5 -0.6 c 1.8 -0.8 2.8 0.9 0.9 1.3 c -0.5 0.1 -5 -0.3 -5.6 -0.4 c -0.8 -0.2 -2 -1.5 -2.7 -1.5 c -0.6 0 -2.1 1 -3.2 0.5 c -0.1 -0.8 0.1 -0.7 0.7 -0.8 c 1.4 -0.4 3.2 -0.5 4.7 -0.8 Z"/><path d="M 259.8 80 c 0.9 -0.2 3.1 3.3 1.3 4 c -1.7 0.6 -1.6 -1.7 -1.6 -3 c 0 -0.5 -0.3 -0.6 0.4 -1 Z"/><path d="M 231.7 9 c 1.2 1.5 -5 0.9 -5.7 0.7 c -0.5 -0.5 0 -0.6 0.5 -0.7 c 0.7 -0.1 5 -0.3 5.2 0 Z"/><path d="M 20.7 169.3 c 0.2 1 -0.8 0.7 -1.4 0.6 s -2.6 -0.3 -3.1 -0.5 c -0.4 -0.2 -0.8 -0.4 -0.4 -0.8 l 5 0.7 Z"/><path d="M 302 64.7 c -0.2 1.2 -0.3 2.5 -1.2 3.3 c -1.6 -0.7 -0.6 -3.6 1.2 -3.3 Z"/><path d="M 308.7 87.3 c 0.7 0.7 -0.8 0.6 -0.7 1 l 0.7 0.2 l -0.3 0.8 l 0.6 0.3 l -1 0.2 l 0.7 0.7 l -0.8 0.4 l -0.9 -0.3 c -0.3 -0.6 0.8 -4.1 1.6 -3.3 Z"/><path d="M 122.3 141.3 c -0.6 1.3 -4.8 1.4 -3.1 -0.4 l 3.1 0.4 Z"/><path d="M 331 14.7 c 0 0.5 -1.2 0.7 -1.5 0.7 c -1.2 0 -2.3 -0.5 -3.5 -0.3 c -0.1 -0.8 -0.1 -0.6 0.5 -0.7 c 1.5 -0.2 3 0.6 4.5 0.3 Z"/><path d="M 311.3 94 c -0.7 0.1 -1 -0.5 -1.6 -0.6 c -0.9 -0.2 -1.7 0.8 -2.4 -0.2 c 1.2 -1.1 3.4 -0.7 4 0.8 Z"/><path d="M 105.7 69.3 c 1 1 -3.1 0.6 -3.3 0.7 l 0.3 -0.7 l -1.6 -0.1 l -0.2 -1 c -1.2 0.1 -3 -0.6 -4 -0.7 c -0.9 -0.1 -1.1 0.9 -1.8 0.5 c 2.9 -3.8 7.4 0.2 10.7 1.2 Z"/><path d="M 111.7 71 c 0 1.5 -1.2 0.5 -2.1 0.7 c -0.6 0.1 -0.9 0.7 -1.4 0.7 c -0.2 0 -0.1 -0.6 -0.4 -0.7 c -0.4 -0.1 -1.8 0.4 -2.5 0 c 0 -0.7 0.9 -0.1 1.5 -0.7 c 0.8 -0.8 -0.7 -0.5 -0.5 -1 c 2 -0.4 3.6 0.2 5.3 1 Z"/><path d="M 104.3 65.3 c -1.1 0.3 -1.4 0.3 -2 -0.7 l 2 0.7 Z"/><path d="M 0 21 l 10.3 2.8 c -0.7 0.5 -1.5 0.8 -2.3 0.5 c -0.6 3.4 -4.4 -0.7 -6.5 0.3 l -0.6 -1 l -1 1.3 v -4 Z"/><path d="M 69.3 17.3 l 0.2 -0.6 l 2.5 1 l -0.3 -1.3 c 1.5 0.6 2.3 -0.9 4 0 l -0.7 1.5 l 0.7 1.1 l 3 0.8 c 0.7 0.4 -0.1 1.5 -0.7 1.6 l -3.5 0.1 c 1.9 0.5 3.7 0.9 5.8 0.7 l 0.6 -0.8 l -0.7 -0.5 c 1.3 -0.4 1.9 -0.8 3.3 -0.3 c -0.8 -1.4 -0.1 -1.8 1 -2.5 l -0.7 -0.7 l 0.1 -1.1 c 0.4 -0.6 4.6 -0.3 5.6 0 l -3.7 1.8 c 1.1 0.6 2.2 1.9 3.2 2.4 c 0.9 0.4 1.9 0.3 2.8 0.9 c 0.9 0.7 -0.5 0.4 -0.3 0.7 l 1.1 0.5 c 0.6 -1.1 1.9 -0.6 1.5 -2.3 c -1.9 -0.1 -4.2 0 -4.6 -2.2 c 1.6 -2.7 3.9 -1.5 6.1 -1.5 c 2.4 0 4.3 -0.4 6.9 0.1 c 0.9 0.2 0.8 0.8 1.1 0.9 c 3.1 1.1 6.8 1.1 9.4 3.2 l -0.5 0.2 l -0.2 0.6 l 6 1.7 c 0 1.5 -1.8 1 -2.2 2 c -0.9 0.2 -1.9 -0.6 -2.7 -0.9 c -0.4 -0.1 -0.8 -0.7 -1.1 0.1 c -0.2 0.5 3 1.1 3.3 2 l -1 1 l 0.7 0.5 l -2.3 -0.7 l 2 1.7 c -1.9 -0.9 -4.4 -0.8 -6.4 -1.4 c -2.5 -0.8 -4.1 -2.7 -7.3 -1.3 l 0.1 -1.3 l 4.3 -0.4 l -0.7 -0.5 l 2 -1.3 l -2.2 -0.5 c -0.4 1.1 -3.1 1.1 -2.5 -0.4 l 1.3 -0.3 l -2.3 -1 c -0.2 0.6 -0.1 1.6 -1 1.3 l 0.7 -1.5 l -2.6 0.2 c -0.4 1.3 -0.8 1.4 0 2.6 l -2.7 1.3 l 4 2 c -1.2 0.5 -2.4 -0.4 -3.4 -0.3 c -0.7 0.1 -1.5 1 -2.1 0.9 c -0.1 0 -0.4 -1.3 -1.8 -0.7 c -0.1 -0.5 0.5 -0.3 0.7 -0.6 c 0.4 -0.7 0.4 -2.1 -0.3 -1.4 c -0.1 0.1 -0.3 1.1 -1 1.5 c -1.5 0.6 -1.3 0.3 -3 1.3 c -1.6 1 -4.1 1.5 -3.6 3.9 c 2.2 -0.7 1.6 1.3 2.6 1.6 c 0.8 0.3 2.3 0.2 3.5 0.6 c 2.1 0.6 3.9 1.9 6.3 1.5 l 0.4 1.9 l 1.3 0 l -1.3 0.5 c 2.8 2.8 3.4 0.5 2 -2.2 c 1 0.1 3.2 -0.7 3.2 -1.8 c -0.2 -1.5 -1.5 -1.1 -2.2 -2 l 1.3 -1.3 l -1.3 -0.5 l 1 -0.3 l -0.3 -1.7 l 4 0.3 l 0.2 -0.7 c 1.8 0.7 2.8 2.1 4.8 1.7 l -0.2 1.7 c 1.9 2.1 3.6 0.7 4.7 -1.3 c 0.9 1.4 2.4 2.3 3.5 3.5 c 0.3 0.3 0.3 0.9 0.9 1.5 c 0.8 0.8 2.3 1 3.7 2.1 c 0.8 0.6 1.8 -0.1 0.8 2.2 l 0.6 0.3 l -1 1 c 0.7 1.3 1.5 0.3 2.3 0.7 c 1.4 0.6 2 3.8 -0.2 3.1 c -0.2 -0.1 -0.1 -0.6 -0.3 -0.6 c -1.9 -0.1 -1.1 -0.1 -2 -0.3 c -0.8 -0.2 -1.9 0.1 -2.8 0 c -0.6 -0.6 2 -2.8 2 -3.7 c -0.9 -0.2 -1.4 0.7 -2 0.8 c -2.4 0.7 -4.6 -0.3 -6.8 0.2 c -0.7 0.2 -1.3 1.1 -2.2 0.9 c -0.1 0.6 0.7 0.3 1.1 0.2 c 1 -0.1 3 -0.9 3.3 0.6 c -0.1 0.4 -1.4 0.9 -0.7 1.4 c 0.1 0.1 0.4 -0.1 0.6 0 c 0.1 0 0.1 0.5 0.3 0.5 c 0.6 0.1 1.2 0 1.8 0 l 0.2 0.7 l 1.5 -1.3 c -0.1 0.8 0 0.9 0.7 1.2 l -6.2 2.8 c -0.7 0.2 -0.6 -0.7 -0.5 -1.1 c 0.2 -0.6 1 -0.3 1 -0.9 c -1.1 0.5 -5.7 1.6 -5.7 2.8 l 1 0.2 v 1 c -0.6 -0.1 -3.6 0.5 -3.9 0.7 c -0.4 0.3 -1.2 3.3 -2.4 3.3 l 1 2 l -0.6 -0.3 c -0.4 1.2 -1.7 1.1 -2.7 1.8 c -0.5 0.3 -2.5 1.9 -2.6 2.4 c -0.7 2.2 3.6 6.5 -0.7 6.8 l 0.7 -0.8 c -1.7 -1.2 -1.4 -3.1 -2.5 -4.5 c -1.8 0.7 -3.4 -0.8 -5.5 -0.3 l 0.3 1.3 c -3.1 -0.2 -4.8 -1.7 -7.5 0.7 c -1.4 1.2 -0.4 1.5 -0.6 2.5 c -0.2 1.4 -0.8 1.6 -0.5 3.6 c 0.7 4.4 6.2 5.4 7.1 0.9 l 3.8 -0.3 c -0.1 1.4 -1.1 2.3 -1.3 3.9 l 0.7 0.5 l -1.3 1.3 h 2.3 s -0.3 -0.7 -0.3 -0.7 h 1 s -0.3 0.7 -0.3 0.7 l 3 0.7 c -0.6 2.2 -1.4 5.2 1.4 6.1 c 0.8 0.3 1.7 -0.6 2.8 -0.5 c 0.8 0.1 1.6 1.1 2 1 c 0.8 -0.4 0.8 -1.9 1.3 -2.3 c 0.4 -0.4 0.9 -0.1 1.1 -0.1 c 0.3 -0.1 0.9 -0.3 1.1 -0.4 c 0.7 -0.3 1.1 -1 1.9 -1.2 l -0.5 1 c 0.3 0.9 0.9 0.4 1.6 0.3 l 0 -1.3 c 0.4 0.2 2.1 2 2.2 2 c 0.8 0.2 2.3 0 3.2 0.3 l 0.2 -1 l 3.7 0.3 c -0.3 0.7 0 1.8 0.4 2.2 c 0.2 0.2 1.1 0.2 1.6 0.6 c 0.6 0.5 0.8 1.4 1.8 1.9 c 1.7 0.7 4.3 -0.2 5.8 1.7 c 0.7 0.9 1.1 3.7 2.1 4.4 s 3 0.7 4.1 1.2 c 0.8 0.4 0.7 1 1 1.2 c 0.3 0.3 3.9 0.3 4.6 0.6 c 0.9 0.3 1.7 1.6 2.7 2 c 0.5 0.2 1.4 0 1.7 0.4 c 0.4 0.5 0.8 2.4 0.4 3.1 c -1.1 1.8 -2.6 3.6 -4.1 5 c 0.8 2 -1.5 9.3 -3.2 9.8 c -1.6 0.4 -3 0.4 -4.6 1.3 c -3 1.7 -0.9 2.6 -1.8 4.1 c -0.2 0.3 -0.8 0.5 -1.2 0.9 c -1 1.3 -1.7 2.5 -2.9 3.8 c -2 2.2 -2.8 1.9 -5.7 1.2 c 0 0.5 0.7 0.4 1 0.8 c 0.2 0.3 -0.2 0.8 0.7 1.1 c -0.3 2.6 -3.2 2.8 -5.3 2.8 c 0 0.7 0.2 1.7 -0.6 1.9 l -2.5 0.1 v 1 s 1.3 0.5 1.3 0.5 c -0.2 0.6 -1.4 0.7 -1.6 0.9 c -0.2 0.3 0.1 1 -0.4 1.4 c -0.5 0.6 -1.8 0.1 -2 1.3 l 1.8 0.8 c 0.9 1.2 -0.9 1.3 -1.4 1.9 c -0.3 0.3 -0.2 0.9 -0.6 1.2 c -0.3 0.2 -1.1 0.1 -1.1 0.5 c -0.3 1.7 2 4.5 4 3.8 c -2.2 2.6 -5.5 1.4 -8.1 -0.1 c -2.2 -1.3 -4.1 -5.5 -1.6 -7.1 l -1 -0.2 c -0.1 -0.7 0.6 -1.1 0.8 -1.7 c 0.3 -0.7 -0.3 -1.7 1.5 -1.6 l -0.2 -0.7 l -1.2 0.3 c 0.5 -2 1.6 -4.2 0.7 -6.1 c 2.6 -1.8 1.8 -4.4 2.1 -6.6 c 0.4 -2.7 2.6 -10.3 1.1 -12.4 c -0.7 -1 -2.9 -1.6 -3.9 -2.3 c -2.1 -1.4 -3.8 -6.5 -5.3 -8.9 c -0.3 -0.4 -0.9 -0.4 -1.2 -1.1 c -0.4 -0.9 0 -2.1 0.8 -2.7 l -0.2 -0.5 c -1.5 0.1 -0.1 -3.1 0.2 -3.6 s 0.7 -0.5 1.6 -1.6 c 0.3 -0.4 1.1 -0.9 1.2 -1.3 c 0.2 -1.5 -0.2 -4 -1.8 -4.6 l 0.3 -0.6 c -1.1 0 -1.4 0.8 -1 1.7 c -0.4 -0.2 -1.8 0 -1.9 -0.1 c -0.1 -0.1 -1.3 -0.9 -1.7 -1.1 c -1.7 -1.1 -1.7 -1.5 -2.7 -3 c -1.6 -2.4 -3.6 -1.7 -5.7 -2.7 c -0.9 -0.4 -1.3 -1.8 -2.7 -2 c -0.9 -0.1 -1.2 0.5 -1.9 0.5 c -1.3 0.1 -9.1 -3.4 -9.3 -4.6 c -0.1 -0.5 0.8 -0.6 0.1 -1.8 c -1 -1.8 -3.4 -2.8 -3.8 -3.6 c -0.2 -0.3 0.2 -0.8 0.1 -0.9 c -0.3 -0.4 -2.5 -1.6 -2.7 -2.3 l -0.6 0.3 c 0 -1.6 -0.5 -3.2 -2.3 -3 c 0.2 2 0.8 1.4 1.7 2.2 c 0.2 0.2 0.2 0.9 0.6 1.4 c 1 1.3 1.4 2.1 2.1 3.2 c 0.1 0.1 2.8 2.6 0.5 1.9 c -0.1 0 -0.2 -0.5 -0.4 -0.7 c -2.5 -1.7 -1.1 -1.4 -1.8 -2.6 c -0.1 -0.2 -2.9 -0.9 -3.3 -1.9 l 1.3 -0.3 c -2 -1 -2.1 -3.3 -3.3 -4.7 c -0.4 -0.4 -0.7 -0.1 -0.9 -0.3 c -0.1 0 -0.1 -0.5 -0.3 -0.5 c -0.5 -0.1 -1.5 0.1 -1.7 -0.1 c -0.1 -0.1 -0.1 -0.8 -0.4 -1.1 c -1.7 -2.6 -3.8 -4.2 -3.7 -7.7 c 0 -1 0.6 -2.3 0.6 -3.3 c -0.2 -2.7 -2.8 -3.5 -4.9 -4.5 l 1 -0.5 c -0.8 -1.7 -3.2 -1.7 -3 -3.8 c -1.4 0.2 -2.1 0.8 -3 -0.6 c -0.2 -0.3 -0.3 -1 -0.4 -1.1 c -0.1 0 -0.6 0.4 -1 0.2 s -1 -1.4 -1.6 -1.8 c -2.9 -1.8 -9.2 -2.4 -12.5 -1.6 c -0.5 0.1 -2.4 1.2 -2.6 0.9 l -0.5 -1.3 c -0.7 0.3 -0.7 1.3 -1.1 1.7 c -0.2 0.2 -4.3 2.5 -4.9 2.7 c -0.5 0.2 -1 0.3 -1.6 0.3 l 0.7 0.3 l -0.5 0.7 c -0.5 -0.7 -1.6 -0.6 -2.2 -0.3 c -0.3 0.1 -0.3 0.7 -0.5 0.7 c -0.7 0 -1.5 -0.6 -2.5 0 c -0.2 -0.9 0.3 -0.5 0.7 -0.8 c 2.2 -1 4.8 -1.2 6.6 -3.1 l -2.5 -0.7 l -2.2 0.2 l 0.3 -0.8 l -0.5 -0.5 c -2 0.8 -2.3 -0.6 -3.8 -1.4 c 0.7 -2.4 2.9 -1.9 4.8 -2.3 c 0.5 -0.1 0.6 0.2 0.5 -0.7 c -2.6 -0.6 -5.1 0.6 -7.3 -1.5 c 2.2 -0.9 4.1 -0.9 6.3 -0.5 c -0.1 -0.7 -1.3 -0.5 -1.7 -0.7 c -0.3 -0.1 -0.3 -0.5 -0.5 -0.6 c -0.8 -0.3 -1.9 -0.6 -2.7 -0.7 c 0.6 -1 2.2 -0.5 3.3 -0.9 c 0.4 -0.1 0.4 -0.7 0.8 -0.9 c 5.1 -2.1 12.4 -0.6 17.8 0 c 1.9 0.2 6.7 1.1 8 1.1 s 5.5 -1.5 6.7 -1.5 c 0.5 0 1.1 0.5 1.6 0.5 c 0.3 -0.1 0.6 -0.6 1.1 -0.6 c 0.7 0 1 1 1.6 1 c 0.5 0 0.9 -0.7 1.3 -0.7 c 0.2 0 2.6 0.3 3 0.3 c 2.6 0.3 5.1 1.5 7.8 1 l -3.3 -0.8 l 0.3 -0.8 l -1.4 -0.2 v -0.8 s -1 0 -1 0 l 0.7 -1 c -1 -0.3 -1.6 1.2 -1.9 1.3 c -2.1 0.6 -3.5 -0.4 -5.4 -0.7 c 0.6 -1 1.9 -1.3 1 -2.7 c 0.3 -0.3 6.9 0.2 7.8 0.4 c 2 0.3 4.2 1.7 6.5 1.6 Z"/><path d="M 87 12 c 0.2 -0.7 -0.2 -0.5 -0.5 -0.7 c -1.2 -0.7 -2.6 -0.5 -3.5 -1.4 c 0 -0.5 2.2 -1.3 2.7 -1.4 c 1 -0.1 1.6 0.3 2.1 0.2 c 0.2 0 0.2 -0.6 0.4 -0.7 c 2.5 -0.6 8.2 -0.8 11 -1 c 6.6 -0.4 13.2 -0.3 19.8 0.3 l -0.7 0.7 c 3.2 -0.4 6.7 -0.7 9.8 0 l -0.2 -0.7 c 8.3 -0.7 17.2 -1.6 25.5 -1 c 2 0.1 4 1.1 6.2 0.7 c 0.3 1.1 -0.7 0.5 -1 0.7 l 0 1 l 2 -0.3 l -0.2 -0.7 c 2.3 1.4 4.8 0 7.2 0.7 c -1 1.1 -3.1 1 -4.5 1.4 c -0.8 0.2 -1.5 0.9 -2.5 0.6 l 0.6 1.5 l -1 0.8 h 1.3 s 0 1.3 0 1.3 l -1.7 -0.7 l 1 2.3 l -1.3 0.1 l -0.2 1 l -1.8 0 l 0.9 2.5 c -0.1 1.7 -9.4 2.5 -10.9 3 c -2 0.6 -2.8 1.6 -6.1 2.2 c -2.4 0.5 -1.5 1.2 -2.3 2.2 c -0.2 0.2 -0.7 0.3 -0.9 0.6 c -0.6 0.9 -1.1 3 -2.2 3.1 c -0.9 0 -1.6 -0.6 -2.4 -0.8 c -0.8 -0.2 -1.5 0 -2.3 -0.3 c -1.3 -0.5 -3.1 -3 -4 -4 c -0.4 -0.5 -0.9 -0.5 -1.3 -1.3 c -0.3 -0.7 -0.3 -2.1 0.5 -2.5 l -2 -1.7 l 1.3 -0.8 c -0.7 0 -1.3 0.1 -1.9 -0.3 c -0.2 -0.1 -0.6 -1.6 -0.8 -1.9 c -3.2 -4.1 -7.5 -2.1 -11.8 -2.5 c -1.4 -0.1 -3 -1.4 -4.5 -1.3 l 1.3 -0.5 l -1.7 -0.2 c -0.1 -0.1 0.2 -0.4 0.3 -0.5 c 0.6 -0.3 3.9 -0.7 4.8 -0.8 s 2.6 0.5 3.2 -0.7 c -0.8 -0.1 -1.7 0.2 -2.4 0 c -0.3 -0.1 -0.1 -0.7 -0.7 -0.7 c -1.7 -0.1 -3.6 1.6 -5.6 1.1 l -0.3 0.9 l -4 1.1 l 0.3 1 c -2.1 0.6 -1.7 2.2 -4.2 2.2 c -1.7 0.1 -3.6 0.2 -5.3 0.2 c -1.6 0 -3.3 -0.7 -5 -0.3 l -0.3 -1.3 c -0.7 -0.3 -1.6 -0.7 -1.9 0.3 l 1 1 c -0.9 -0.1 -2.3 0.2 -3.1 0 c -0.3 -0.1 -0.2 -0.7 -0.4 -0.7 c -0.6 -0.1 -1.9 0.5 -3 0.4 c -0.7 -0.1 -1.1 -0.6 -1.7 -0.7 c -0.9 -0.2 -2.1 0 -3.1 -0.4 l 0.3 -1 l -2 -1 l 2.7 0.7 l -0.3 0.7 c 2.3 0.6 4.4 -1.3 6.7 0.3 l -0.3 -1 l 0.8 0.2 l 0.5 -0.9 c -0.6 0.4 -2.5 0.1 -2.3 -1 c 2 -0.4 3.8 0.9 5.7 1 c -0.4 1.3 -1.9 0.2 -2.3 1 c 2.5 0.3 4.9 0.1 7.3 -0.3 c -0.8 -1 0.6 -0.2 0.3 -1.3 c -1.3 0.9 -3 0.5 -4.5 0.4 c -0.4 0 -0.7 0.3 -0.8 0.3 Z M 98.7 13.7 h -8.3 c 0.5 1 2.3 0.5 3.2 0.7 l 5.2 -0.7 Z"/><path d="M 64.7 12.3 l -0.7 1 l 2.7 -0.3 l -0.7 0.7 c 1.6 -0.5 3.1 1.5 4.3 0.2 l -1 -0.5 c 1.8 -1 2.5 0.4 3.2 0.6 c 0.4 0.1 1.6 -0.5 2.1 0.3 c -1 1.4 -2.9 0.7 -4.5 0.9 c -1 0.1 -2 0.7 -3 0.7 c -1.4 0 -2.8 -1.2 -4.3 -0.8 l -0.2 -0.9 h -5.7 c 0.1 -0.6 0.7 -0.6 1.1 -0.7 c 2.1 -0.7 4.3 -1.1 6.5 -0.9 Z"/><path d="M 82.7 15.3 l -0.3 0.6 c 0.9 0.4 1.9 1.7 0.7 2.3 c -2.4 1.2 -3.7 -0.9 -6.1 -0.9 c 0.9 -1.4 2.6 -1.1 3.8 -1.3 c 0.3 -0.1 0.2 -0.6 0.5 -0.6 c 0.2 -0.1 1 0.2 1.4 0 Z"/><path d="M 81 11.7 c -0.6 1.1 -2.6 0.3 -3.7 0.7 l 0.7 -0.7 l -3.3 -0.1 l -0.4 -1.3 c 2.3 0.3 4.6 0.2 6.7 1.3 Z"/><path d="M 70.7 11.3 c -0.7 1.5 -2.8 1.9 -4 0.8 l 1 -0.3 l -1 -0.5 h 4 Z"/><path d="M 28 31.3 c 0 1.5 -2.1 2.7 -3 1.2 l 3 -1.2 Z"/><path d="M 311.3 90.3 c -0.1 0.1 -0.8 -0.3 -0.7 0.3 c 2.8 -0.8 3.7 -0.1 4.3 2.7 c 0.3 0.2 2.1 -2.1 0 -1.7 l 0.6 -0.3 l -0.1 -1 l 1.1 0.7 l -0.3 0.6 c 1.7 -0.7 2.1 0.2 3.3 0.5 c 1.1 0.3 4.5 1 5 1.3 c 0.3 0.2 0.3 1.2 1.3 0.8 l -0.3 1 h 5.3 c 0.4 -2.7 2.4 -1 0.8 0.3 c -1 0.8 -2.5 0.8 -3.6 0 l -0.2 1 l -1 0 c -0.3 0.9 0.5 0.6 0.8 1 c 1 1.1 1.2 2.1 3.1 1.4 l 0.4 1.7 c -0.3 0.3 -3.2 -0.5 -3.8 -0.7 c -1.3 -0.7 -1.4 -2.3 -3.1 -2.3 c -0.5 0 -1.8 2.1 -1.8 2.5 c 0 1.3 1.3 2.8 1 4.2 c 2 -1 1.9 3.3 3.2 4.7 c 0.6 0.6 1.4 0.5 1.8 0.8 c 0.8 0.7 1.6 2.4 2.2 3.1 c 0.5 0.7 1.3 1.1 1.5 2 l 1 -0.3 c -0.7 1.4 0.3 2.6 0.3 3.8 c -0.3 4 -3.4 5.3 -3.6 9.2 c -1.2 -0.1 -3.5 0.1 -3 1.7 c -0.5 0.3 -1.7 -0.9 -2.3 -0.9 c -0.7 -0.1 -0.9 0.5 -1.3 0.5 c -0.1 0 -2.5 -0.7 -2.7 -0.8 c -1.2 -0.5 -1.1 -2.2 -2 -2.4 l -2.4 0.3 l 0.6 -0.3 l -0.3 -0.8 c 0 -0.1 1.2 -0.6 0.7 -1.2 s -1.1 1.5 -1.8 1.3 l -1.9 -2.4 c -0.9 -0.3 -1.4 -0.8 -2.5 -0.8 c -1.7 -0.1 -5.3 0.6 -6.9 1.3 c -0.4 0.2 -0.4 0.7 -0.8 0.9 c -1 0.5 -2.3 0 -3.2 0.1 c -0.8 0.1 -2.1 1.1 -2.3 1.2 c -0.9 0.1 -2.5 -0.7 -3.2 -1.4 c 1.5 -1.6 -0.1 -4.7 -0.9 -6.5 c -0.2 -0.5 -0.7 -0.9 -0.8 -1.2 c -0.1 -0.4 0.4 -0.7 0.4 -0.9 c 0 -0.5 -0.1 -3.3 0.2 -3.5 c 0 0 0.4 0.3 0.6 0.2 c 0.1 -0.1 1.2 -1.2 1.3 -1.2 c 1.2 -0.6 4.5 -0.7 5.5 -1.3 c 0.9 -0.6 0.7 -2.4 2.1 -3.4 c 0.3 -0.2 0.7 -0.1 0.9 -0.2 c 0.2 -0.1 0.3 -1.5 1.3 -2 c 1.8 -0.8 1.9 0.4 2.9 0.8 c 1.6 0.6 1.3 -1.6 2.4 -2.4 l -0.7 -1.2 h 1.3 s -0.3 1 -0.3 1 h 1.3 s -0.7 -1 -0.7 -1 c 1.7 -0.6 2.5 2 4.5 0.4 l 0.8 0.8 l -0.6 1 c 0.7 0.3 0.8 0.3 0.7 1.2 h -1.3 c -0.3 0.3 2.4 2.2 2.6 2.3 c 0.6 0.1 1.2 -0.4 1.8 -0.3 l -0.7 1 l 0.8 0.3 l 0.8 -1.2 l 1 -7.1 c -0.9 0.6 -1.7 -0.9 -1.9 -1 c -0.8 -0.2 -1.9 0.1 -2.8 0 l 1.3 -1 c -0.4 -2.3 -2 -2.6 -4 -3.2 c -0.6 -0.2 -1.2 0.2 -1.8 -0.1 c -0.1 0 -1.1 -1 -1.2 -1.1 c -0.1 -0.1 0.3 -0.6 0.1 -0.9 c -0.3 -0.6 -2.3 -0.9 -1.9 -2.3 c 0.2 0.1 1.6 0.3 1.3 0.7 Z"/><path d="M 328 133.3 l -0.5 -0.3 l -0.4 0.6 c -1.9 0.2 -2 -1.6 -2.8 -2.9 l 3.7 -0.2 l -0.2 -1.3 c 1.1 1.1 0.3 2.7 0.2 4 Z"/><path d="M 158.6 23.8 c 0.2 0.1 0 0.7 0.3 0.5 c 0.6 -0.7 5.8 -1.1 6.3 -1 c 0.2 0.1 1.6 1.5 1.2 2 c -1.6 0.1 -3.3 1.2 -4.9 1.3 c -1.4 0.1 -3 -0.8 -4.5 -0.3 l 0.7 -1 h -2 s 1 -0.7 1 -0.7 l -1.3 -0.2 c 0.9 -1.1 1.9 -1.5 3.2 -0.7 Z"/><path d="M 181.3 39 c 3 -0.7 2.5 -1.9 3.7 -2.5 c 0.8 -0.4 2.4 -0.4 3.3 -0.5 c 0.1 -0.1 -0.8 -2.8 0 -3.2 l 2.2 -0.8 c 1.3 0.8 -1.4 0.8 0.4 1.4 l -0.3 0.6 l 1.7 -0.3 l -1.5 -2.7 c -1.4 -0.4 -3.5 2.3 -5.3 0.4 c -0.5 -0.6 -1.3 -2.9 -0.7 -3.6 c 0.1 -0.1 2.7 -1.3 3.3 -1.6 c 0.6 -0.3 2.9 -0.9 3.3 -1.4 c 0.3 -0.3 0.3 -0.9 0.7 -1.3 s 1.8 -0.9 2.3 -1.2 c 0.1 -1 -2.7 0.7 -1.7 -0.5 l 6.2 -2.1 c 2.6 0.7 5.7 -2.3 8 -0.3 l 0.4 -0.7 l 3.8 0.7 l -0.7 0.7 c 1.2 -0.4 2.3 0.3 3.2 0.5 c 1.9 0.3 5.6 0.6 7.2 1.5 c 0.4 0.2 0.6 0.9 0.6 1.3 c -2.5 1.1 -4.8 0.4 -7.3 0 c -0.1 0.5 0.6 0.3 0.8 0.7 c 0.2 0.2 -0.3 1.1 0.3 1.4 c 0.5 -1.3 3.1 -0.3 4.3 0 c 0.5 -1.5 2.7 -2.7 4.1 -1.7 l 0.8 -0.5 l -0.7 -0.3 l 0.4 -1 l -0.7 -0.5 c 1.1 0.1 3.3 -0.6 3.3 1 l -1.7 0.3 c 0.8 0.2 1.8 0.6 2.6 0.3 c 0.1 0 0.1 -0.5 0.7 -0.8 c 0.9 -0.3 5.5 -1.5 6 -1.1 l -0.2 0.7 l 5.2 -1 l 0.3 1 l 0.7 -0.8 l -2 -0.8 l 0.5 -0.6 l 9.8 2 c -0.1 -0.8 -1.6 -0.5 -1.9 -0.7 c -0.1 -0.1 -0.5 -1.8 -0.4 -1.9 c 1.6 0.1 3.1 -2.5 4.5 -2.4 c 0.6 0.1 1.3 1 2.2 0.7 l -1 1.6 c 1.5 0.1 -0.3 2.4 1.7 2.8 c -0.6 0.4 -1.2 1 -1.8 1.6 c -0.3 0.3 -1.1 0.6 -0.1 0.6 l 2.8 -1.3 l -1.2 -2 l 0.4 -1 l -0.8 -0.8 l 1.8 -0.8 c -0.4 -0.9 0.2 -1 0.7 -0.2 l -0.2 1.2 h 1 s 0.1 -1 0.1 -1 l 2.7 -1 c 0.8 1.7 2.3 1.3 0.8 -0.3 h 3.7 s -1.3 -0.7 -1.3 -0.7 l 11.7 -2 c 0.6 -0.9 1.6 -1 2.6 -1 l -0.3 0.7 c 3.6 1.1 6.6 -2.3 10.5 -0.9 c 0.5 0.2 0.5 0.8 0.6 0.9 c 0.1 0.1 2.5 -0.4 3.5 -0.3 c 0.5 0 3.2 0.6 3.2 1.2 c -2.3 2.8 0 1.8 1.5 1.9 c 1.8 0.1 4.4 0.9 6 0.9 c 1.4 0 1.4 -1 2.3 -1 c 1.8 0.1 4 0.6 5.8 0.7 l -0.3 2 c 0.8 0 1.7 0.6 2.3 0.2 c 0.2 -0.2 0.2 -0.8 0.5 -0.9 c 0.7 -0.1 3.5 0.5 5 0.4 c 1.6 -0.1 1.6 -0.8 2.1 -1 c 1.7 -0.6 8.6 -0.1 10.5 0.3 c 0.1 0 1.7 1.2 2.8 1.3 c 2.2 0.3 4.6 -0.9 6.9 0.1 c 0.5 0.2 0.5 0.7 0.8 0.9 c 0.4 0.2 5.5 0.4 6.3 0.4 c 0.9 -0.1 2.2 -1.2 2.8 0 l -1 0.3 l 2.3 0.3 l -0.7 -0.8 l 0.8 -0.5 l 9.2 1 v 4.3 l -1.7 0.3 c 2.2 3.3 1 1.9 -1.3 2.1 c -2 0.2 -5.9 2.4 -6.9 2.5 c -0.5 0 -0.9 -0.6 -1.6 -0.6 c -0.8 0 -1.8 0.5 -2.4 1 c -0.4 -1.4 -0.8 -0.2 -1.3 -0.1 c -0.4 0.1 -1.3 -0.4 -1.5 -0.2 c -0.1 0.1 0.1 0.6 -0.1 0.9 c -0.3 0.4 -1.2 0.5 -1.3 1.1 h 1.3 s 0 2 0 2 l -1 -0.2 l -0.5 0.5 l 0.2 1 c -1.3 0.3 -2.4 -0.2 -2 1.7 c -1.5 -0.7 -1.7 1.6 -3.2 2 c -0.8 -1.4 -1.9 -4.3 -1.1 -5.7 s 2.1 -1.2 3 -1.7 c 1.1 -0.6 3.9 -2.1 4.7 -2.7 c 0.5 -0.4 0.8 -0.9 1 -1.5 c -1.4 -0.4 -0.8 0.7 -1.3 1.2 c -0.1 0.1 -2.1 0.2 -2.5 0.8 c -0.7 0.1 -0.8 -1.2 -1.3 -1.2 c -1.7 -0.3 -3.5 1.1 -4.9 2.1 l 1.3 0.3 c 0 0.5 -4.8 0.5 -5.2 0.4 c -0.2 -0.1 -0.1 -0.6 -0.3 -0.6 c -0.6 -0.1 -1 0.5 -1.3 0.5 c -1.9 0.1 -4.5 -0.5 -6.3 -0.1 c -0.9 0.2 -5 3 -6.3 3.8 c -0.4 0.3 -0.8 -0.1 -0.7 0.8 l 2.7 -0.7 l -0.7 1.7 c 1.2 -1.2 3.8 -0.8 3.7 1 l 1 -2 c 1.4 0.5 0.7 2 0.8 2.7 c 0.3 1.3 2.4 3.6 -0.2 2.6 c -0.2 0.7 -0.4 1.2 -0.1 1.9 c 0.2 0.6 1 0.2 0.8 1.1 c -1.6 -0.8 -0.8 0.2 -2 0.3 c 0.1 -0.8 0.8 -6 -0.2 -6 c -1.3 0.7 -0.6 2.6 -1.3 3.6 c -0.5 0.7 -4.8 4.7 -5.7 5.2 c -1.6 0.9 -2.2 0.1 -3.3 0.6 c -1.8 0.8 -1.4 2.6 -3.6 2.6 c 0.5 1.5 2 2.3 1.9 4.1 c -0.1 1.2 -0.9 0.9 -1.6 1.2 c -0.3 0.1 -0.2 0.6 -0.5 0.7 c -0.5 0.1 -1.2 -0.3 -1.8 0 v -1.7 c 1.6 1 -0.1 -1.6 0 -1.7 c 0.1 -0.1 0.8 0.3 0.7 -0.3 l -2 -0.5 l 1 -1.5 h -2.3 s 0.3 0.7 0.3 0.7 c -0.7 -0.3 -1.7 0 -2.3 0.3 c 0.1 -1.4 1.4 -1.6 0.5 -2.3 c -0.8 -0.1 -2.6 2.9 -3.8 1.7 v 1 s 1.4 0.2 1.4 0.2 l 0 0.8 c 0.8 0.1 1.2 -0.9 2 -1.3 c 0 0.3 0 0.7 0 1 l 1.7 0.5 c -0.5 0.1 -4 1.9 -3.3 2.5 l 0.9 0.1 c 0.3 1.5 2.3 2.5 1.4 3.9 c 0.1 0.1 1.2 -0.6 1.3 0.3 c -1 0 -0.7 1.3 -1.3 2.2 c -0.2 0.2 -1.3 1.1 -1.7 1.2 l 0.7 0.7 c -1.2 0 -0.7 0.9 -0.7 0.9 c -0.1 0.1 -0.8 0.1 -1.1 0.4 c -2.8 2.3 -4.6 3 -8.2 3.9 l -0.3 0.3 c 2.3 3.9 -5 2.5 -0.3 0.8 c -0.3 -1.1 -0.5 -1.7 -1.8 -1.7 c -0.5 1.1 -2.1 1.1 -2.4 2.4 s 2.8 3 3.2 3.9 c 0.4 1 0.7 3.3 -0.1 4.1 l -4.2 2.6 c 0.1 -2 -0.8 -1.3 -1.2 -1.6 c -1 -0.8 -1.1 -2.8 -2.8 -2.4 l -0.2 -1 l -1.5 3.8 l 0.6 0.5 l 0.3 -1 c 0 0.8 0.1 2.4 0.5 3 c 0.8 1.1 3.8 1 2.9 4.3 l 1 0 c -0.8 1.2 0.5 1.6 0.6 1.7 c 0 0.1 0 1.6 -0.1 1.6 c -0.3 0.4 -1.4 0 -0.3 1.3 c 0.6 0.7 0.8 -0.5 1.3 -0.3 c 0.6 1.6 1.5 0.7 2.5 1.5 c 0.1 1.2 -1.9 -0.2 -2.3 0.2 l -0.3 2.7 c 1.3 -0.7 2.5 0.9 3.5 1 c 0.7 0.1 1.2 -0.3 1.7 -0.3 c 1.1 0.1 2.3 0.5 3.5 0.3 l -0.2 1 c 0.4 0.5 1.8 0 1.5 1 l 0.5 -0.7 c 1.9 0 3.8 0.3 5.6 0.3 c 1.4 0 4.5 -1 5.5 0.3 l -4.3 2 c 0 -1.2 1.5 -1.4 2 -2.3 l -5 0.7 c 0.2 0.5 1.4 1.4 0.2 1.3 l -1.5 -0.7 l 1 -1 c -4.9 0.9 -9.8 -1 -14.7 -1.7 l 0.7 -1 c -1.2 0.1 -2.9 -1.3 -3.7 -2.1 c -2 -2.1 -3.2 -5.3 -5.1 -7.4 c -0.6 -0.7 -2.2 -1 -1.9 -2.4 c 2.3 0.7 4 1.6 5.4 3.6 l 1.3 -0.2 c -1.3 0 -1.4 -3.3 -1.7 -3.6 c -1.6 0.1 0 -0.9 -1.4 -1.7 l -0.5 0.7 c -0.3 -1.2 0 -2.7 -0.1 -3.8 c -0.1 -0.8 -1.1 -1.1 0.4 -2.5 c -1 0.1 -0.4 -2.1 -1 -3 c -1.7 0 -1.6 1.6 -3.3 0.7 c 1.1 -2.2 -0.9 -3.1 -2 -4.9 c -0.3 -0.4 -0.4 -0.9 -0.4 -1.5 c -1.6 0.9 -2.9 0.7 -4.6 0.7 c 0.1 2 -1.2 1.6 -2.1 2.3 c -1.1 0.9 -2.4 2.4 -3.5 3.3 c -0.7 0.5 -1.2 -0.4 -1.3 1.2 c -0.1 1.4 -0.1 3 -0.1 4.3 c -1.4 0.8 -2.5 4.1 -3.8 1.5 c -1.3 -2.8 -3.2 -7.3 -3.7 -10.3 c -0.1 -0.7 0.4 -1.4 -0.4 -1.9 c -1.4 1.5 -3.1 -0.1 -3.3 -1.6 l -2.4 -1.8 l 0.3 -0.6 c -3.3 0.3 -6.4 0.2 -9.7 -0.3 v -1.3 c -3.1 1.3 -5.4 -0.2 -7 -2.8 c -4.1 -1 -0.1 3.5 1.5 3.8 l 0.1 2 l 0.8 -1 c 0.5 2.2 3.7 -1.5 3.8 -1.3 c -0.3 2.8 2.3 2 3.7 3.8 l -1.3 2.4 l -1 -0.2 l 0.3 1.3 c -1.4 -0.1 -1.1 1.5 -2.7 1 l 0.7 0.7 c -0.9 0.4 -2.3 0.3 -3.1 0.7 c -1.9 1.1 -3.3 2.1 -5.7 3 c -1.1 0.4 -2.6 0.8 -3.9 1 l -0.2 1 c 0.8 2.1 6.4 -0.5 8.2 -0.2 c -0.6 3.4 -2.9 7.2 -5.5 9.5 c -0.5 0.5 -1.3 0.6 -1.8 1.2 c -0.9 0.8 -4.5 4.8 -4.7 5.7 l 0.7 0.8 l -1 -0.3 l 1 2.8 l -0.7 0.3 c 0 1.8 1.1 1.9 1.3 2.4 c 0.1 0.3 0.2 4.5 0 4.9 c -0.8 1.7 -2.3 1.5 -3.4 2.3 c -0.6 0.4 -1.5 1.9 -2.4 2.3 c -0.2 0.4 1.4 3.1 0.5 4.5 c -0.4 0.6 -2.1 0.6 -2.3 0.9 s -0.1 2.1 -0.6 2.9 c -0.7 1.4 -4.2 4.7 -5.7 5.3 c -1.6 0.8 -2.5 0.2 -3.9 0.3 c -1.3 0.1 -3 1.1 -4 0.4 c -1.5 -1 -0.6 -1.9 -1 -3 c -0.6 -1.6 -2.3 -3 -2.9 -4.5 s -0.4 -3.2 -0.8 -4.5 c -0.9 -2.8 -3 -3 -2.4 -7 c 0.3 -1.9 1.2 -2.3 1.7 -3.3 s -0.3 -1.5 -0.5 -2.3 c -0.3 -1.7 -0.4 -3.2 -1.3 -5 c -0.6 -1.2 -2.9 -2.5 -3 -3.7 c -0.2 -1.1 1.4 -3 0.8 -4.8 c -0.4 -1.1 -0.5 1 -1.2 0.3 l 0.2 -1 l -0.3 -0.3 c -2.9 1.4 -2.6 -1 -3.5 -1.5 c -2 -1.2 -4.9 1.1 -6.6 1.3 c -0.8 0.1 -1.5 -0.4 -2.2 -0.4 c -1.5 0 -3 1.1 -4.3 0.6 c -0.3 -0.1 -4.1 -2.6 -4.5 -2.9 c -0.1 -0.1 -0.4 -2.1 -1.7 -3 c -0.6 -0.4 -1.4 -0.4 -1.8 -0.8 c -0.2 -0.2 -0.5 -2.3 -0.6 -2.8 c -0.1 -0.3 -0.5 -0.6 -0.5 -0.8 c 0 -0.2 0.7 -0.6 0.8 -1.1 c 0.5 -1.4 0.9 -4.3 -0.6 -5 c 0.1 -1.6 1.4 -2.7 2.2 -3.8 c 0.4 -0.7 1.4 -2.7 1.9 -3.2 c 0.4 -0.4 2.3 -0.7 3 -1.6 c 0.7 -1 -0.2 -2.5 1.5 -3.8 c 0.6 -0.4 1.4 -0.5 1.9 -1.1 c 1.8 -1.9 0.1 -3.4 -2.1 -2.6 c 0.3 -0.8 -0.7 -1.7 -0.7 -2.2 c 0 -0.4 0.6 -0.9 0.7 -1.7 c 0.1 -0.8 -0.6 -2 -0.2 -2.5 c 1 -1.3 6.5 0.2 7.2 -0.2 c 1 -1.2 1 -2.8 -0.6 -3.2 l 0.3 -0.6 c -1.1 -0.2 -2.5 -0.2 -3 -1.3 c 1.3 -0.6 2.3 -0.1 3.7 0 l -1.3 -0.7 c 0.6 -1.5 2.1 -0.1 2.9 0 c 0.1 0 0.1 -0.4 0.3 -0.5 c 0.9 -0.5 0.9 0 1.2 -1.1 c -2.4 0.5 -4.9 0.3 -7.3 1 c 0.5 -0.6 1.2 -1.5 2 -1.3 c -0.1 -0.8 -1.7 0.3 -1.3 -1 l 1 -0.2 l -0.7 -0.3 l 0.5 -0.8 l 0.6 0.2 c 0.6 -0.3 0.8 -0.6 0.2 -1.1 c -0.8 -0.7 -0.5 1 -1.3 0.5 c -0.1 -0.1 0.8 -0.8 -0.2 -0.7 l -1 0.6 c 1.3 2 -4 3 -4.5 2.4 c 0.8 -0.8 0.1 -2.7 0.8 -2.9 c 1.5 -0.3 0.6 -0.4 1.6 -0.8 c 0.7 -0.3 1.5 0.1 2.2 0.1 l -0.6 -0.4 c 0.3 -0.7 0.1 -0.5 -0.4 -0.8 l 0.3 -0.8 l -1 0.3 l -0.3 -0.9 l 1.6 -0.7 l 0.2 1 c 0.6 -1.2 1.6 -0.8 2.3 -1 c 0.4 -0.1 0.2 -1 1.2 -0.6 l -1 1.3 l 1.7 0.2 c 0.8 0.4 -0.6 1 -0.7 1.3 v 0.5 c 1.4 -0.3 0.9 0.8 1.4 1.3 c 0.2 0.2 0.8 0.1 1.2 0.6 c 0.5 0.7 -0.1 1.5 1.7 1.1 c 0.1 0.1 -0.2 1.7 -0.3 2 Z M 204.7 24.3 c -0.9 0 -2 0 -2.8 0.4 c -0.5 0.2 -0.3 1.1 -1 1.5 c -1.6 0.8 -3.6 0.7 -3.5 3.1 c 1.1 -0.1 1.9 0.4 2.3 1.3 l -2.6 0.8 c -0.3 3.1 -0.6 1.9 -2.5 2.6 c -0.3 0.1 -0.2 0.5 -0.5 0.6 c -0.7 0.2 -2.3 0 -2.8 1 c 0.6 0.3 1.5 -0.6 1.8 -0.6 c 0.3 0 0.6 0.8 1.3 0.8 c 0.8 0 2.2 -0.9 3.1 -0.9 c 0.7 -0.1 1.3 0.3 1.9 0.3 c 2.1 -0.2 1.3 -1.1 1.4 -1.9 c 0.2 -0.8 1.1 -1 1.1 -1.1 c 0.1 -0.3 -0.3 -0.6 -0.2 -0.9 c 0.2 -0.7 1.8 -0.5 1.9 -1.1 c -1.3 0 -2.6 0.2 -3.9 -0.3 c -0.5 -0.2 -0.6 0.1 -0.5 -0.7 l 1.6 0 c 0.5 -0.9 0.3 -1.7 -0.3 -2.5 c 1.3 -0.9 3.5 -0.6 4 -2.5 Z M 212.6 44 c -0.1 -0.1 -1.7 -0.8 -1.9 -0.7 c -0.4 1.1 -4 4.1 -2.5 5 c 1.7 1.1 4.8 -0.8 6.9 -0.7 c 0.2 0 0.2 0.6 0.3 0.6 c 2 0.5 4.2 1 6.2 0.1 c 0.5 -0.6 -3.9 -3.1 -4.6 -3.3 c -1.5 -0.3 -2.2 0.2 -3.5 0.6 l -1.1 -1.1 c -0.1 -0.1 0.3 -0.5 0.2 -0.6 Z M 193.3 44.4 c -0.3 -0.2 -0.9 0.2 -1 0.5 c -0.3 1 0.7 1 1.2 1.5 c 1.6 1.8 2.2 1.5 4.1 2.6 c 0.4 0.3 0.8 0.5 1.1 0.9 l -2 -0.2 l 0.7 1.3 c -1.1 0.6 -2.1 1.2 -2.5 2.3 l -2.8 -1.7 h 3.7 s 0 -1.4 0 -1.4 l -6 -3.3 c -0.1 -0.1 1 -1.4 -0.8 -1.3 c -0.8 0 -1.9 1.2 -2.7 1.3 c -0.8 0.1 -1.9 -0.7 -2.9 -0.2 c -0.4 0.2 0.2 0.9 -0.3 1.3 c -0.8 0.7 -4.4 1.2 -2.7 3.2 c -1 0.2 -1.6 1.7 -2.6 1.9 c -0.9 0.3 -2.1 -0.1 -3.1 0.4 c 0.8 2.3 4.6 0.1 6.3 -0.2 c 1.5 -0.4 4 -0.6 5.5 -0.7 c 1.4 -0.1 3.1 0.2 4.6 -0.1 c -0.4 1 -0.2 1.7 0.3 2.7 l -1.3 0.7 c 0.9 -0.1 1.5 0.7 2.2 0.9 s 2.2 0 2.9 0.4 c 0.4 0.2 0.1 0.8 0.4 1 c 0.6 0.4 2.8 0.3 3.6 1.2 l 0.7 -0.6 c -0.3 -1.5 0.2 -1.9 1.7 -2 c 1.8 -0.2 1.4 0.5 1.8 0.7 c 1.1 0.3 4.7 1.3 5.7 1.3 c 0.6 0 1.1 -0.6 1.9 -0.6 c 1.1 -0.1 2.6 1 3.5 -0.1 c 0.5 -0.6 1.8 -4.3 1.3 -4.8 c -1 -0.3 -1.9 0.8 -2.8 0.7 c -0.6 -0.1 -1.5 -0.9 -2 -1 c -0.1 0 -0.2 1 -1.3 0.8 c -0.3 0 -0.6 -0.5 -0.9 -0.5 s -0.7 0.8 -0.9 0.6 c 0 0 0 -0.5 -0.1 -0.5 c -0.2 -0.1 -0.5 0.1 -0.7 -0.1 c -0.1 -0.1 -1.1 -1.4 -1.2 -1.5 c -0.4 -0.9 1.1 -0.1 1 -0.8 l -0.9 -0.3 l -0.1 -1.5 c -1.2 -0.8 -1.1 1.4 -2.7 0.8 c 0.7 0.9 2.4 1.6 1 2.5 c -0.3 0.2 -0.9 0.1 -1 0.2 c -0.1 0.1 0.7 0.9 -0.2 1.3 c -0.7 -0.4 -1.1 -1.1 -1.6 -1.6 c -0.2 -0.2 -0.7 0 -0.8 -0.2 c -0.1 -0.1 -1.2 -2.5 -1.3 -2.6 c -0.3 -1.1 1.1 -1.5 -1.1 -2.3 s -2.5 -0.7 -4.4 -2.3 c -0.3 -0.2 -0.3 -0.8 -0.4 -0.8 Z M 218.2 66.1 c -0.2 -0.3 -0.7 -0.3 -1 -0.8 c -0.8 -1.1 -1.2 -2.3 -2.2 -3.2 c -0.3 -0.4 -0.9 0.1 -1 0.4 c -0.1 0.6 2.1 5.1 3 5.4 l 0.4 3.1 l 1 0 c -0.6 0.8 0.9 1 0.7 2.3 c 1.1 0 1.3 -0.1 1.6 1 l -0.6 0.4 l 3 2 c 0.1 -0.1 -0.6 -2.7 -0.8 -2.9 c -0.2 -0.3 -1.9 -0.7 -0.2 -1.2 c -0.4 -1.3 -2.2 -2.4 -2.7 -3.1 c -0.6 -0.9 -0.3 -2.3 -1.1 -3.3 Z"/><path d="M 249 13 c -0.2 0.6 -1 0.8 -1.6 0.9 c -2.1 0.5 -4.3 0.3 -6.4 0.9 c -0.7 0.2 -5.2 2.3 -5.3 2.5 c -0.6 1 1.1 1.7 2 1.6 c 0.8 0.8 -3.7 0.3 -4.1 0.3 c -0.4 -0.1 -2.1 -0.8 -2.2 -1.1 c -0.3 -0.6 1.3 -0.6 1.4 -1.3 l 1.3 -0.2 l -0.3 -0.6 l 2.4 -1.4 c 4.2 -1 8.6 -1.3 12.9 -1.6 Z"/><path d="M 278 9 l 0.2 0.9 l 2.2 0.1 c -0.5 2.1 -3.3 1.1 -5.1 1 c -0.6 -0.1 -1.3 -0.5 -1.7 -0.5 s -0.8 0.6 -1.3 0.6 c -0.1 0 -0.4 -1.1 -1.2 -0.7 c -0.8 -0.7 2.6 -1.5 2.9 -1.6 c 1.5 -0.2 2.6 0 4.1 0.3 Z"/><path d="M 318.3 13.7 c 0.8 -0.1 1.3 0.2 1.9 0.2 s 4.8 -0.3 4.8 0.6 c -1.1 1.1 -2.9 0.5 -4.1 0.5 c -1.4 0.1 -2.9 0.8 -4.2 -0.5 c 0 -0.3 1.2 -0.7 1.6 -0.8 Z"/><path d="M 285.3 11 c 0.6 0.5 -0.1 0.6 -0.5 0.7 c -1.2 0.2 -3.3 -0.3 -3.6 0.6 l -1.9 -0.3 c 0.4 -0.6 2 -1.5 2.6 -1.6 c 1.1 -0.2 2.3 0.6 3.4 0.6 Z"/><path d="M 189.7 51 h -1.7 s 0 -2.2 0 -2.2 l 0.7 0.2 l -0.3 -1.4 l 0.8 -0.6 c 0.6 0 0.4 3.5 0.5 4 Z"/></svg>